<?xml version="1.0" encoding="utf-8"?>
<!-- Generator: Adobe Illustrator 16.0.4, SVG Export Plug-In . SVG Version: 6.00 Build 0)  -->
<!DOCTYPE svg PUBLIC "-//W3C//DTD SVG 1.1//EN" "http://www.w3.org/Graphics/SVG/1.1/DTD/svg11.dtd">
<svg version="1.1" id="Layer_1" xmlns="http://www.w3.org/2000/svg" xmlns:xlink="http://www.w3.org/1999/xlink" x="0px" y="0px"
	 width="50px" height="50px" viewBox="0 0 50 50" enable-background="new 0 0 50 50" xml:space="preserve">
<path fill="#B3B3B3" d="M39.057,18.396c0-0.309-0.252-0.561-0.561-0.561h-7.371c0.73-0.714,1.185-1.711,1.185-2.812
	c0-2.174-1.762-3.937-3.936-3.937c-1.433,0-2.685,0.765-3.374,1.907c-0.688-1.143-1.942-1.907-3.374-1.907
	c-2.174,0-3.936,1.763-3.936,3.937c0,1.102,0.455,2.099,1.185,2.812h-7.37c-0.31,0-0.561,0.25-0.562,0.561h-0.001v4.498
	c0,0.311,0.252,0.562,0.562,0.562h1.136v14.895c0,0.31,0.252,0.562,0.562,0.562h11.233l0,0h1.125l0,0h11.232
	c0.311,0,0.562-0.252,0.562-0.562V23.457h1.137c0.311,0,0.562-0.252,0.562-0.562V18.396L39.057,18.396z M25.565,15.023
	c0-1.552,1.257-2.81,2.809-2.81s2.81,1.257,2.81,2.81c0,1.551-1.258,2.809-2.81,2.809v0.004h-2.812v-2.812H25.565z M18.817,15.023
	c0-1.552,1.257-2.81,2.809-2.81c1.551,0,2.809,1.257,2.809,2.81h0.003v2.812h-2.812v-0.004
	C20.075,17.832,18.817,16.574,18.817,15.023z M12.068,22.332v-3.373h12.37v3.373H12.068z M13.767,37.789V23.457h10.671v14.332
	H13.767z M36.234,37.789H25.562V23.457h10.672V37.789z M37.932,22.332H25.562v-3.373h12.369V22.332z"/>
</svg>
