<?xml version="1.0" encoding="utf-8"?>
<!-- Generator: Adobe Illustrator 16.0.4, SVG Export Plug-In . SVG Version: 6.00 Build 0)  -->
<!DOCTYPE svg PUBLIC "-//W3C//DTD SVG 1.1//EN" "http://www.w3.org/Graphics/SVG/1.1/DTD/svg11.dtd">
<svg version="1.1" id="Layer_1" xmlns="http://www.w3.org/2000/svg" xmlns:xlink="http://www.w3.org/1999/xlink" x="0px" y="0px"
	 width="26.471px" height="67px" viewBox="0 0 26.471 67" enable-background="new 0 0 26.471 67" xml:space="preserve">
<g>
	<path fill="#A7A9AC" d="M8.87,27.26c-0.373,0-0.677,0.305-0.677,0.676v5.844H4.922v-5.844c0-0.371-0.304-0.676-0.677-0.676
		c-1.591,0-2.892-1.3-2.892-2.893V11.782c0-0.271,0.224-0.494,0.501-0.494c0.271,0,0.494,0.224,0.494,0.494v8.551
		c0,1.023,0.833,1.855,1.854,1.855s1.849-0.832,1.849-1.855v-8.551c0-0.271,0.225-0.494,0.502-0.494
		c0.271,0,0.494,0.224,0.494,0.494v8.551c0,1.023,0.833,1.855,1.855,1.855c1.021,0,1.849-0.832,1.849-1.855l-0.003-8.526
		c0-0.271,0.213-0.519,0.484-0.519c0.277,0,0.527,0.224,0.527,0.502v12.58C11.76,25.961,10.461,27.26,8.87,27.26 M8.755,62.991
		c0.013,0.779-0.271,1.518-0.772,2.031c-0.792,0.807-2.059,0.807-2.851,0c-0.5-0.515-0.785-1.252-0.771-2.045V35.134h4.395V62.991z
		 M13.116,24.37V11.782c0-1.016-0.86-1.848-1.882-1.848c-1.017,0-1.838,0.857-1.838,1.879l0.003,8.521
		c0,0.277-0.225,0.502-0.494,0.502c-0.278,0-0.502-0.225-0.502-0.502v-8.553c0-1.016-0.825-1.848-1.849-1.848
		c-1.021,0-1.854,0.832-1.854,1.848v8.553c0,0.277-0.225,0.502-0.495,0.502c-0.278,0-0.5-0.225-0.5-0.502v-8.553
		c0-1.016-0.827-1.848-1.849-1.848C0.834,9.934,0,10.766,0,11.782V24.37c0,2.111,1.551,3.865,3.568,4.189v5.234
		c-0.317,0.055-0.562,0.332-0.562,0.664v28.506c-0.021,1.145,0.406,2.24,1.157,3.007c0.658,0.663,1.503,1.028,2.396,1.028
		c0.888,0,1.734-0.364,2.391-1.028c0.751-0.767,1.178-1.862,1.158-2.993v-28.52c0-0.334-0.244-0.609-0.562-0.664v-5.234
		C11.565,28.235,13.116,26.481,13.116,24.37"/>
	<path fill="#A7A9AC" d="M25.113,33.95h-4.395v-1.354c0-0.373-0.298-0.678-0.677-0.678h-1.349V4.571c0-1.773,1.436-3.218,3.21-3.218
		c1.767,0,3.209,1.443,3.209,3.218L25.113,33.95L25.113,33.95z M25.113,62.991c0.014,0.778-0.265,1.518-0.766,2.031
		c-0.799,0.807-2.064,0.807-2.857,0c-0.5-0.515-0.784-1.253-0.771-2.045V35.303h4.395V62.991z M21.905,0
		c-2.52,0-4.563,2.052-4.563,4.57v28.025c0,0.372,0.305,0.678,0.677,0.678h1.349v29.69c-0.014,1.144,0.405,2.241,1.157,3.007
		c0.657,0.663,1.504,1.027,2.396,1.027c0.888,0,1.74-0.364,2.39-1.027c0.76-0.766,1.18-1.861,1.159-2.993V4.571
		C26.468,2.052,24.424,0,21.905,0"/>
</g>
</svg>
