<?xml version="1.0" encoding="utf-8"?>
<!-- Generator: Adobe Illustrator 16.0.4, SVG Export Plug-In . SVG Version: 6.00 Build 0)  -->
<!DOCTYPE svg PUBLIC "-//W3C//DTD SVG 1.1//EN" "http://www.w3.org/Graphics/SVG/1.1/DTD/svg11.dtd">
<svg version="1.1" id="Layer_1" xmlns="http://www.w3.org/2000/svg" xmlns:xlink="http://www.w3.org/1999/xlink" x="0px" y="0px"
	 width="40px" height="42px" viewBox="0 0 40 42" enable-background="new 0 0 40 42" xml:space="preserve">
<path fill="#D1D3D4" d="M20.034,21.001c-0.024,0-0.046-0.002-0.068-0.003v0.003H20.034z"/>
<path fill="#D1D3D4" d="M35.844,28.746V11.921c0-1.298-1.062-2.352-2.373-2.352H6.53c-1.312,0-2.374,1.054-2.374,2.352v16.825H0.449
	c0,1.259,1.031,3.685,2.302,3.685h34.498c1.272,0,2.302-2.426,2.302-3.685H35.844z M6.461,11.928h27.08v16.818H6.461V11.928z
	 M22.991,31.079h-3.376c-0.198,0-0.357-0.159-0.357-0.355s0.16-0.354,0.357-0.354h3.376c0.198,0,0.358,0.158,0.358,0.354
	S23.189,31.079,22.991,31.079z"/>
</svg>
