<?xml version="1.0" standalone="no"?>
<!DOCTYPE svg PUBLIC "-//W3C//DTD SVG 1.1//EN" "http://www.w3.org/Graphics/SVG/1.1/DTD/svg11.dtd" >
<svg>
<metadata>
Created by FontForge 20110222 at Sun Apr 13 15:10:53 2014
 By Orthosie Webhosting
Copyright (C) 1996, 2007 Hoefler &#38; Frere-Jones. http://www.typography.com
</metadata>
<defs>
<font id="VerlagLightItalic" horiz-adv-x="440" >
  <font-face 
    font-family="VerlagLightItalic"
    font-weight="300"
    font-style="italic"
    font-stretch="normal"
    units-per-em="1000"
    panose-1="0 0 0 0 0 0 0 0 0 0"
    ascent="800"
    descent="-200"
    x-height="418"
    cap-height="733"
    bbox="-124 -262 1119 1120"
    underline-thickness="50"
    underline-position="-50"
    slope="-12"
    unicode-range="U+0020-FB04"
  />
<missing-glyph horiz-adv-x="500" 
 />
    <glyph glyph-name="f_f" unicode="ff" horiz-adv-x="534" 
d="M659 726l-20 -48q-25 10 -54 10q-45 0 -66.5 -26t-35.5 -97l-29 -147h114l-10 -49h-114l-113 -585h-55l114 585h-76l2 11l84 42l28 141q18 93 56.5 135t104.5 42q37 0 70 -14zM392 726l-20 -48q-25 10 -54 10q-45 0 -66.5 -26t-35.5 -97l-29 -147h114l-10 -49h-114
l-113 -585h-55l114 585h-76l2 11l84 42l28 141q18 93 56.5 135t104.5 42q37 0 70 -14z" />
    <glyph glyph-name="fi" unicode="fi" horiz-adv-x="457" 
d="M392 726l-20 -48q-25 10 -54 10q-45 0 -66.5 -26t-35.5 -97l-29 -147h114l-10 -49h-114l-113 -585h-55l114 585h-76l2 11l84 42l28 141q18 93 56.5 135t104.5 42q37 0 70 -14zM430 418l-81 -418h-56l82 418h55zM472 572q0 -16 -12 -27.5t-28 -11.5t-28 11.5t-12 27.5
q0 17 12 29t28 12t28 -12t12 -29z" />
    <glyph glyph-name="fl" unicode="fl" horiz-adv-x="456" 
d="M489 733l-142 -733h-55l142 733h55zM392 726l-20 -48q-25 10 -54 10q-45 0 -66.5 -26t-35.5 -97l-29 -147h114l-10 -49h-114l-113 -585h-55l114 585h-76l2 11l84 42l28 141q18 93 56.5 135t104.5 42q37 0 70 -14z" />
    <glyph glyph-name="f_f_i" unicode="ffi" horiz-adv-x="724" 
d="M392 726l-20 -48q-25 10 -54 10q-45 0 -66.5 -26t-35.5 -97l-29 -147h114l-10 -49h-114l-113 -585h-55l114 585h-76l2 11l84 42l28 141q18 93 56.5 135t104.5 42q37 0 70 -14zM659 726l-20 -48q-25 10 -54 10q-45 0 -66.5 -26t-35.5 -97l-29 -147h114l-10 -49h-114
l-113 -585h-55l114 585h-76l2 11l84 42l28 141q18 93 56.5 135t104.5 42q37 0 70 -14zM697 418l-81 -418h-56l82 418h55zM739 572q0 -16 -12 -27.5t-28 -11.5t-28 11.5t-12 27.5q0 17 12 29t28 12t28 -12t12 -29z" />
    <glyph glyph-name="f_f_l" unicode="ffl" horiz-adv-x="723" 
d="M392 726l-20 -48q-25 10 -54 10q-45 0 -66.5 -26t-35.5 -97l-29 -147h114l-10 -49h-114l-113 -585h-55l114 585h-76l2 11l84 42l28 141q18 93 56.5 135t104.5 42q37 0 70 -14zM659 726l-20 -48q-25 10 -54 10q-45 0 -66.5 -26t-35.5 -97l-29 -147h114l-10 -49h-114
l-113 -585h-55l114 585h-76l2 11l84 42l28 141q18 93 56.5 135t104.5 42q37 0 70 -14zM756 733l-142 -733h-55l142 733h55z" />
    <glyph glyph-name=".notdef" horiz-adv-x="500" 
 />
    <glyph glyph-name=".null" horiz-adv-x="0" 
 />
    <glyph glyph-name="nonmarkingreturn" horiz-adv-x="333" 
 />
    <glyph glyph-name="space" unicode=" " horiz-adv-x="202" 
 />
    <glyph glyph-name="exclam" unicode="!" horiz-adv-x="203" 
d="M237 733l-122 -574l-40 4l99 570h63zM114 34q0 -17 -12.5 -29.5t-30.5 -12.5q-17 0 -29.5 12.5t-12.5 29.5q0 18 12.5 30.5t29.5 12.5q18 0 30.5 -12.5t12.5 -30.5z" />
    <glyph glyph-name="quotedbl" unicode="&#x22;" horiz-adv-x="348" 
d="M269 641l-149 -167l-27 21l126 182zM402 631l-150 -168l-26 21l127 183z" />
    <glyph glyph-name="numbersign" unicode="#" horiz-adv-x="564" 
d="M550 417l-10 -45h-111l-38 -168h112l-10 -44h-112l-35 -160h-50l35 160h-141l-36 -160h-50l36 160h-111l9 44h112l37 168h-112l10 45h112l35 160h51l-36 -160h141l36 160h50l-35 -160h111zM379 372h-142l-37 -168h141z" />
    <glyph glyph-name="dollar" unicode="$" horiz-adv-x="429" 
d="M345 641l-16 -60q49 -11 96 -47l-31 -43q-42 32 -77 41l-58 -223q56 -36 83 -68.5t27 -81.5q0 -77 -53.5 -122.5t-131.5 -45.5h-6l-16 -63l-44 5l16 63q-65 12 -129 64l32 42q58 -48 110 -59l61 236q-53 34 -80 66t-27 78q0 69 51 116t132 47h1l16 60zM315 154
q0 53 -68 101l-56 -216q54 2 89 32.5t35 82.5zM154 428q0 -51 66 -95l53 204q-55 -1 -87 -31.5t-32 -77.5z" />
    <glyph glyph-name="percent" unicode="%" horiz-adv-x="641" 
d="M340 468q0 -80 -51 -131q-38 -38 -90 -38q-50 0 -79.5 33.5t-29.5 84.5q0 81 51 132q37 37 90 37q50 0 79.5 -33.5t29.5 -84.5zM641 565l-579 -582l-29 30l579 581zM295 465q0 35 -17.5 58t-50.5 23q-31 0 -54 -24q-39 -37 -39 -102q0 -35 18 -57.5t50 -22.5q30 0 55 23
q38 40 38 102zM584 160q0 -80 -51 -131q-36 -38 -90 -38q-50 0 -79.5 33.5t-29.5 84.5q0 81 51 132q39 37 90 37q50 0 79.5 -33.5t29.5 -84.5zM540 157q0 35 -18 58t-50 23q-31 0 -55 -24q-38 -38 -38 -102q0 -35 17.5 -57.5t50.5 -22.5q31 0 54 23q39 39 39 102z" />
    <glyph glyph-name="ampersand" unicode="&#x26;" horiz-adv-x="595" 
d="M569 230q-76 -84 -135 -133q44 -52 69 -77l-38 -36q-33 33 -73 81q-105 -74 -191 -74q-75 0 -119 40t-44 105q0 63 46.5 111.5t134.5 73.5q-26 58 -26 102q0 66 48.5 113t116.5 47q56 0 90.5 -33.5t34.5 -79.5q0 -123 -191 -177q40 -68 112 -159q63 53 130 132zM362 101
q-85 107 -122 179q-70 -18 -108 -54.5t-38 -86.5q0 -44 29 -71.5t83 -27.5q70 0 156 61zM429 465q0 32 -21 53t-55 21q-43 0 -74.5 -34t-31.5 -78q0 -43 25 -95q83 23 120 55.5t37 77.5z" />
    <glyph glyph-name="quotesingle" unicode="'" horiz-adv-x="215" 
d="M269 641l-149 -167l-27 21l126 182z" />
    <glyph glyph-name="parenleft" unicode="(" horiz-adv-x="348" 
d="M452 701q-155 -71 -249.5 -215t-94.5 -304q0 -108 43.5 -202.5t126.5 -162.5l-32 -36q-190 157 -190 399q0 174 101 327.5t276 236.5z" />
    <glyph glyph-name="parenright" unicode=")" horiz-adv-x="348" 
d="M313 346q0 -174 -101 -327.5t-276 -237.5l-19 43q155 71 249.5 215t94.5 305q0 108 -43 202t-127 162l32 37q190 -159 190 -399z" />
    <glyph glyph-name="asterisk" unicode="*" horiz-adv-x="369" 
d="M414 579l-125 -12l56 -111l-42 -19l-51 114l-90 -86l-31 33l94 82l-111 58l22 40l108 -64l21 123l45 -9l-26 -122l124 19z" />
    <glyph glyph-name="plus" unicode="+" 
d="M409 306l-9 -49h-144l-30 -152h-52l30 152h-144l10 49h144l28 150h52l-28 -150h143z" />
    <glyph glyph-name="comma" unicode="," horiz-adv-x="182" 
d="M102 28q0 -41 -34 -77.5t-82 -63.5l-9 13q61 47 81 92q-18 2 -29.5 14.5t-11.5 29.5t12 29t29 12q16 0 30 -13.5t14 -35.5z" />
    <glyph glyph-name="hyphen" unicode="-" horiz-adv-x="333" 
d="M294 267l-10 -49h-232l10 49h232z" />
    <glyph glyph-name="period" unicode="." horiz-adv-x="182" 
d="M102 34q0 -17 -12.5 -29.5t-30.5 -12.5q-17 0 -29.5 12.5t-12.5 29.5q0 18 12.5 30.5t29.5 12.5q18 0 30.5 -12.5t12.5 -30.5z" />
    <glyph glyph-name="slash" unicode="/" horiz-adv-x="319" 
d="M414 733l-424 -949h-54l424 949h54z" />
    <glyph glyph-name="zero" unicode="0" horiz-adv-x="526" 
d="M502 363q0 -89 -30 -171.5t-81 -133.5q-67 -67 -151 -67q-86 0 -135 63.5t-49 159.5q0 89 29.5 171t80.5 134q67 67 152 67q86 0 135 -63.5t49 -159.5zM444 360q0 79 -34 128.5t-96 49.5q-56 0 -103 -47q-44 -44 -71 -120.5t-27 -153.5q0 -79 34 -128.5t96 -49.5
q56 0 103 47q44 44 71 120.5t27 153.5z" />
    <glyph glyph-name="one" unicode="1" horiz-adv-x="334" 
d="M285 588l-114 -588h-55l100 514l-107 -35l-10 48l177 61h9z" />
    <glyph glyph-name="two" unicode="2" horiz-adv-x="436" 
d="M422 436q0 -53 -29.5 -96.5t-116.5 -129.5q-70 -67 -172 -160h262l-9 -50h-359l-3 12q66 60 251 236q68 65 94.5 104.5t26.5 80.5q0 46 -33 74.5t-85 28.5q-66 0 -135 -46l-15 45q76 51 151 51q75 -1 123.5 -44t48.5 -106z" />
    <glyph glyph-name="three" unicode="3" horiz-adv-x="421" 
d="M462 577l4 -9l-268 -244q78 -8 127 -50.5t49 -106.5q0 -75 -57 -125.5t-147 -50.5q-74 0 -167 42l23 44q82 -37 147 -37q67 0 106.5 34.5t39.5 87.5q0 61 -51 92.5t-146 31.5h-15l-5 8l255 232h-254l9 51h350z" />
    <glyph glyph-name="four" unicode="4" horiz-adv-x="476" 
d="M458 222l-10 -48h-96l-34 -175h-52l34 175h-278l2 17l391 396h18l-71 -365h96zM310 222l48 245l-242 -245h194z" />
    <glyph glyph-name="five" unicode="5" horiz-adv-x="460" 
d="M443 577l-10 -50h-236l-36 -185q4 0 12 0.5t13 0.5q99 0 157.5 -45t58.5 -120q0 -80 -60.5 -133.5t-156.5 -53.5q-76 0 -161 40l24 45q76 -37 138 -37q68 0 113.5 37t45.5 96q0 61 -47 92.5t-127 31.5q-11 0 -62 -3l-7 8l53 276h288z" />
    <glyph glyph-name="six" unicode="6" horiz-adv-x="477" 
d="M436 191q0 -84 -57.5 -142t-144.5 -58q-76 0 -127 52.5t-51 131.5q0 54 21.5 109t66 111t122.5 108t181 90l16 -46q-225 -77 -318 -234q51 46 123 46t120 -48t48 -120zM380 187q0 58 -34.5 93t-90.5 35q-63 0 -103.5 -42t-40.5 -102q0 -58 36 -95.5t92 -37.5
q62 0 101.5 42.5t39.5 106.5z" />
    <glyph glyph-name="seven" unicode="7" horiz-adv-x="407" 
d="M464 577l-360 -577h-59l333 527h-291l10 50h367z" />
    <glyph glyph-name="eight" unicode="8" horiz-adv-x="466" 
d="M453 444q0 -54 -31 -95.5t-87 -60.5q35 -20 55 -53t20 -73q0 -72 -55 -121.5t-134 -49.5q-74 0 -123.5 41t-49.5 110q0 56 36 100.5t95 60.5q-65 39 -65 115q0 68 51.5 118t127.5 50q68 0 114 -40t46 -102zM399 439q0 44 -29.5 72.5t-77.5 28.5q-53 0 -88.5 -35.5
t-35.5 -85.5q0 -46 29.5 -75t76.5 -29q53 0 89 37t36 87zM354 164q0 46 -33 77.5t-84 31.5q-57 0 -95 -37.5t-38 -91.5q0 -48 34 -77.5t87 -29.5q57 0 93 36.5t36 90.5z" />
    <glyph glyph-name="nine" unicode="9" horiz-adv-x="471" 
d="M459 403q0 -116 -95.5 -230.5t-295.5 -189.5l-15 47q218 75 317 232q-48 -40 -116 -40q-73 0 -122.5 47.5t-49.5 118.5q0 85 57.5 141.5t143.5 56.5q81 0 128.5 -53t47.5 -130zM404 411q0 56 -35.5 92t-90.5 36q-61 0 -100.5 -41.5t-39.5 -104.5q0 -57 35 -92t91 -35
q63 0 101.5 42t38.5 103z" />
    <glyph glyph-name="colon" unicode=":" horiz-adv-x="182" 
d="M157 324q0 -18 -12.5 -30t-30.5 -12q-17 0 -29.5 12t-12.5 30q0 17 12.5 29.5t29.5 12.5q18 0 30.5 -12.5t12.5 -29.5zM102 34q0 -17 -12.5 -29.5t-30.5 -12.5q-17 0 -29.5 12.5t-12.5 29.5q0 18 12.5 30.5t29.5 12.5q18 0 30.5 -12.5t12.5 -30.5z" />
    <glyph glyph-name="semicolon" unicode=";" horiz-adv-x="182" 
d="M157 324q0 -18 -12.5 -30t-30.5 -12q-17 0 -29.5 12t-12.5 30q0 17 12.5 29.5t29.5 12.5q18 0 30.5 -12.5t12.5 -29.5zM102 28q0 -41 -34 -77.5t-82 -63.5l-9 13q61 47 81 92q-18 2 -29.5 14.5t-11.5 29.5t12 29t29 12q16 0 30 -13.5t14 -35.5z" />
    <glyph glyph-name="less" unicode="&#x3c;" horiz-adv-x="381" 
d="M388 479l-274 -184l193 -228l-40 -31l-228 268l322 215z" />
    <glyph glyph-name="equal" unicode="=" horiz-adv-x="397" 
d="M345 234l-9 -49h-283l9 49h283zM373 376l-10 -50h-283l10 50h283z" />
    <glyph glyph-name="greater" unicode="&#x3e;" horiz-adv-x="381" 
d="M356 259l-322 -216l-27 40l274 185l-193 228l40 30z" />
    <glyph glyph-name="question" unicode="?" horiz-adv-x="379" 
d="M429 593q0 -64 -34 -103.5t-95 -76.5q-3 -2 -17 -10.5t-17 -11t-15.5 -10.5t-16 -11t-13.5 -11t-13.5 -12.5t-10.5 -12t-10 -14t-6 -15t-5 -16.5l-16 -82l-52 5l19 94q5 24 16.5 43.5t34 38t36.5 27.5t44 28q37 23 57.5 39t38.5 44t18 60q-1 44 -35.5 73.5t-100.5 29.5
q-51 0 -109 -24l-9 50q69 25 127 25q85 0 134.5 -41.5t49.5 -105.5zM146 34q0 -17 -12.5 -29.5t-30.5 -12.5q-17 0 -29.5 12.5t-12.5 29.5q0 18 12.5 30.5t29.5 12.5q18 0 30.5 -12.5t12.5 -30.5z" />
    <glyph glyph-name="at" unicode="@" horiz-adv-x="690" 
d="M662 339q0 -75 -43 -135.5t-107 -60.5q-61 0 -79 47q-42 -44 -95 -44q-41 0 -67.5 21.5t-26.5 55.5q0 38 27 62.5t70 24.5q51 0 90 -29q5 24 5 40q0 55 -76 55q-26 0 -57 -6v38q34 7 67 7q55 0 83.5 -25t28.5 -68q0 -12 -4 -36l-10 -50q-6 -26 7.5 -41t39.5 -15
q46 0 74 50t28 106q0 95 -64 155t-164 60q-119 0 -198 -85t-79 -201q0 -102 72 -168.5t189 -66.5q44 0 98 12l4 -40q-57 -12 -111 -12q-132 0 -214.5 80t-82.5 190q0 135 93 233t229 98q118 0 195.5 -72.5t77.5 -179.5zM424 248q-37 28 -78 28q-25 0 -41 -13t-16 -36
q0 -22 16 -34t41 -12q38 0 72 36z" />
    <glyph glyph-name="A" unicode="A" horiz-adv-x="655" 
d="M601 0h-59l-47 225h-332l-136 -225h-60l457 745h9zM484 272l-75 358l-217 -358h292z" />
    <glyph glyph-name="B" unicode="B" horiz-adv-x="548" 
d="M547 564q0 -70 -49 -121.5t-134 -70.5q141 -45 141 -162q0 -95 -72.5 -156t-216.5 -61q-69 0 -169 23l140 712q69 12 132 12q108 0 168 -51.5t60 -124.5zM489 559q0 58 -46 95t-126 37q-43 0 -83 -8l-55 -281q50 -4 81 -4q109 0 169 43.5t60 117.5zM448 203
q0 70 -57.5 111t-161.5 41q-40 0 -59 -2l-58 -297q57 -14 123 -14q97 0 155 46t58 115z" />
    <glyph glyph-name="C" unicode="C" horiz-adv-x="731" 
d="M747 655l-30 -45q-99 82 -225 82q-149 0 -250.5 -109.5t-101.5 -264.5q0 -123 77 -200t195 -77q106 0 215 69l24 -46q-115 -74 -245 -74q-136 0 -230 91.5t-94 233.5q0 179 122.5 304t295.5 125q137 0 247 -89z" />
    <glyph glyph-name="D" unicode="D" horiz-adv-x="706" 
d="M217 -7q-86 0 -171 15l140 722q61 10 134 10q173 0 270 -97q90 -90 90 -234q0 -182 -127 -299t-336 -117zM322 691q-47 0 -88 -7l-124 -633q59 -8 121 -8q170 0 280.5 102t110.5 259q0 132 -78 208q-79 79 -222 79z" />
    <glyph glyph-name="E" unicode="E" horiz-adv-x="551" 
d="M592 733l-10 -50h-348l-56 -286h314l-10 -50h-313l-58 -296h349l-10 -51h-406l143 733h405z" />
    <glyph glyph-name="F" unicode="F" horiz-adv-x="534" 
d="M592 733l-10 -50h-348l-58 -299h314l-10 -50h-314l-65 -334h-57l143 733h405z" />
    <glyph glyph-name="G" unicode="G" horiz-adv-x="758" 
d="M714 349l-55 -285q-121 -74 -253 -74q-136 0 -230 91.5t-94 233.5q0 117 58 216.5t154.5 156t205.5 56.5q70 0 133.5 -22t105.5 -54l-30 -45q-91 69 -217 69q-146 0 -249 -110t-103 -264q0 -123 76.5 -200t195.5 -77q114 0 197 53l39 204h-211l10 51h267z" />
    <glyph glyph-name="H" unicode="H" horiz-adv-x="694" 
d="M709 733l-143 -733h-57l68 348h-408l-68 -348h-57l143 733h57l-65 -335h408l65 335h57z" />
    <glyph glyph-name="I" unicode="I" horiz-adv-x="236" 
d="M248 733l-143 -733h-56l143 733h56z" />
    <glyph glyph-name="J" unicode="J" horiz-adv-x="434" 
d="M452 733l-106 -540q-39 -203 -202 -203q-90 0 -158 58l33 41q60 -48 128 -48q59 0 93.5 38t50.5 122l104 532h57z" />
    <glyph glyph-name="K" unicode="K" horiz-adv-x="585" 
d="M650 733l-423 -359l294 -374h-71l-278 362l-71 -362h-57l143 733h57l-67 -342l396 342h77z" />
    <glyph glyph-name="L" unicode="L" horiz-adv-x="509" 
d="M459 51l-10 -51h-405l143 733h57l-133 -682h348z" />
    <glyph glyph-name="M" unicode="M" horiz-adv-x="837" 
d="M841 742l-120 -742h-57l101 582l-358 -478h-10l-179 487l-126 -591h-57l169 742l13 2l199 -555l410 555z" />
    <glyph glyph-name="N" unicode="N" horiz-adv-x="717" 
d="M731 733l-144 -742l-11 -2l-356 626l-120 -615h-55l144 741l14 3l354 -619l118 608h56z" />
    <glyph glyph-name="O" unicode="O" horiz-adv-x="830" 
d="M804 411q0 -105 -48 -200.5t-141 -158t-210 -62.5q-141 0 -231.5 93t-90.5 240q0 105 48 200.5t141 158t210 62.5q141 0 231.5 -93t90.5 -240zM747 412q0 123 -74 201.5t-192 78.5q-146 0 -243.5 -108.5t-97.5 -261.5q0 -124 74 -202.5t192 -78.5q146 0 243.5 108.5
t97.5 262.5z" />
    <glyph glyph-name="P" unicode="P" horiz-adv-x="549" 
d="M568 517q0 -115 -81 -188.5t-230 -73.5q-47 0 -105 9l-51 -264h-57l142 728q57 10 119 10q125 0 193.5 -62t69.5 -159zM510 514q0 75 -51 124.5t-150 49.5q-29 0 -75 -7l-72 -367q61 -9 102 -9q119 0 182.5 59t63.5 150z" />
    <glyph glyph-name="Q" unicode="Q" horiz-adv-x="829" 
d="M804 411q0 -88 -36 -172.5t-101 -145.5l66 -74l-41 -38l-67 78q-98 -69 -220 -69q-141 0 -231.5 93t-90.5 240q0 105 48 200.5t141 158t210 62.5q141 0 231.5 -93t90.5 -240zM747 412q0 123 -74 201.5t-192 78.5q-146 0 -243.5 -108.5t-97.5 -261.5q0 -124 74 -202.5
t192 -78.5q103 0 184 57l-131 147l41 38l132 -150q115 109 115 279z" />
    <glyph glyph-name="R" unicode="R" horiz-adv-x="581" 
d="M571 537q0 -87 -55.5 -150.5t-155.5 -84.5l153 -302h-67l-144 294q-10 -1 -32 -1q-39 0 -111 7l-58 -300h-57l142 728q77 10 136 10q118 0 183.5 -56.5t65.5 -144.5zM513 533q0 69 -48.5 111.5t-141.5 42.5q-49 0 -89 -6l-65 -331q65 -7 107 -7q112 0 174.5 52t62.5 138z
" />
    <glyph glyph-name="S" unicode="S" horiz-adv-x="502" 
d="M520 679l-31 -44q-69 57 -149 57q-73 0 -115.5 -41.5t-42.5 -103.5q0 -47 29 -78.5t94 -73.5q36 -24 54 -38t43 -39.5t36.5 -55t11.5 -65.5q0 -88 -61.5 -147.5t-164.5 -59.5q-120 0 -221 86l32 44q93 -78 189 -78q78 0 123.5 41t45.5 108q0 27 -9.5 50.5t-31 44.5
t-39.5 34.5t-51 35.5q-32 21 -51 36t-42 38.5t-33.5 50.5t-10.5 60q0 86 62 144.5t158 58.5q98 0 175 -65z" />
    <glyph glyph-name="T" unicode="T" horiz-adv-x="578" 
d="M656 733l-10 -52h-241l-132 -681h-56l132 681h-239l10 52h536z" />
    <glyph glyph-name="U" unicode="U" horiz-adv-x="695" 
d="M716 733l-95 -486q-50 -257 -295 -257q-110 0 -173.5 61t-63.5 166q0 31 9 80l84 436h57l-86 -445q-8 -38 -8 -69q0 -83 50 -130.5t141 -47.5q95 0 152 52t78 164l93 476h57z" />
    <glyph glyph-name="V" unicode="V" horiz-adv-x="678" 
d="M759 733l-459 -745h-11l-169 745h58l138 -629l378 629h65z" />
    <glyph glyph-name="W" unicode="W" horiz-adv-x="944" 
d="M1010 733l-337 -743l-15 -2l-111 628l-349 -628l-16 2l-47 743h56l35 -600l337 604h12l109 -609l264 605h62z" />
    <glyph glyph-name="X" unicode="X" horiz-adv-x="665" 
d="M726 733l-329 -366l191 -367h-62l-168 329l-292 -329h-70l336 371l-189 362h62l166 -324l286 324h69z" />
    <glyph glyph-name="Y" unicode="Y" horiz-adv-x="590" 
d="M676 733l-328 -406l-64 -327h-56l64 329l-175 404h57l154 -357l283 357h65z" />
    <glyph glyph-name="Z" unicode="Z" horiz-adv-x="621" 
d="M671 723l-565 -672h430l-10 -51h-516l-2 10l565 673h-409l9 50h495z" />
    <glyph glyph-name="bracketleft" unicode="[" horiz-adv-x="293" 
d="M372 733l-9 -46h-138l-167 -857h139l-9 -46h-191l185 949h190z" />
    <glyph glyph-name="backslash" unicode="\" horiz-adv-x="319" 
d="M250 -216h-50l-95 949h49z" />
    <glyph glyph-name="bracketright" unicode="]" horiz-adv-x="269" 
d="M317 733l-184 -949h-191l9 46h140l166 857h-139l9 46h190z" />
    <glyph glyph-name="asciicircum" unicode="^" 
d="M409 485h-55l-60 97l-96 -97h-61l150 149h31z" />
    <glyph glyph-name="underscore" unicode="_" horiz-adv-x="520" 
d="M489 50l-9 -50h-521l10 50h520z" />
    <glyph glyph-name="grave" unicode="`" 
d="M382 505l-22 -30l-182 111l35 48z" />
    <glyph glyph-name="a" unicode="a" horiz-adv-x="422" 
d="M378 299q0 -19 -6 -55l-49 -244h-53l9 45q-59 -53 -131 -53q-52 0 -89 32.5t-37 87.5q0 60 47 101t124 41q66 0 118 -33l6 33q5 28 5 38q0 38 -27 61t-73 23q-50 0 -107 -20l-6 50q64 20 120 20q67 0 108 -32.5t41 -94.5zM302 176q-41 34 -111 34q-51 0 -83.5 -27
t-32.5 -67q0 -37 23 -58t63 -21q65 0 125 58z" />
    <glyph glyph-name="b" unicode="b" horiz-adv-x="473" 
d="M435 252q0 -102 -67 -181t-164 -79q-69 0 -119 48l-8 -40h-55l143 733h56l-68 -351q56 44 125 44t113 -49.5t44 -124.5zM380 243q0 61 -32.5 97.5t-85.5 36.5q-64 0 -119 -50l-47 -239q41 -48 108 -48q74 0 125 61t51 142z" />
    <glyph glyph-name="c" unicode="c" horiz-adv-x="412" 
d="M415 376l-29 -41q-52 43 -117 43q-75 0 -125.5 -58t-50.5 -138q0 -65 40.5 -103.5t102.5 -38.5q50 0 100 24l12 -45q-64 -27 -121 -27q-81 0 -134.5 51.5t-53.5 136.5q0 97 67.5 171.5t170.5 74.5q77 0 138 -50z" />
    <glyph glyph-name="d" unicode="d" horiz-adv-x="473" 
d="M511 733l-142 -733h-54l8 37q-57 -45 -124 -45t-114 50t-47 126q0 102 67.5 180t166.5 78q70 0 116 -44l67 351h56zM378 331q-44 47 -108 47q-75 0 -126 -59t-51 -140q0 -64 32.5 -101t87.5 -37q65 0 117 46z" />
    <glyph glyph-name="e" unicode="e" horiz-adv-x="438" 
d="M221 -8q-87 0 -136 46.5t-49 129.5q0 98 66 178t161 80q70 0 108.5 -45.5t38.5 -113.5q0 -32 -9 -65h-311q-1 -9 -1 -29q0 -63 36 -98t102 -35q49 0 104 20q1 -3 1.5 -8t2.5 -15t3 -17l2 -6q-53 -22 -119 -22zM102 246h253q2 8 2 27q0 46 -25 75.5t-73 29.5
q-51 0 -94.5 -37.5t-62.5 -94.5z" />
    <glyph glyph-name="f" unicode="f" horiz-adv-x="267" 
d="M392 726l-20 -48q-25 10 -54 10q-45 0 -66.5 -26t-35.5 -97l-29 -147h114l-10 -49h-114l-113 -585h-55l114 585h-76l2 11l84 42l28 141q18 93 56.5 135t104.5 42q37 0 70 -14z" />
    <glyph glyph-name="g" unicode="g" horiz-adv-x="475" 
d="M451 418l-90 -462q-36 -182 -209 -182q-67 0 -135 28l20 48q59 -25 118 -25q64 0 101 31t50 99l14 72q-54 -35 -115 -35q-70 0 -118.5 50t-48.5 126q0 102 67.5 180t167.5 78q69 0 118 -45l7 37h53zM379 331q-44 47 -109 47q-74 0 -125.5 -59.5t-51.5 -139.5
q0 -64 34 -101.5t89 -37.5q62 0 114 44z" />
    <glyph glyph-name="h" unicode="h" horiz-adv-x="457" 
d="M416 317q0 -23 -6 -49l-52 -268h-56l52 264q5 28 5 41q0 35 -19.5 54t-54.5 19q-66 0 -148 -78l-59 -300h-56l143 733h56l-76 -383q85 75 164 75q52 0 79.5 -29.5t27.5 -78.5z" />
    <glyph glyph-name="i" unicode="i" horiz-adv-x="190" 
d="M205 572q0 -16 -12 -27.5t-28 -11.5t-28 11.5t-12 27.5q0 17 12 29t28 12t28 -12t12 -29zM163 418l-81 -418h-56l82 418h55z" />
    <glyph glyph-name="j" unicode="j" horiz-adv-x="183" 
d="M209 572q0 -16 -11.5 -27.5t-27.5 -11.5q-17 0 -28.5 11.5t-11.5 27.5q0 17 11.5 29t28.5 12q16 0 27.5 -12t11.5 -29zM167 418l-99 -516q-25 -126 -130 -126q-28 0 -62 8l15 47q21 -6 43 -6q63 0 78 77l100 516h55z" />
    <glyph glyph-name="k" unicode="k" horiz-adv-x="396" 
d="M427 418l-255 -202l182 -216h-63l-173 207l-40 -207h-55l142 733h55l-97 -501l230 186h74z" />
    <glyph glyph-name="l" unicode="l" horiz-adv-x="189" 
d="M222 733l-142 -733h-55l142 733h55z" />
    <glyph glyph-name="m" unicode="m" horiz-adv-x="730" 
d="M688 317q0 -23 -6 -49l-52 -268h-56l52 264q5 28 5 41q0 35 -19 54t-54 19q-63 0 -146 -78l-32 -170l-26 -130h-56l53 264q5 28 5 41q0 35 -19 54t-54 19q-63 0 -146 -78l-59 -300h-56l82 418h53l-14 -70q87 77 163 77q43 0 69.5 -22t32.5 -59q91 81 174 81
q51 0 78.5 -29.5t27.5 -78.5z" />
    <glyph glyph-name="n" unicode="n" horiz-adv-x="457" 
d="M416 317q0 -23 -6 -49l-52 -268h-56l52 264q5 28 5 41q0 35 -19.5 54t-54.5 19q-65 0 -148 -78l-59 -300h-56l82 418h53l-14 -70q87 77 166 77q52 0 79.5 -29.5t27.5 -78.5z" />
    <glyph glyph-name="o" unicode="o" horiz-adv-x="462" 
d="M373 245q0 60 -31.5 96.5t-85.5 36.5q-56 0 -105 -47q-62 -60 -62 -158q0 -60 31.5 -96.5t84.5 -36.5q58 0 105 47q63 61 63 158zM427 248q0 -113 -78 -193q-63 -63 -147 -63q-74 0 -120.5 49.5t-46.5 128.5q0 113 78 193q63 63 147 63q74 0 120.5 -49.5t46.5 -128.5z
" />
    <glyph glyph-name="p" unicode="p" horiz-adv-x="473" 
d="M435 252q0 -103 -67 -181.5t-167 -78.5q-67 0 -116 42l-49 -250h-56l124 634h54l-9 -44q59 52 131 52q65 0 110 -49t45 -125zM380 243q0 61 -32.5 97.5t-85.5 36.5q-64 0 -120 -51l-47 -239q43 -46 109 -46q74 0 125 60.5t51 141.5z" />
    <glyph glyph-name="q" unicode="q" horiz-adv-x="473" 
d="M451 418l-123 -634h-57l49 247q-53 -39 -115 -39q-70 0 -118.5 50t-48.5 126q0 102 67.5 180t166.5 78q69 0 118 -45l7 37h54zM378 331q-44 47 -108 47q-74 0 -125.5 -59.5t-51.5 -139.5q0 -64 33.5 -101t88.5 -37q63 0 115 46z" />
    <glyph glyph-name="r" unicode="r" horiz-adv-x="266" 
d="M283 427l-10 -55h-1q-44 -1 -75 -21t-63 -66l-56 -285h-56l82 418h53l-15 -79q25 40 62 64t79 24z" />
    <glyph glyph-name="s" unicode="s" horiz-adv-x="351" 
d="M335 379l-31 -40q-48 41 -99 41q-40 0 -63.5 -21.5t-23.5 -49.5q0 -24 19.5 -40t58.5 -36q47 -25 70 -49t23 -62q0 -55 -41.5 -93t-104.5 -38q-80 0 -146 59l33 39q58 -51 117 -51q42 0 66.5 21.5t24.5 54.5q0 26 -19.5 43t-60.5 38q-30 15 -46 26.5t-30 32.5t-14 48
q0 51 41 87.5t104 36.5q68 0 122 -47z" />
    <glyph glyph-name="t" unicode="t" horiz-adv-x="293" 
d="M309 418l-9 -49h-128l-49 -253q-3 -14 -3 -29q0 -46 70 -46q20 0 40 3l-8 -47q-28 -5 -48 -5q-109 0 -109 86q0 16 5 42l48 249h-75l2 11l83 42l19 96l59 27l-25 -127h128z" />
    <glyph glyph-name="u" unicode="u" horiz-adv-x="457" 
d="M435 418l-81 -418h-54l14 70q-87 -78 -166 -78q-52 0 -79 30t-27 79q0 21 5 49l53 268h56l-52 -264q-5 -21 -5 -41q0 -73 73 -73q66 0 149 78l58 300h56z" />
    <glyph glyph-name="v" unicode="v" horiz-adv-x="415" 
d="M448 418l-280 -430h-10l-108 430h56l77 -329l204 329h61z" />
    <glyph glyph-name="w" unicode="w" horiz-adv-x="610" 
d="M630 418l-221 -430h-10l-71 323l-197 -323h-10l-58 430h55l34 -317l190 317h10l67 -317l153 317h58z" />
    <glyph glyph-name="x" unicode="x" horiz-adv-x="395" 
d="M420 418l-191 -211l112 -206h-57l-91 174l-154 -175h-65l194 213l-110 205h57l90 -175l152 175h63z" />
    <glyph glyph-name="y" unicode="y" horiz-adv-x="420" 
d="M452 418l-414 -634h-58l166 251l-96 383h55l78 -332l208 332h61z" />
    <glyph glyph-name="z" unicode="z" horiz-adv-x="395" 
d="M412 408l-343 -361h267l-9 -47h-350l-2 9l344 362h-253l9 47h336z" />
    <glyph glyph-name="braceleft" unicode="{" horiz-adv-x="295" 
d="M380 740l-9 -49h-10q-107 0 -128 -117l-40 -208q-9 -46 -27 -70t-59 -37q49 -18 49 -67q0 -14 -5 -42l-39 -197q-5 -27 -5 -45q0 -83 97 -83l-9 -48q-140 0 -140 125q0 23 7 58l40 207q3 17 3 28q0 43 -56 43h-24l10 47h21q39 0 58 18.5t26 55.5l42 218q31 163 184 163
h14z" />
    <glyph glyph-name="bar" unicode="|" horiz-adv-x="233" 
d="M58 -216h-49l185 949h49z" />
    <glyph glyph-name="braceright" unicode="}" horiz-adv-x="294" 
d="M-66 -222l10 49h9q108 0 129 117l40 208q9 46 27 70t59 37q-49 18 -49 67q0 14 5 42l39 197q5 25 5 45q0 82 -97 82l9 49q140 0 140 -126q0 -24 -7 -57l-40 -207q-3 -17 -3 -28q0 -43 56 -43h24l-10 -47h-21q-39 0 -58 -18.5t-26 -55.5l-42 -219q-31 -162 -185 -162h-14z
" />
    <glyph glyph-name="asciitilde" unicode="~" 
d="M408 384q-55 -61 -104 -61q-23 0 -62 26q-29 23 -50 23q-16 0 -30 -9t-37 -33l-26 30q51 57 101 57q27 0 60 -26q31 -23 51 -23q17 0 31 9.5t39 35.5z" />
    <glyph glyph-name="uni00A0" unicode="&#xa0;" horiz-adv-x="217" 
 />
    <glyph glyph-name="exclamdown" unicode="&#xa1;" horiz-adv-x="203" 
d="M235 700q0 -18 -12.5 -30.5t-29.5 -12.5q-18 0 -30.5 12.5t-12.5 30.5q0 17 12.5 29.5t30.5 12.5q17 0 29.5 -12.5t12.5 -29.5zM189 570l-99 -570h-63l122 574z" />
    <glyph glyph-name="cent" unicode="&#xa2;" horiz-adv-x="438" 
d="M337 491l-18 -69q57 -10 100 -46l-29 -41q-38 30 -84 38l-87 -332q6 -1 20 -1q51 0 101 24l12 -44q-63 -28 -124 -28q-4 0 -11 0.5t-11 0.5l-19 -75l-48 5l21 80q-54 19 -87 64.5t-33 112.5q0 95 65 168.5t165 77.5l19 70zM94 182q0 -96 79 -130l84 324
q-72 -6 -117.5 -63t-45.5 -131z" />
    <glyph glyph-name="sterling" unicode="&#xa3;" horiz-adv-x="435" 
d="M475 531l-32 -40q-52 46 -114 46q-102 0 -129 -133l-18 -91h147l-10 -48h-146l-42 -215h259l-9 -50h-382l10 49h65l42 216h-61l1 9l70 42l20 98q16 80 64.5 126t126.5 46q75 0 138 -55z" />
    <glyph glyph-name="yen" unicode="&#xa5;" horiz-adv-x="488" 
d="M542 577l-218 -266h135l-10 -48h-161l-15 -75h162l-9 -48h-162l-27 -140h-56l28 140h-164l9 48h164l14 75h-164l10 48h142l-118 266h59l111 -257l205 257h65z" />
    <glyph glyph-name="section" unicode="&#xa7;" horiz-adv-x="411" 
d="M421 536l-31 -40q-51 44 -114 44q-39 0 -66.5 -19t-27.5 -51q0 -18 15 -33t29.5 -22t46.5 -21q25 -11 39 -18.5t32.5 -20.5t27 -30.5t8.5 -39.5q0 -39 -23.5 -65.5t-64.5 -38.5q34 -27 34 -65q0 -57 -43.5 -91t-107.5 -34q-90 0 -153 58l32 39q23 -23 58 -37t67 -14
q42 0 68 19t26 53q0 18 -15 33t-29.5 22t-46.5 21q-24 10 -39 18t-32.5 21.5t-26 31t-8.5 39.5q0 37 24.5 63t65.5 38q-36 27 -36 68q0 53 44.5 87.5t107.5 34.5q84 0 139 -50zM239 214l15 -7q33 5 53 24.5t20 47.5q0 13 -6.5 24t-20.5 20.5t-25 15t-31 14.5t-26 12l-11 4
q-35 -3 -57.5 -22.5t-22.5 -46.5q0 -13 7 -24t21.5 -20.5t26 -15.5t31 -14t26.5 -12z" />
    <glyph glyph-name="dieresis" unicode="&#xa8;" 
d="M239 541q0 -17 -12 -28.5t-29 -11.5q-16 0 -28 11.5t-12 28.5t11.5 29t28.5 12t29 -12t12 -29zM409 541q0 -17 -11.5 -28.5t-28.5 -11.5t-28.5 11.5t-11.5 28.5t11.5 29t28.5 12t28.5 -12t11.5 -29z" />
    <glyph glyph-name="copyright" unicode="&#xa9;" horiz-adv-x="842" 
d="M571 217q-64 -38 -134 -38q-73 0 -118.5 44.5t-44.5 120.5q0 88 66 151.5t160 63.5q74 0 128 -42l-24 -38q-48 36 -105 36q-74 0 -124 -48t-50 -119q0 -59 33 -92t89 -33t112 34zM786 415q0 130 -81 211.5t-208 81.5q-158 0 -263.5 -114t-105.5 -275q0 -130 81.5 -212
t207.5 -82q157 0 263 115t106 275zM829 414q0 -111 -51.5 -208.5t-148 -158t-214.5 -60.5q-146 0 -238 93.5t-92 238.5q0 173 118 300t296 127q146 0 238 -93t92 -239z" />
    <glyph glyph-name="ordfeminine" unicode="&#xaa;" horiz-adv-x="349" 
d="M374 610l-35 -181h-50l7 34q-41 -39 -97 -39q-40 0 -67.5 24t-27.5 65q0 44 35 74.5t93 30.5q51 0 87 -24l5 24q3 17 3 25q0 60 -80 60q-31 0 -73 -15l-5 43q47 15 87 15q59 0 90.5 -27.5t31.5 -73.5q0 -18 -4 -35zM313 559q-29 23 -76 23q-37 0 -60 -18.5t-23 -47.5
q0 -24 16 -39t43 -15q47 0 88 39z" />
    <glyph glyph-name="guillemotleft" unicode="&#xab;" horiz-adv-x="402" 
d="M382 336l-140 -166l76 -161h-58l-73 165l137 162h58zM237 336l-140 -166l76 -161h-58l-73 165l137 162h58z" />
    <glyph glyph-name="registered" unicode="&#xae;" horiz-adv-x="382" 
d="M429 595q0 -80 -56.5 -138t-134.5 -58q-65 0 -108 41.5t-43 107.5q0 79 56.5 137t135.5 58q65 0 107.5 -41.5t42.5 -106.5zM403 593q0 56 -35 91t-91 35q-66 0 -114.5 -50t-48.5 -120q0 -56 35 -91t90 -35q67 0 115.5 50t48.5 120zM188 489l32 166q22 3 46 3
q30 0 45.5 -12.5t15.5 -32.5q0 -19 -12 -35.5t-28 -22.5l29 -66h-34l-24 59h-28l-12 -59h-30zM245 631l-10 -57q5 -1 16 -1q19 0 32 9.5t13 25.5q0 24 -32 24q-13 0 -19 -1z" />
    <glyph glyph-name="macron" unicode="&#xaf;" 
d="M426 561l-9 -48h-279l10 48h278z" />
    <glyph glyph-name="degree" unicode="&#xb0;" horiz-adv-x="358" 
d="M330 600q0 -47 -31 -82.5t-78 -35.5q-37 0 -60.5 24.5t-23.5 61.5q0 47 31.5 82t78.5 35q37 0 60 -24t23 -61zM289 596q0 26 -12.5 41t-33.5 15q-26 0 -45.5 -24t-19.5 -57q0 -25 12.5 -40t33.5 -15q27 0 46 23.5t19 56.5z" />
    <glyph glyph-name="acute" unicode="&#xb4;" 
d="M381 581l-196 -106l-15 31l183 128z" />
    <glyph glyph-name="paragraph" unicode="&#xb6;" horiz-adv-x="570" 
d="M566 556l-109 -556h-52l102 520q-43 10 -91 15l-104 -535h-53l34 173q-90 6 -149.5 55t-59.5 127q0 103 82 167t206 64q83 0 194 -30zM364 537q-100 2 -161.5 -48.5t-61.5 -130.5q0 -60 45 -96.5t116 -38.5z" />
    <glyph glyph-name="periodcentered" unicode="&#xb7;" horiz-adv-x="222" 
d="M185 369q0 -17 -12.5 -29.5t-30.5 -12.5q-17 0 -29.5 12.5t-12.5 29.5q0 18 12.5 30.5t29.5 12.5q18 0 30.5 -12.5t12.5 -30.5z" />
    <glyph glyph-name="cedilla" unicode="&#xb8;" 
d="M263 -142q0 -41 -32.5 -68t-82.5 -27q-52 0 -103 34l24 36q41 -29 82 -29q28 0 46 13.5t18 37.5q0 20 -21.5 35.5t-68.5 20.5l-2 6l46 97l37 -9l-29 -65q86 -23 86 -82z" />
    <glyph glyph-name="ordmasculine" unicode="&#xba;" horiz-adv-x="367" 
d="M407 610q0 -75 -49 -131.5t-122 -56.5q-57 0 -93.5 38t-36.5 96q0 75 49 131.5t123 56.5q57 0 93 -38t36 -96zM357 608q0 42 -22.5 68t-60.5 26q-48 0 -82.5 -43.5t-34.5 -99.5q0 -42 22.5 -68t60.5 -26q48 0 82.5 43t34.5 100z" />
    <glyph glyph-name="guillemotright" unicode="&#xbb;" horiz-adv-x="402" 
d="M346 171l-137 -162h-58l140 167l-76 160h58zM201 171l-137 -162h-58l140 167l-76 160h58z" />
    <glyph glyph-name="questiondown" unicode="&#xbf;" horiz-adv-x="379" 
d="M9 141q0 64 34 103.5t95 76.5q72 46 93 68q25 26 31 56l16 82l52 -5l-19 -94q-6 -31 -30 -59t-42 -40t-59 -38q-27 -17 -43.5 -29t-35 -30t-27 -38.5t-8.5 -45.5q0 -44 34.5 -73.5t101.5 -29.5q50 0 108 24l10 -50q-72 -26 -128 -26q-84 0 -133.5 42t-49.5 106zM292 700
q0 17 12.5 29.5t29.5 12.5q18 0 30.5 -12.5t12.5 -29.5q0 -18 -12.5 -30.5t-30.5 -12.5q-17 0 -29.5 12.5t-12.5 30.5z" />
    <glyph glyph-name="Agrave" unicode="&#xc0;" horiz-adv-x="655" 
d="M601 0h-59l-47 225h-332l-136 -225h-60l457 745h9zM484 272l-75 358l-217 -358h292zM480 825l-22 -30l-182 111l35 48z" />
    <glyph glyph-name="Aacute" unicode="&#xc1;" horiz-adv-x="655" 
d="M601 0h-59l-47 225h-332l-136 -225h-60l457 745h9zM484 272l-75 358l-217 -358h292zM614 901l-196 -106l-15 31l183 128z" />
    <glyph glyph-name="Acircumflex" unicode="&#xc2;" horiz-adv-x="655" 
d="M601 0h-59l-47 225h-332l-136 -225h-60l457 745h9zM484 272l-75 358l-217 -358h292zM574 805h-55l-60 97l-96 -97h-61l150 149h31z" />
    <glyph glyph-name="Atilde" unicode="&#xc3;" horiz-adv-x="655" 
d="M601 0h-59l-47 225h-332l-136 -225h-60l457 745h9zM484 272l-75 358l-217 -358h292zM608 879q-54 -61 -104 -61q-26 0 -59 25q-32 24 -52 24q-28 0 -67 -42l-26 30q51 57 100 57q26 0 60 -26q33 -23 52 -23q17 0 31 9.5t39 35.5z" />
    <glyph glyph-name="Adieresis" unicode="&#xc4;" horiz-adv-x="655" 
d="M601 0h-59l-47 225h-332l-136 -225h-60l457 745h9zM484 272l-75 358l-217 -358h292zM407 861q0 -17 -12 -28.5t-29 -11.5q-16 0 -28 11.5t-12 28.5t11.5 29t28.5 12t29 -12t12 -29zM577 861q0 -17 -11.5 -28.5t-28.5 -11.5t-28.5 11.5t-11.5 28.5t11.5 29t28.5 12
t28.5 -12t11.5 -29z" />
    <glyph glyph-name="Aring" unicode="&#xc5;" horiz-adv-x="655" 
d="M542 827q0 -43 -29 -78t-72 -39l160 -710h-59l-47 225h-332l-136 -225h-60l437 713q-27 8 -43.5 30t-16.5 52q0 46 32.5 81.5t79.5 35.5q37 0 61.5 -24t24.5 -61zM484 272l-75 358l-217 -358h292zM501 823q0 26 -13.5 41t-34.5 15q-27 0 -47.5 -24t-20.5 -57
q0 -26 13.5 -40.5t35.5 -14.5q27 0 47 23.5t20 56.5z" />
    <glyph glyph-name="AE" unicode="&#xc6;" horiz-adv-x="990" 
d="M1031 733l-10 -50h-348l-56 -286h314l-10 -50h-313l-58 -296h349l-10 -51h-405l47 241h-282l-217 -241h-65l659 733h405zM540 289l69 353l-318 -353h249z" />
    <glyph glyph-name="Ccedilla" unicode="&#xc7;" horiz-adv-x="731" 
d="M449 -142q0 -41 -32.5 -68t-82.5 -27q-52 0 -103 34l24 36q41 -29 82 -29q28 0 46 13.5t18 37.5q0 20 -21.5 35.5t-68.5 20.5l-2 6l37 78q-115 20 -189.5 107t-74.5 213q0 179 122.5 304t295.5 125q137 0 247 -89l-30 -45q-99 82 -225 82q-149 0 -250.5 -109.5
t-101.5 -264.5q0 -123 77 -200t195 -77q106 0 215 69l24 -46q-115 -74 -245 -74q-14 0 -21 1l-22 -51q86 -23 86 -82z" />
    <glyph glyph-name="Egrave" unicode="&#xc8;" horiz-adv-x="551" 
d="M592 733l-10 -50h-348l-56 -286h314l-10 -50h-313l-58 -296h349l-10 -51h-406l143 733h405zM442 825l-22 -30l-182 111l35 48z" />
    <glyph glyph-name="Eacute" unicode="&#xc9;" horiz-adv-x="551" 
d="M571 901l-196 -106l-15 31l183 128zM592 733l-10 -50h-348l-56 -286h314l-10 -50h-313l-58 -296h349l-10 -51h-406l143 733h405z" />
    <glyph glyph-name="Ecircumflex" unicode="&#xca;" horiz-adv-x="551" 
d="M536 805h-55l-60 97l-96 -97h-61l150 149h31zM592 733l-10 -50h-348l-56 -286h314l-10 -50h-313l-58 -296h349l-10 -51h-406l143 733h405z" />
    <glyph glyph-name="Edieresis" unicode="&#xcb;" horiz-adv-x="551" 
d="M369 861q0 -17 -12 -28.5t-29 -11.5q-16 0 -28 11.5t-12 28.5t11.5 29t28.5 12t29 -12t12 -29zM539 861q0 -17 -11.5 -28.5t-28.5 -11.5t-28.5 11.5t-11.5 28.5t11.5 29t28.5 12t28.5 -12t11.5 -29zM592 733l-10 -50h-348l-56 -286h314l-10 -50h-313l-58 -296h349
l-10 -51h-406l143 733h405z" />
    <glyph glyph-name="Igrave" unicode="&#xcc;" horiz-adv-x="236" 
d="M248 733l-143 -733h-56l143 733h56zM273 825l-22 -30l-182 111l35 48z" />
    <glyph glyph-name="Iacute" unicode="&#xcd;" horiz-adv-x="236" 
d="M248 733l-143 -733h-56l143 733h56zM406 901l-196 -106l-15 31l183 128z" />
    <glyph glyph-name="Icircumflex" unicode="&#xce;" horiz-adv-x="236" 
d="M248 733l-143 -733h-56l143 733h56zM367 805h-55l-60 97l-96 -97h-61l150 149h31z" />
    <glyph glyph-name="Idieresis" unicode="&#xcf;" horiz-adv-x="236" 
d="M248 733l-143 -733h-56l143 733h56zM200 861q0 -17 -12 -28.5t-29 -11.5t-28.5 11.5t-11.5 28.5t11.5 29t28.5 12t29 -12t12 -29zM370 861q0 -17 -12 -28.5t-28 -11.5t-28 11.5t-12 28.5t11.5 29t28.5 12t28.5 -12t11.5 -29z" />
    <glyph glyph-name="Eth" unicode="&#xd0;" horiz-adv-x="736" 
d="M710 409q0 -182 -127 -299t-336 -117q-86 0 -171 15l66 340h-86l9 50h86l65 332q61 10 134 10q173 0 270 -97q90 -90 90 -234zM652 404q0 132 -78 208q-79 79 -222 79q-47 0 -88 -7l-56 -286h136l-9 -50h-137l-58 -297q59 -8 121 -8q170 0 280.5 102t110.5 259z" />
    <glyph glyph-name="Ntilde" unicode="&#xd1;" horiz-adv-x="717" 
d="M731 733l-144 -742l-11 -2l-356 626l-120 -615h-55l144 741l14 3l354 -619l118 608h56zM637 866q-54 -61 -104 -61q-26 0 -59 25q-32 24 -52 24q-28 0 -67 -42l-26 30q51 57 100 57q26 0 60 -26q33 -23 52 -23q17 0 31 9.5t39 35.5z" />
    <glyph glyph-name="Ograve" unicode="&#xd2;" horiz-adv-x="830" 
d="M804 411q0 -105 -48 -200.5t-141 -158t-210 -62.5q-141 0 -231.5 93t-90.5 240q0 105 48 200.5t141 158t210 62.5q141 0 231.5 -93t90.5 -240zM747 412q0 123 -74 201.5t-192 78.5q-146 0 -243.5 -108.5t-97.5 -261.5q0 -124 74 -202.5t192 -78.5q146 0 243.5 108.5
t97.5 262.5zM568 825l-22 -30l-182 111l35 48z" />
    <glyph glyph-name="Oacute" unicode="&#xd3;" horiz-adv-x="830" 
d="M696 901l-196 -106l-15 31l183 128zM804 411q0 -105 -48 -200.5t-141 -158t-210 -62.5q-141 0 -231.5 93t-90.5 240q0 105 48 200.5t141 158t210 62.5q141 0 231.5 -93t90.5 -240zM747 412q0 123 -74 201.5t-192 78.5q-146 0 -243.5 -108.5t-97.5 -261.5
q0 -124 74 -202.5t192 -78.5q146 0 243.5 108.5t97.5 262.5z" />
    <glyph glyph-name="Ocircumflex" unicode="&#xd4;" horiz-adv-x="830" 
d="M661 805h-55l-60 97l-96 -97h-61l150 149h31zM804 411q0 -105 -48 -200.5t-141 -158t-210 -62.5q-141 0 -231.5 93t-90.5 240q0 105 48 200.5t141 158t210 62.5q141 0 231.5 -93t90.5 -240zM747 412q0 123 -74 201.5t-192 78.5q-146 0 -243.5 -108.5t-97.5 -261.5
q0 -124 74 -202.5t192 -78.5q146 0 243.5 108.5t97.5 262.5z" />
    <glyph glyph-name="Otilde" unicode="&#xd5;" horiz-adv-x="830" 
d="M804 411q0 -105 -48 -200.5t-141 -158t-210 -62.5q-141 0 -231.5 93t-90.5 240q0 105 48 200.5t141 158t210 62.5q141 0 231.5 -93t90.5 -240zM747 412q0 123 -74 201.5t-192 78.5q-146 0 -243.5 -108.5t-97.5 -261.5q0 -124 74 -202.5t192 -78.5q146 0 243.5 108.5
t97.5 262.5zM695 879q-54 -61 -104 -61q-26 0 -59 25q-32 24 -52 24q-28 0 -67 -42l-26 30q51 57 100 57q26 0 60 -26q33 -23 52 -23q17 0 31 9.5t39 35.5z" />
    <glyph glyph-name="Odieresis" unicode="&#xd6;" horiz-adv-x="830" 
d="M494 861q0 -17 -12 -28.5t-29 -11.5t-28.5 11.5t-11.5 28.5t11.5 29t28.5 12t29 -12t12 -29zM664 861q0 -17 -12 -28.5t-28 -11.5t-28 11.5t-12 28.5t11.5 29t28.5 12t28.5 -12t11.5 -29zM804 411q0 -105 -48 -200.5t-141 -158t-210 -62.5q-141 0 -231.5 93t-90.5 240
q0 105 48 200.5t141 158t210 62.5q141 0 231.5 -93t90.5 -240zM747 412q0 123 -74 201.5t-192 78.5q-146 0 -243.5 -108.5t-97.5 -261.5q0 -124 74 -202.5t192 -78.5q146 0 243.5 108.5t97.5 262.5z" />
    <glyph glyph-name="multiply" unicode="&#xd7;" horiz-adv-x="446" 
d="M384 434l30 -38l-141 -118l99 -122l-39 -34l-100 123l-142 -119l-29 38l141 118l-99 123l39 33l99 -123z" />
    <glyph glyph-name="Oslash" unicode="&#xd8;" horiz-adv-x="830" 
d="M804 411q0 -105 -48 -200.5t-141 -158t-210 -62.5q-136 0 -226 87l-87 -83l-31 36l86 84q-64 86 -64 209q0 105 48 200.5t141 158t210 62.5q135 0 226 -88l87 84l31 -36q-52 -50 -87 -84q65 -87 65 -209zM747 412q0 95 -48 169q-35 -34 -233 -225.5t-248 -240.5
q72 -74 188 -74q146 0 243.5 108.5t97.5 262.5zM140 322q0 -97 47 -169l482 465q-74 74 -188 74q-146 0 -243.5 -108.5t-97.5 -261.5z" />
    <glyph glyph-name="Ugrave" unicode="&#xd9;" horiz-adv-x="695" 
d="M716 733l-95 -486q-50 -257 -295 -257q-110 0 -173.5 61t-63.5 166q0 31 9 80l84 436h57l-86 -445q-8 -38 -8 -69q0 -83 50 -130.5t141 -47.5q95 0 152 52t78 164l93 476h57zM497 812l-22 -30l-182 111l35 48z" />
    <glyph glyph-name="Uacute" unicode="&#xda;" horiz-adv-x="695" 
d="M626 888l-196 -106l-15 31l183 128zM716 733l-95 -486q-50 -257 -295 -257q-110 0 -173.5 61t-63.5 166q0 31 9 80l84 436h57l-86 -445q-8 -38 -8 -69q0 -83 50 -130.5t141 -47.5q95 0 152 52t78 164l93 476h57z" />
    <glyph glyph-name="Ucircumflex" unicode="&#xdb;" horiz-adv-x="695" 
d="M591 792h-55l-60 97l-96 -97h-61l150 149h31zM716 733l-95 -486q-50 -257 -295 -257q-110 0 -173.5 61t-63.5 166q0 31 9 80l84 436h57l-86 -445q-8 -38 -8 -69q0 -83 50 -130.5t141 -47.5q95 0 152 52t78 164l93 476h57z" />
    <glyph glyph-name="Udieresis" unicode="&#xdc;" horiz-adv-x="695" 
d="M424 848q0 -17 -12 -28.5t-29 -11.5t-28.5 12t-11.5 28q0 17 11.5 29t28.5 12t29 -12t12 -29zM594 848q0 -16 -12 -28t-28 -12t-28 12t-12 28q0 17 11.5 29t28.5 12t28.5 -12t11.5 -29zM716 733l-95 -486q-50 -257 -295 -257q-110 0 -173.5 61t-63.5 166q0 31 9 80
l84 436h57l-86 -445q-8 -38 -8 -69q0 -83 50 -130.5t141 -47.5q95 0 152 52t78 164l93 476h57z" />
    <glyph glyph-name="Yacute" unicode="&#xdd;" horiz-adv-x="590" 
d="M676 733l-328 -406l-64 -327h-56l64 329l-175 404h57l154 -357l283 357h65zM578 888l-196 -106l-15 31l183 128z" />
    <glyph glyph-name="Thorn" unicode="&#xde;" horiz-adv-x="549" 
d="M45 0l143 733h56l-25 -127q27 3 61 3q125 0 193.5 -62t69.5 -160q0 -114 -81 -188t-230 -74q-46 0 -104 9l-27 -134h-56zM485 384q0 75 -51 124.5t-150 49.5q-33 0 -75 -5l-71 -369q59 -9 101 -9q119 0 182.5 59t63.5 150z" />
    <glyph glyph-name="germandbls" unicode="&#xdf;" horiz-adv-x="447" 
d="M456 408l-198 -199q59 -12 91.5 -46.5t32.5 -83.5q-1 -72 -50.5 -121t-130.5 -49q-40 0 -91 15l14 48q40 -14 79 -14q54 0 88.5 32.5t34.5 82.5t-40.5 76.5t-109.5 24.5l-4 11l182 185h-211l-92 -478h-56l133 680q33 169 163 169q41 0 75 -16l-20 -48q-30 13 -59 13
q-41 0 -66.5 -28.5t-38.5 -95.5l-29 -148h300z" />
    <glyph glyph-name="agrave" unicode="&#xe0;" horiz-adv-x="422" 
d="M378 299q0 -19 -6 -55l-49 -244h-53l9 45q-59 -53 -131 -53q-52 0 -89 32.5t-37 87.5q0 60 47 101t124 41q66 0 118 -33l6 33q5 28 5 38q0 38 -27 61t-73 23q-50 0 -107 -20l-6 50q64 20 120 20q67 0 108 -32.5t41 -94.5zM302 176q-41 34 -111 34q-51 0 -83.5 -27
t-32.5 -67q0 -37 23 -58t63 -21q65 0 125 58zM302 505l-22 -30l-182 111l35 48z" />
    <glyph glyph-name="aacute" unicode="&#xe1;" horiz-adv-x="422" 
d="M378 299q0 -19 -6 -55l-49 -244h-53l9 45q-59 -53 -131 -53q-52 0 -89 32.5t-37 87.5q0 60 47 101t124 41q66 0 118 -33l6 33q5 28 5 38q0 38 -27 61t-73 23q-50 0 -107 -20l-6 50q64 20 120 20q67 0 108 -32.5t41 -94.5zM302 176q-41 34 -111 34q-51 0 -83.5 -27
t-32.5 -67q0 -37 23 -58t63 -21q65 0 125 58zM430 581l-196 -106l-15 31l183 128z" />
    <glyph glyph-name="acircumflex" unicode="&#xe2;" horiz-adv-x="422" 
d="M378 299q0 -19 -6 -55l-49 -244h-53l9 45q-59 -53 -131 -53q-52 0 -89 32.5t-37 87.5q0 60 47 101t124 41q66 0 118 -33l6 33q5 28 5 38q0 38 -27 61t-73 23q-50 0 -107 -20l-6 50q64 20 120 20q67 0 108 -32.5t41 -94.5zM302 176q-41 34 -111 34q-51 0 -83.5 -27
t-32.5 -67q0 -37 23 -58t63 -21q65 0 125 58zM396 485h-55l-60 97l-96 -97h-61l150 149h31z" />
    <glyph glyph-name="atilde" unicode="&#xe3;" horiz-adv-x="422" 
d="M378 299q0 -19 -6 -55l-49 -244h-53l9 45q-59 -53 -131 -53q-52 0 -89 32.5t-37 87.5q0 60 47 101t124 41q66 0 118 -33l6 33q5 28 5 38q0 38 -27 61t-73 23q-50 0 -107 -20l-6 50q64 20 120 20q67 0 108 -32.5t41 -94.5zM302 176q-41 34 -111 34q-51 0 -83.5 -27
t-32.5 -67q0 -37 23 -58t63 -21q65 0 125 58zM430 559q-54 -61 -104 -61q-26 0 -59 25q-32 24 -52 24q-28 0 -67 -42l-26 30q51 57 100 57q26 0 60 -26q33 -23 52 -23q17 0 31 9.5t39 35.5z" />
    <glyph glyph-name="adieresis" unicode="&#xe4;" horiz-adv-x="422" 
d="M378 299q0 -19 -6 -55l-49 -244h-53l9 45q-59 -53 -131 -53q-52 0 -89 32.5t-37 87.5q0 60 47 101t124 41q66 0 118 -33l6 33q5 28 5 38q0 38 -27 61t-73 23q-50 0 -107 -20l-6 50q64 20 120 20q67 0 108 -32.5t41 -94.5zM302 176q-41 34 -111 34q-51 0 -83.5 -27
t-32.5 -67q0 -37 23 -58t63 -21q65 0 125 58zM229 541q0 -17 -12 -28.5t-29 -11.5q-16 0 -28 11.5t-12 28.5t11.5 29t28.5 12t29 -12t12 -29zM399 541q0 -17 -11.5 -28.5t-28.5 -11.5t-28.5 11.5t-11.5 28.5t11.5 29t28.5 12t28.5 -12t11.5 -29z" />
    <glyph glyph-name="aring" unicode="&#xe5;" horiz-adv-x="422" 
d="M378 299q0 -19 -6 -55l-49 -244h-53l9 45q-59 -53 -131 -53q-52 0 -89 32.5t-37 87.5q0 60 47 101t124 41q66 0 118 -33l6 33q5 28 5 38q0 38 -27 61t-73 23q-50 0 -107 -20l-6 50q64 20 120 20q67 0 108 -32.5t41 -94.5zM302 176q-41 34 -111 34q-51 0 -83.5 -27
t-32.5 -67q0 -37 23 -58t63 -21q65 0 125 58zM382 600q0 -46 -32.5 -82t-79.5 -36q-37 0 -61.5 24.5t-24.5 61.5q0 46 32.5 81.5t79.5 35.5q37 0 61.5 -24t24.5 -61zM341 596q0 26 -14 41t-35 15q-26 0 -46.5 -24t-20.5 -57q0 -26 13.5 -40.5t34.5 -14.5q27 0 47.5 23.5
t20.5 56.5z" />
    <glyph glyph-name="ae" unicode="&#xe6;" horiz-adv-x="713" 
d="M156 -8q-58 0 -96 32t-38 88q0 60 47 101t124 41q69 0 118 -33l7 36q4 17 4 35q0 40 -27 62t-73 22q-55 0 -107 -20l-7 48q61 22 121 22q52 0 88 -22.5t48 -64.5q65 86 168 86q76 0 114.5 -47.5t37.5 -114.5q0 -32 -9 -61h-315q-2 -18 -2 -27q0 -65 35.5 -100t102.5 -35
q49 0 104 20q1 -3 1.5 -8t2.5 -15t3 -17l2 -6q-53 -22 -119 -22q-136 0 -172 107q-23 -49 -67 -78t-96 -29zM163 37q49 0 87.5 37.5t52.5 101.5q-45 34 -112 34q-51 0 -83.5 -27t-32.5 -67q0 -37 23.5 -58t64.5 -21zM371 246h259q2 8 2 23q0 45 -25.5 77t-78.5 32
q-55 0 -97 -37t-60 -95z" />
    <glyph glyph-name="ccedilla" unicode="&#xe7;" horiz-adv-x="412" 
d="M272 -142q0 -41 -32.5 -68t-82.5 -27q-52 0 -103 34l24 36q41 -29 82 -29q28 0 46 13.5t18 37.5q0 20 -21.5 35.5t-68.5 20.5l-2 6l39 83q-59 15 -95.5 63t-36.5 117q0 97 67.5 171.5t170.5 74.5q77 0 138 -50l-29 -41q-52 43 -117 43q-75 0 -125.5 -58t-50.5 -138
q0 -65 40.5 -103.5t102.5 -38.5q50 0 100 24l12 -45q-64 -27 -121 -27q-12 0 -18 1l-23 -53q86 -23 86 -82z" />
    <glyph glyph-name="egrave" unicode="&#xe8;" horiz-adv-x="438" 
d="M221 -8q-87 0 -136 46.5t-49 129.5q0 98 66 178t161 80q70 0 108.5 -45.5t38.5 -113.5q0 -32 -9 -65h-311q-1 -9 -1 -29q0 -63 36 -98t102 -35q49 0 104 20q1 -3 1.5 -8t2.5 -15t3 -17l2 -6q-53 -22 -119 -22zM102 246h253q2 8 2 27q0 46 -25 75.5t-73 29.5
q-51 0 -94.5 -37.5t-62.5 -94.5zM323 505l-22 -30l-182 111l35 48z" />
    <glyph glyph-name="eacute" unicode="&#xe9;" horiz-adv-x="438" 
d="M221 -8q-87 0 -136 46.5t-49 129.5q0 98 66 178t161 80q70 0 108.5 -45.5t38.5 -113.5q0 -32 -9 -65h-311q-1 -9 -1 -29q0 -63 36 -98t102 -35q49 0 104 20q1 -3 1.5 -8t2.5 -15t3 -17l2 -6q-53 -22 -119 -22zM102 246h253q2 8 2 27q0 46 -25 75.5t-73 29.5
q-51 0 -94.5 -37.5t-62.5 -94.5zM451 581l-196 -106l-15 31l183 128z" />
    <glyph glyph-name="ecircumflex" unicode="&#xea;" horiz-adv-x="438" 
d="M221 -8q-87 0 -136 46.5t-49 129.5q0 98 66 178t161 80q70 0 108.5 -45.5t38.5 -113.5q0 -32 -9 -65h-311q-1 -9 -1 -29q0 -63 36 -98t102 -35q49 0 104 20q1 -3 1.5 -8t2.5 -15t3 -17l2 -6q-53 -22 -119 -22zM102 246h253q2 8 2 27q0 46 -25 75.5t-73 29.5
q-51 0 -94.5 -37.5t-62.5 -94.5zM416 485h-55l-60 97l-96 -97h-61l150 149h31z" />
    <glyph glyph-name="edieresis" unicode="&#xeb;" horiz-adv-x="438" 
d="M221 -8q-87 0 -136 46.5t-49 129.5q0 98 66 178t161 80q70 0 108.5 -45.5t38.5 -113.5q0 -32 -9 -65h-311q-1 -9 -1 -29q0 -63 36 -98t102 -35q49 0 104 20q1 -3 1.5 -8t2.5 -15t3 -17l2 -6q-53 -22 -119 -22zM102 246h253q2 8 2 27q0 46 -25 75.5t-73 29.5
q-51 0 -94.5 -37.5t-62.5 -94.5zM249 541q0 -17 -12 -28.5t-29 -11.5q-16 0 -28 11.5t-12 28.5t11.5 29t28.5 12t29 -12t12 -29zM419 541q0 -17 -11.5 -28.5t-28.5 -11.5t-28.5 11.5t-11.5 28.5t11.5 29t28.5 12t28.5 -12t11.5 -29z" />
    <glyph glyph-name="igrave" unicode="&#xec;" horiz-adv-x="190" 
d="M162 418l-81 -418h-56l82 418h55zM187 505l-22 -30l-182 111l35 48z" />
    <glyph glyph-name="iacute" unicode="&#xed;" horiz-adv-x="190" 
d="M320 581l-196 -106l-15 31l183 128zM163 418l-81 -418h-56l82 418h55z" />
    <glyph glyph-name="icircumflex" unicode="&#xee;" horiz-adv-x="190" 
d="M281 485h-55l-60 97l-96 -97h-61l150 149h31zM163 418l-81 -418h-56l82 418h55z" />
    <glyph glyph-name="idieresis" unicode="&#xef;" horiz-adv-x="190" 
d="M114 541q0 -17 -12 -28.5t-29 -11.5t-28.5 11.5t-11.5 28.5t11.5 29t28.5 12t29 -12t12 -29zM284 541q0 -17 -12 -28.5t-28 -11.5t-28 11.5t-12 28.5t11.5 29t28.5 12t28.5 -12t11.5 -29zM163 418l-81 -418h-56l82 418h55z" />
    <glyph glyph-name="eth" unicode="&#xf0;" horiz-adv-x="462" 
d="M388 675l-90 -56q128 -145 128 -347q0 -122 -65 -201t-165 -79q-73 0 -119 49t-46 128q0 102 67 179t163 77q70 0 102 -46q-21 116 -111 211l-106 -66l-25 40l96 61q-46 40 -94 67l28 43q61 -34 112 -81l99 62zM371 250q0 57 -30.5 91.5t-83.5 34.5q-70 0 -120.5 -61
t-50.5 -142q0 -59 32 -95.5t85 -36.5q69 0 118.5 62t49.5 147z" />
    <glyph glyph-name="ntilde" unicode="&#xf1;" horiz-adv-x="457" 
d="M416 317q0 -23 -6 -49l-52 -268h-56l52 264q5 28 5 41q0 35 -19.5 54t-54.5 19q-65 0 -148 -78l-59 -300h-56l82 418h53l-14 -70q87 77 166 77q52 0 79.5 -29.5t27.5 -78.5zM446 559q-54 -61 -104 -61q-26 0 -59 25q-32 24 -52 24q-28 0 -67 -42l-26 30q51 57 100 57
q26 0 60 -26q33 -23 52 -23q17 0 31 9.5t39 35.5z" />
    <glyph glyph-name="ograve" unicode="&#xf2;" horiz-adv-x="464" 
d="M373 245q0 60 -31.5 96.5t-85.5 36.5q-56 0 -105 -47q-62 -60 -62 -158q0 -60 31.5 -96.5t84.5 -36.5q58 0 105 47q63 61 63 158zM427 248q0 -113 -78 -193q-63 -63 -147 -63q-74 0 -120.5 49.5t-46.5 128.5q0 113 78 193q63 63 147 63q74 0 120.5 -49.5t46.5 -128.5z
M325 505l-22 -30l-182 111l35 48z" />
    <glyph glyph-name="oacute" unicode="&#xf3;" horiz-adv-x="464" 
d="M453 581l-196 -106l-15 31l183 128zM373 245q0 60 -31.5 96.5t-85.5 36.5q-56 0 -105 -47q-62 -60 -62 -158q0 -60 31.5 -96.5t84.5 -36.5q58 0 105 47q63 61 63 158zM427 248q0 -113 -78 -193q-63 -63 -147 -63q-74 0 -120.5 49.5t-46.5 128.5q0 113 78 193
q63 63 147 63q74 0 120.5 -49.5t46.5 -128.5z" />
    <glyph glyph-name="ocircumflex" unicode="&#xf4;" horiz-adv-x="464" 
d="M418 485h-55l-60 97l-96 -97h-61l150 149h31zM373 245q0 60 -31.5 96.5t-85.5 36.5q-56 0 -105 -47q-62 -60 -62 -158q0 -60 31.5 -96.5t84.5 -36.5q58 0 105 47q63 61 63 158zM427 248q0 -113 -78 -193q-63 -63 -147 -63q-74 0 -120.5 49.5t-46.5 128.5q0 113 78 193
q63 63 147 63q74 0 120.5 -49.5t46.5 -128.5z" />
    <glyph glyph-name="otilde" unicode="&#xf5;" horiz-adv-x="464" 
d="M373 245q0 60 -31.5 96.5t-85.5 36.5q-56 0 -105 -47q-62 -60 -62 -158q0 -60 31.5 -96.5t84.5 -36.5q58 0 105 47q63 61 63 158zM427 248q0 -113 -78 -193q-63 -63 -147 -63q-74 0 -120.5 49.5t-46.5 128.5q0 113 78 193q63 63 147 63q74 0 120.5 -49.5t46.5 -128.5z
M452 559q-54 -61 -104 -61q-26 0 -59 25q-32 24 -52 24q-28 0 -67 -42l-26 30q51 57 100 57q26 0 60 -26q33 -23 52 -23q17 0 31 9.5t39 35.5z" />
    <glyph glyph-name="odieresis" unicode="&#xf6;" horiz-adv-x="464" 
d="M251 541q0 -17 -12 -28.5t-29 -11.5q-16 0 -28 11.5t-12 28.5t11.5 29t28.5 12t29 -12t12 -29zM421 541q0 -17 -11.5 -28.5t-28.5 -11.5t-28.5 11.5t-11.5 28.5t11.5 29t28.5 12t28.5 -12t11.5 -29zM373 245q0 60 -31.5 96.5t-85.5 36.5q-56 0 -105 -47q-62 -60 -62 -158
q0 -60 31.5 -96.5t84.5 -36.5q58 0 105 47q63 61 63 158zM427 248q0 -113 -78 -193q-63 -63 -147 -63q-74 0 -120.5 49.5t-46.5 128.5q0 113 78 193q63 63 147 63q74 0 120.5 -49.5t46.5 -128.5z" />
    <glyph glyph-name="divide" unicode="&#xf7;" 
d="M246 136q0 -16 -11.5 -27.5t-27.5 -11.5q-17 0 -28.5 11.5t-11.5 27.5q0 17 11.5 29t28.5 12q16 0 27.5 -12t11.5 -29zM60 257l9 49h340l-10 -49h-339zM302 425q0 -16 -12 -27.5t-28 -11.5t-28 11.5t-12 27.5q0 17 12 29t28 12t28 -12t12 -29z" />
    <glyph glyph-name="oslash" unicode="&#xf8;" horiz-adv-x="462" 
d="M427 248q0 -113 -78 -193q-63 -63 -147 -63q-82 0 -129 58l-69 -59l-27 32l75 63q-17 37 -17 84q0 113 78 193q63 63 147 63q81 0 127 -57l70 58l27 -31l-75 -63q18 -36 18 -85zM373 245q0 27 -8 51l-251 -212q31 -44 91 -44q58 0 105 47q63 61 63 158zM89 173
q0 -29 7 -50l251 211q-33 44 -91 44q-56 0 -105 -47q-62 -60 -62 -158z" />
    <glyph glyph-name="ugrave" unicode="&#xf9;" horiz-adv-x="457" 
d="M435 418l-81 -418h-54l14 70q-87 -78 -166 -78q-52 0 -79 30t-27 79q0 21 5 49l53 268h56l-52 -264q-5 -21 -5 -41q0 -73 73 -73q66 0 149 78l58 300h56zM323 505l-22 -30l-182 111l35 48z" />
    <glyph glyph-name="uacute" unicode="&#xfa;" horiz-adv-x="457" 
d="M451 581l-196 -106l-15 31l183 128zM435 418l-81 -418h-54l14 70q-87 -78 -166 -78q-52 0 -79 30t-27 79q0 21 5 49l53 268h56l-52 -264q-5 -21 -5 -41q0 -73 73 -73q66 0 149 78l58 300h56z" />
    <glyph glyph-name="ucircumflex" unicode="&#xfb;" horiz-adv-x="457" 
d="M416 485h-55l-60 97l-96 -97h-61l150 149h31zM435 418l-81 -418h-54l14 70q-87 -78 -166 -78q-52 0 -79 30t-27 79q0 21 5 49l53 268h56l-52 -264q-5 -21 -5 -41q0 -73 73 -73q66 0 149 78l58 300h56z" />
    <glyph glyph-name="udieresis" unicode="&#xfc;" horiz-adv-x="457" 
d="M249 541q0 -17 -12 -28.5t-29 -11.5q-16 0 -28 11.5t-12 28.5t11.5 29t28.5 12t29 -12t12 -29zM419 541q0 -17 -11.5 -28.5t-28.5 -11.5t-28.5 11.5t-11.5 28.5t11.5 29t28.5 12t28.5 -12t11.5 -29zM435 418l-81 -418h-54l14 70q-87 -78 -166 -78q-52 0 -79 30t-27 79
q0 21 5 49l53 268h56l-52 -264q-5 -21 -5 -41q0 -73 73 -73q66 0 149 78l58 300h56z" />
    <glyph glyph-name="yacute" unicode="&#xfd;" horiz-adv-x="420" 
d="M452 418l-414 -634h-58l166 251l-96 383h55l78 -332l208 332h61zM429 581l-196 -106l-15 31l183 128z" />
    <glyph glyph-name="thorn" unicode="&#xfe;" horiz-adv-x="473" 
d="M435 252q0 -103 -67 -181.5t-167 -78.5q-67 0 -116 42l-49 -250h-56l185 949h55l-67 -351q56 44 125 44t113 -49.5t44 -124.5zM380 243q0 61 -32.5 97.5t-85.5 36.5q-65 0 -119 -49l-48 -241q43 -46 109 -46q74 0 125 60.5t51 141.5z" />
    <glyph glyph-name="ydieresis" unicode="&#xff;" horiz-adv-x="420" 
d="M452 418l-414 -634h-58l166 251l-96 383h55l78 -332l208 332h61zM227 541q0 -17 -12 -28.5t-29 -11.5q-16 0 -28 11.5t-12 28.5t11.5 29t28.5 12t29 -12t12 -29zM397 541q0 -17 -11.5 -28.5t-28.5 -11.5t-28.5 11.5t-11.5 28.5t11.5 29t28.5 12t28.5 -12t11.5 -29z" />
    <glyph glyph-name="Amacron" unicode="&#x100;" horiz-adv-x="655" 
d="M601 0h-59l-47 225h-332l-136 -225h-60l457 745h9zM484 272l-75 358l-217 -358h292zM595 881l-9 -48h-279l10 48h278z" />
    <glyph glyph-name="amacron" unicode="&#x101;" horiz-adv-x="422" 
d="M378 299q0 -19 -6 -55l-49 -244h-53l9 45q-59 -53 -131 -53q-52 0 -89 32.5t-37 87.5q0 60 47 101t124 41q66 0 118 -33l6 33q5 28 5 38q0 38 -27 61t-73 23q-50 0 -107 -20l-6 50q64 20 120 20q67 0 108 -32.5t41 -94.5zM302 176q-41 34 -111 34q-51 0 -83.5 -27
t-32.5 -67q0 -37 23 -58t63 -21q65 0 125 58zM417 561l-9 -48h-279l10 48h278z" />
    <glyph glyph-name="Abreve" unicode="&#x102;" horiz-adv-x="655" 
d="M601 0h-59l-47 225h-332l-136 -225h-60l457 745h9zM484 272l-75 358l-217 -358h292zM592 933q-11 -60 -48 -96.5t-97 -36.5q-54 0 -86 28.5t-32 75.5q0 19 2 29l48 4q-2 -8 -2 -26q0 -34 20.5 -51.5t53.5 -17.5q37 0 61 25t32 70z" />
    <glyph glyph-name="abreve" unicode="&#x103;" horiz-adv-x="422" 
d="M378 299q0 -19 -6 -55l-49 -244h-53l9 45q-59 -53 -131 -53q-52 0 -89 32.5t-37 87.5q0 60 47 101t124 41q66 0 118 -33l6 33q5 28 5 38q0 38 -27 61t-73 23q-50 0 -107 -20l-6 50q64 20 120 20q67 0 108 -32.5t41 -94.5zM302 176q-41 34 -111 34q-51 0 -83.5 -27
t-32.5 -67q0 -37 23 -58t63 -21q65 0 125 58zM417 613q-11 -60 -48 -96.5t-97 -36.5q-54 0 -86 28.5t-32 75.5q0 19 2 29l48 4q-2 -8 -2 -26q0 -34 20.5 -51.5t53.5 -17.5q37 0 61 25t32 70z" />
    <glyph glyph-name="Aogonek" unicode="&#x104;" horiz-adv-x="655" 
d="M596 -170q-46 -49 -96 -49q-31 -1 -49 16.5t-18 47.5q0 70 108 158l-46 222h-332l-136 -225h-60l457 745h9l168 -745h-10q-2 -2 -14.5 -12.5t-18 -15.5t-17.5 -16t-18.5 -18t-15.5 -18.5t-13.5 -20.5t-8 -20t-3.5 -21q0 -36 31 -36q25 0 61 34zM484 272l-75 358
l-217 -358h292z" />
    <glyph glyph-name="aogonek" unicode="&#x105;" horiz-adv-x="422" 
d="M322 -170q-46 -49 -96 -49q-31 -1 -49 16.5t-18 47.5q0 70 112 162l8 38q-59 -53 -131 -53q-52 0 -89 32.5t-37 87.5q0 60 47 101t124 41q66 0 118 -33l6 33q5 28 5 38q0 38 -27 61t-73 23q-50 0 -107 -20l-6 50q64 20 120 20q67 0 108 -32.5t41 -94.5q0 -19 -6 -55
l-49 -244h-6q-2 -2 -14.5 -12.5t-18 -15.5t-17.5 -16t-18.5 -18t-15.5 -18.5t-13.5 -20.5t-8 -20t-3.5 -21q0 -36 31 -36q25 0 61 34zM302 176q-41 34 -111 34q-51 0 -83.5 -27t-32.5 -67q0 -37 23 -58t63 -21q65 0 125 58z" />
    <glyph glyph-name="Cacute" unicode="&#x106;" horiz-adv-x="731" 
d="M687 901l-196 -106l-15 31l183 128zM747 655l-30 -45q-99 82 -225 82q-149 0 -250.5 -109.5t-101.5 -264.5q0 -123 77 -200t195 -77q106 0 215 69l24 -46q-115 -74 -245 -74q-136 0 -230 91.5t-94 233.5q0 179 122.5 304t295.5 125q137 0 247 -89z" />
    <glyph glyph-name="cacute" unicode="&#x107;" horiz-adv-x="412" 
d="M454 581l-196 -106l-15 31l183 128zM415 376l-29 -41q-52 43 -117 43q-75 0 -125.5 -58t-50.5 -138q0 -65 40.5 -103.5t102.5 -38.5q50 0 100 24l12 -45q-64 -27 -121 -27q-81 0 -134.5 51.5t-53.5 136.5q0 97 67.5 171.5t170.5 74.5q77 0 138 -50z" />
    <glyph glyph-name="Cdotaccent" unicode="&#x10a;" horiz-adv-x="731" 
d="M747 655l-30 -45q-99 82 -225 82q-149 0 -250.5 -109.5t-101.5 -264.5q0 -123 77 -200t195 -77q106 0 215 69l24 -46q-115 -74 -245 -74q-136 0 -230 91.5t-94 233.5q0 179 122.5 304t295.5 125q137 0 247 -89zM570 861q0 -17 -12 -28.5t-29 -11.5t-28.5 11.5t-11.5 28.5
t11.5 29t28.5 12t29 -12t12 -29z" />
    <glyph glyph-name="cdotaccent" unicode="&#x10b;" horiz-adv-x="412" 
d="M415 376l-29 -41q-52 43 -117 43q-75 0 -125.5 -58t-50.5 -138q0 -65 40.5 -103.5t102.5 -38.5q50 0 100 24l12 -45q-64 -27 -121 -27q-81 0 -134.5 51.5t-53.5 136.5q0 97 67.5 171.5t170.5 74.5q77 0 138 -50zM338 541q0 -17 -12 -28.5t-29 -11.5t-28.5 11.5
t-11.5 28.5t11.5 29t28.5 12t29 -12t12 -29z" />
    <glyph glyph-name="Ccaron" unicode="&#x10c;" horiz-adv-x="731" 
d="M685 953l-150 -149h-30l-92 149h56l60 -97l95 97h61zM747 655l-30 -45q-99 82 -225 82q-149 0 -250.5 -109.5t-101.5 -264.5q0 -123 77 -200t195 -77q106 0 215 69l24 -46q-115 -74 -245 -74q-136 0 -230 91.5t-94 233.5q0 179 122.5 304t295.5 125q137 0 247 -89z" />
    <glyph glyph-name="ccaron" unicode="&#x10d;" horiz-adv-x="412" 
d="M452 633l-150 -149h-30l-92 149h56l60 -97l95 97h61zM415 376l-29 -41q-52 43 -117 43q-75 0 -125.5 -58t-50.5 -138q0 -65 40.5 -103.5t102.5 -38.5q50 0 100 24l12 -45q-64 -27 -121 -27q-81 0 -134.5 51.5t-53.5 136.5q0 97 67.5 171.5t170.5 74.5q77 0 138 -50z" />
    <glyph glyph-name="Dcaron" unicode="&#x10e;" horiz-adv-x="706" 
d="M217 -7q-86 0 -171 15l140 722q61 10 134 10q173 0 270 -97q90 -90 90 -234q0 -182 -127 -299t-336 -117zM322 691q-47 0 -88 -7l-124 -633q59 -8 121 -8q170 0 280.5 102t110.5 259q0 132 -78 208q-79 79 -222 79zM590 953l-150 -149h-30l-92 149h56l60 -97l95 97h61z
" />
    <glyph glyph-name="dcaron" unicode="&#x10f;" horiz-adv-x="475" 
d="M607 734l55 -9q-22 -120 -125 -184l-24 23q74 62 94 170zM511 733l-142 -733h-54l8 37q-57 -45 -124 -45t-114 50t-47 126q0 102 67.5 180t166.5 78q70 0 116 -44l67 351h56zM378 331q-44 47 -108 47q-75 0 -126 -59t-51 -140q0 -64 32.5 -101t87.5 -37q65 0 117 46z" />
    <glyph glyph-name="Dcroat" unicode="&#x110;" horiz-adv-x="736" 
d="M710 409q0 -182 -127 -299t-336 -117q-86 0 -171 15l66 340h-86l9 50h86l65 332q61 10 134 10q173 0 270 -97q90 -90 90 -234zM652 404q0 132 -78 208q-79 79 -222 79q-47 0 -88 -7l-56 -286h136l-9 -50h-137l-58 -297q59 -8 121 -8q170 0 280.5 102t110.5 259z" />
    <glyph glyph-name="dcroat" unicode="&#x111;" horiz-adv-x="475" 
d="M511 733l-22 -115h60l-9 -48h-61l-110 -570h-54l8 37q-57 -45 -124 -45t-114 50t-47 126q0 102 67.5 180t166.5 78q70 0 116 -44l36 188h-143l9 48h143l22 115h56zM378 331q-44 47 -108 47q-75 0 -126 -59t-51 -140q0 -64 32.5 -101t87.5 -37q65 0 117 46z" />
    <glyph glyph-name="Emacron" unicode="&#x112;" horiz-adv-x="551" 
d="M592 733l-10 -50h-348l-56 -286h314l-10 -50h-313l-58 -296h349l-10 -51h-406l143 733h405zM557 881l-9 -48h-279l10 48h278z" />
    <glyph glyph-name="emacron" unicode="&#x113;" horiz-adv-x="438" 
d="M221 -8q-87 0 -136 46.5t-49 129.5q0 98 66 178t161 80q70 0 108.5 -45.5t38.5 -113.5q0 -32 -9 -65h-311q-1 -9 -1 -29q0 -63 36 -98t102 -35q49 0 104 20q1 -3 1.5 -8t2.5 -15t3 -17l2 -6q-53 -22 -119 -22zM102 246h253q2 8 2 27q0 46 -25 75.5t-73 29.5
q-51 0 -94.5 -37.5t-62.5 -94.5zM437 561l-9 -48h-279l10 48h278z" />
    <glyph glyph-name="Ebreve" unicode="&#x114;" horiz-adv-x="551" 
d="M592 733l-10 -50h-348l-56 -286h314l-10 -50h-313l-58 -296h349l-10 -51h-406l143 733h405zM558 933q-11 -60 -48 -96.5t-97 -36.5q-54 0 -86 28.5t-32 75.5q0 19 2 29l48 4q-2 -8 -2 -26q0 -34 20.5 -51.5t53.5 -17.5q37 0 61 25t32 70z" />
    <glyph glyph-name="ebreve" unicode="&#x115;" horiz-adv-x="438" 
d="M221 -8q-87 0 -136 46.5t-49 129.5q0 98 66 178t161 80q70 0 108.5 -45.5t38.5 -113.5q0 -32 -9 -65h-311q-1 -9 -1 -29q0 -63 36 -98t102 -35q49 0 104 20q1 -3 1.5 -8t2.5 -15t3 -17l2 -6q-53 -22 -119 -22zM102 246h253q2 8 2 27q0 46 -25 75.5t-73 29.5
q-51 0 -94.5 -37.5t-62.5 -94.5zM437 613q-11 -60 -48 -96.5t-97 -36.5q-54 0 -86 28.5t-32 75.5q0 19 2 29l48 4q-2 -8 -2 -26q0 -34 20.5 -51.5t53.5 -17.5q37 0 61 25t32 70z" />
    <glyph glyph-name="Edotaccent" unicode="&#x116;" horiz-adv-x="551" 
d="M592 733l-10 -50h-348l-56 -286h314l-10 -50h-313l-58 -296h349l-10 -51h-406l143 733h405zM454 861q0 -17 -12 -28.5t-29 -11.5t-28.5 11.5t-11.5 28.5t11.5 29t28.5 12t29 -12t12 -29z" />
    <glyph glyph-name="edotaccent" unicode="&#x117;" horiz-adv-x="438" 
d="M221 -8q-87 0 -136 46.5t-49 129.5q0 98 66 178t161 80q70 0 108.5 -45.5t38.5 -113.5q0 -32 -9 -65h-311q-1 -9 -1 -29q0 -63 36 -98t102 -35q49 0 104 20q1 -3 1.5 -8t2.5 -15t3 -17l2 -6q-53 -22 -119 -22zM102 246h253q2 8 2 27q0 46 -25 75.5t-73 29.5
q-51 0 -94.5 -37.5t-62.5 -94.5zM334 541q0 -17 -12 -28.5t-29 -11.5t-28.5 11.5t-11.5 28.5t11.5 29t28.5 12t29 -12t12 -29z" />
    <glyph glyph-name="Eogonek" unicode="&#x118;" horiz-adv-x="551" 
d="M592 733l-10 -50h-348l-56 -286h314l-10 -50h-313l-58 -296h349l-10 -51h-34q-2 -2 -14.5 -12.5t-18 -15.5t-17.5 -16t-18.5 -18t-15.5 -18.5t-13.5 -20.5t-8 -20t-3.5 -21q0 -36 31 -36q25 0 61 34l22 -26q-46 -49 -96 -49q-31 -1 -49 16.5t-18 47.5q0 69 104 155h-318
l143 733h405z" />
    <glyph glyph-name="eogonek" unicode="&#x119;" horiz-adv-x="438" 
d="M221 -8q-87 0 -136 46.5t-49 129.5q0 98 66 178t161 80q70 0 108.5 -45.5t38.5 -113.5q0 -32 -9 -65h-311q-1 -9 -1 -29q0 -63 36 -98t102 -35q49 0 104 20q1 -3 1.5 -8t2.5 -15t3 -17l2 -6q-120 -97 -120 -155q0 -37 32 -37q24 0 60 34l22 -26q-46 -49 -97 -49
q-30 -1 -48 16.5t-18 47.5q0 68 93 149q-26 -2 -43 -2zM102 246h253q2 8 2 27q0 46 -25 75.5t-73 29.5q-51 0 -94.5 -37.5t-62.5 -94.5z" />
    <glyph glyph-name="Ecaron" unicode="&#x11a;" horiz-adv-x="551" 
d="M569 953l-150 -149h-30l-92 149h56l60 -97l95 97h61zM592 733l-10 -50h-348l-56 -286h314l-10 -50h-313l-58 -296h349l-10 -51h-406l143 733h405z" />
    <glyph glyph-name="ecaron" unicode="&#x11b;" horiz-adv-x="438" 
d="M221 -8q-87 0 -136 46.5t-49 129.5q0 98 66 178t161 80q70 0 108.5 -45.5t38.5 -113.5q0 -32 -9 -65h-311q-1 -9 -1 -29q0 -63 36 -98t102 -35q49 0 104 20q1 -3 1.5 -8t2.5 -15t3 -17l2 -6q-53 -22 -119 -22zM102 246h253q2 8 2 27q0 46 -25 75.5t-73 29.5
q-51 0 -94.5 -37.5t-62.5 -94.5zM449 633l-150 -149h-30l-92 149h56l60 -97l95 97h61z" />
    <glyph glyph-name="Gbreve" unicode="&#x11e;" horiz-adv-x="758" 
d="M714 349l-55 -285q-121 -74 -253 -74q-136 0 -230 91.5t-94 233.5q0 117 58 216.5t154.5 156t205.5 56.5q70 0 133.5 -22t105.5 -54l-30 -45q-91 69 -217 69q-146 0 -249 -110t-103 -264q0 -123 76.5 -200t195.5 -77q114 0 197 53l39 204h-211l10 51h267zM669 933
q-11 -60 -48 -96.5t-97 -36.5q-54 0 -86 28.5t-32 75.5q0 19 2 29l48 4q-2 -8 -2 -26q0 -34 20.5 -51.5t53.5 -17.5q37 0 61 25t32 70z" />
    <glyph glyph-name="gbreve" unicode="&#x11f;" horiz-adv-x="475" 
d="M451 418l-90 -462q-36 -182 -209 -182q-67 0 -135 28l20 48q59 -25 118 -25q64 0 101 31t50 99l14 72q-54 -35 -115 -35q-70 0 -118.5 50t-48.5 126q0 102 67.5 180t167.5 78q69 0 118 -45l7 37h53zM379 331q-44 47 -109 47q-74 0 -125.5 -59.5t-51.5 -139.5
q0 -64 34 -101.5t89 -37.5q62 0 114 44zM463 613q-11 -60 -48 -96.5t-97 -36.5q-54 0 -86 28.5t-32 75.5q0 19 2 29l48 4q-2 -8 -2 -26q0 -34 20.5 -51.5t53.5 -17.5q37 0 61 25t32 70z" />
    <glyph glyph-name="Gdotaccent" unicode="&#x120;" horiz-adv-x="758" 
d="M714 349l-55 -285q-121 -74 -253 -74q-136 0 -230 91.5t-94 233.5q0 117 58 216.5t154.5 156t205.5 56.5q70 0 133.5 -22t105.5 -54l-30 -45q-91 69 -217 69q-146 0 -249 -110t-103 -264q0 -123 76.5 -200t195.5 -77q114 0 197 53l39 204h-211l10 51h267zM566 861
q0 -17 -12 -28.5t-29 -11.5t-28.5 11.5t-11.5 28.5t11.5 29t28.5 12t29 -12t12 -29z" />
    <glyph glyph-name="gdotaccent" unicode="&#x121;" horiz-adv-x="475" 
d="M451 418l-90 -462q-36 -182 -209 -182q-67 0 -135 28l20 48q59 -25 118 -25q64 0 101 31t50 99l14 72q-54 -35 -115 -35q-70 0 -118.5 50t-48.5 126q0 102 67.5 180t167.5 78q69 0 118 -45l7 37h53zM379 331q-44 47 -109 47q-74 0 -125.5 -59.5t-51.5 -139.5
q0 -64 34 -101.5t89 -37.5q62 0 114 44zM360 541q0 -17 -12 -28.5t-29 -11.5t-28.5 11.5t-11.5 28.5t11.5 29t28.5 12t29 -12t12 -29z" />
    <glyph glyph-name="Gcommaaccent" unicode="&#x122;" horiz-adv-x="758" 
d="M383 -122q0 -41 -34 -78t-81 -62l-9 13q62 49 80 91q-18 3 -29 15t-11 29t12 29t29 12q16 0 29.5 -13.5t13.5 -35.5zM714 349l-55 -285q-121 -74 -253 -74q-136 0 -230 91.5t-94 233.5q0 117 58 216.5t154.5 156t205.5 56.5q70 0 133.5 -22t105.5 -54l-30 -45
q-91 69 -217 69q-146 0 -249 -110t-103 -264q0 -123 76.5 -200t195.5 -77q114 0 197 53l39 204h-211l10 51h267z" />
    <glyph glyph-name="gcommaaccent" unicode="&#x123;" horiz-adv-x="475" 
d="M276 549q0 41 34 78t81 62l9 -13q-62 -49 -80 -91q18 -3 29 -15t11 -29t-12 -29t-29 -12q-16 0 -29.5 13.5t-13.5 35.5zM451 418l-90 -462q-36 -182 -209 -182q-67 0 -135 28l20 48q59 -25 118 -25q64 0 101 31t50 99l14 72q-54 -35 -115 -35q-70 0 -118.5 50t-48.5 126
q0 102 67.5 180t167.5 78q69 0 118 -45l7 37h53zM379 331q-44 47 -109 47q-74 0 -125.5 -59.5t-51.5 -139.5q0 -64 34 -101.5t89 -37.5q62 0 114 44z" />
    <glyph glyph-name="Hbar" unicode="&#x126;" horiz-adv-x="694" 
d="M709 733l-26 -131h78l-10 -48h-77l-108 -554h-57l68 348h-408l-68 -348h-57l108 554h-77l9 48h77l26 131h57l-25 -131h408l25 131h57zM179 398h408l30 156h-408z" />
    <glyph glyph-name="hbar" unicode="&#x127;" horiz-adv-x="457" 
d="M416 317q0 -23 -6 -49l-52 -268h-56l52 264q5 28 5 41q0 35 -19.5 54t-54.5 19q-66 0 -148 -78l-59 -300h-56l111 570h-58l9 48h58l23 115h56l-23 -115h145l-9 -48h-146l-43 -220q85 75 164 75q52 0 79.5 -29.5t27.5 -78.5z" />
    <glyph glyph-name="Imacron" unicode="&#x12a;" horiz-adv-x="236" 
d="M248 733l-143 -733h-56l143 733h56zM388 881l-9 -48h-279l10 48h278z" />
    <glyph glyph-name="imacron" unicode="&#x12b;" horiz-adv-x="190" 
d="M163 418l-81 -418h-56l82 418h55zM302 561l-9 -48h-279l10 48h278z" />
    <glyph glyph-name="Ibreve" unicode="&#x12c;" horiz-adv-x="236" 
d="M248 733l-143 -733h-56l143 733h56zM389 933q-11 -60 -48 -96.5t-97 -36.5q-54 0 -86 28.5t-32 75.5q0 19 2 29l48 4q-2 -8 -2 -26q0 -34 20.5 -51.5t53.5 -17.5q37 0 61 25t32 70z" />
    <glyph glyph-name="ibreve" unicode="&#x12d;" horiz-adv-x="190" 
d="M163 418l-81 -418h-56l82 418h55zM303 613q-11 -60 -48 -96.5t-97 -36.5q-54 0 -86 28.5t-32 75.5q0 19 2 29l48 4q-2 -8 -2 -26q0 -34 20.5 -51.5t53.5 -17.5q37 0 61 25t32 70z" />
    <glyph glyph-name="Iogonek" unicode="&#x12e;" horiz-adv-x="236" 
d="M248 733l-143 -733h-3q-32 -30 -47.5 -45.5t-33.5 -44t-18 -51.5q0 -37 31 -37q25 0 61 34l22 -26q-46 -49 -97 -49q-31 -1 -48.5 16.5t-17.5 47.5q0 68 96 155h-1l143 733h56z" />
    <glyph glyph-name="iogonek" unicode="&#x12f;" horiz-adv-x="190" 
d="M163 418l-81 -418h-4q-33 -31 -48 -46t-33.5 -43.5t-18.5 -51.5q0 -37 32 -37q25 0 61 34l22 -26q-46 -49 -97 -49q-31 -1 -48.5 16.5t-17.5 47.5q0 68 96 155l82 418h55zM205 572q0 -16 -12 -27.5t-28 -11.5t-28 11.5t-12 27.5q0 17 12 29t28 12t28 -12t12 -29z" />
    <glyph glyph-name="Idotaccent" unicode="&#x130;" horiz-adv-x="236" 
d="M248 733l-143 -733h-56l143 733h56zM285 861q0 -17 -12 -28.5t-29 -11.5q-16 0 -28 11.5t-12 28.5t11.5 29t28.5 12t29 -12t12 -29z" />
    <glyph glyph-name="dotlessi" unicode="&#x131;" horiz-adv-x="190" 
d="M163 418l-81 -418h-56l82 418h55z" />
    <glyph glyph-name="Kcommaaccent" unicode="&#x136;" horiz-adv-x="585" 
d="M290 -122q0 -41 -34 -78t-81 -62l-9 13q62 49 80 91q-18 3 -29 15t-11 29t12 29t29 12q16 0 29.5 -13.5t13.5 -35.5zM650 733l-423 -359l294 -374h-71l-278 362l-71 -362h-57l143 733h57l-67 -342l396 342h77z" />
    <glyph glyph-name="kcommaaccent" unicode="&#x137;" horiz-adv-x="396" 
d="M187 -122q0 -41 -34 -78t-81 -62l-9 13q62 49 80 91q-18 3 -29 15t-11 29t12 29t29 12q16 0 29.5 -13.5t13.5 -35.5zM427 418l-255 -202l182 -216h-63l-173 207l-40 -207h-55l142 733h55l-97 -501l230 186h74z" />
    <glyph glyph-name="Lacute" unicode="&#x139;" horiz-adv-x="509" 
d="M420 901l-196 -106l-15 31l183 128zM459 51l-10 -51h-405l143 733h57l-133 -682h348z" />
    <glyph glyph-name="lacute" unicode="&#x13a;" horiz-adv-x="189" 
d="M382 901l-196 -106l-15 31l183 128zM222 733l-142 -733h-55l142 733h55z" />
    <glyph glyph-name="Lcommaaccent" unicode="&#x13b;" horiz-adv-x="509" 
d="M270 -122q0 -41 -34 -78t-81 -62l-9 13q62 49 80 91q-18 3 -29 15t-11 29t12 29t29 12q16 0 29.5 -13.5t13.5 -35.5zM459 51l-10 -51h-405l143 733h57l-133 -682h348z" />
    <glyph glyph-name="lcommaaccent" unicode="&#x13c;" horiz-adv-x="189" 
d="M76 -122q0 -41 -34 -78t-81 -62l-9 13q62 49 80 91q-18 3 -29 15t-11 29t12 29t29 12q16 0 29.5 -13.5t13.5 -35.5zM221 733l-142 -733h-55l142 733h55z" />
    <glyph glyph-name="Lcaron" unicode="&#x13d;" horiz-adv-x="509" 
d="M393 729l55 -9q-22 -120 -125 -184l-24 23q74 62 94 170zM459 51l-10 -51h-405l143 733h57l-133 -682h348z" />
    <glyph glyph-name="lcaron" unicode="&#x13e;" horiz-adv-x="189" 
d="M316 734l55 -9q-22 -120 -125 -184l-24 23q74 62 94 170zM222 733l-142 -733h-55l142 733h55z" />
    <glyph glyph-name="Ldot" unicode="&#x13f;" horiz-adv-x="509" 
d="M459 51l-10 -51h-405l143 733h57l-133 -682h348zM447 365q0 -17 -12 -28.5t-29 -11.5q-16 0 -28 11.5t-12 28.5t11.5 29t28.5 12t29 -12t12 -29z" />
    <glyph glyph-name="ldot" unicode="&#x140;" horiz-adv-x="260" 
d="M222 733l-142 -733h-55l142 733h55zM294 366q0 -17 -12 -28.5t-29 -11.5t-28.5 12t-11.5 28q0 17 11.5 29t28.5 12t29 -12t12 -29z" />
    <glyph glyph-name="Lslash" unicode="&#x141;" horiz-adv-x="537" 
d="M487 51l-10 -51h-405l63 324l-69 -29l10 56q2 1 5.5 2.5t12.5 5t17 7t16.5 7t12.5 5.5l5 2l70 353h56l-63 -327l113 47l-10 -56l-115 -47l-14 -75q-15 -75 -30 -149l-14 -75h349z" />
    <glyph glyph-name="lslash" unicode="&#x142;" horiz-adv-x="212" 
d="M234 733l-64 -332l55 24l-11 -55l-55 -24l-67 -346h-56l62 319l-56 -24l11 56l56 23l69 359h56z" />
    <glyph glyph-name="Nacute" unicode="&#x143;" horiz-adv-x="717" 
d="M638 888l-196 -106l-15 31l183 128zM731 733l-144 -742l-11 -2l-356 626l-120 -615h-55l144 741l14 3l354 -619l118 608h56z" />
    <glyph glyph-name="nacute" unicode="&#x144;" horiz-adv-x="457" 
d="M447 581l-196 -106l-15 31l183 128zM416 317q0 -23 -6 -49l-52 -268h-56l52 264q5 28 5 41q0 35 -19.5 54t-54.5 19q-65 0 -148 -78l-59 -300h-56l82 418h53l-14 -70q87 77 166 77q52 0 79.5 -29.5t27.5 -78.5z" />
    <glyph glyph-name="Ncommaaccent" unicode="&#x145;" horiz-adv-x="717" 
d="M341 -122q0 -41 -34 -78t-81 -62l-9 13q62 49 80 91q-18 3 -29 15t-11 29t12 29t29 12q16 0 29.5 -13.5t13.5 -35.5zM731 733l-144 -742l-11 -2l-356 626l-120 -615h-55l144 741l14 3l354 -619l118 608h56z" />
    <glyph glyph-name="ncommaaccent" unicode="&#x146;" horiz-adv-x="457" 
d="M210 -122q0 -41 -34 -78t-81 -62l-9 13q62 49 80 91q-18 3 -29 15t-11 29t12 29t29 12q16 0 29.5 -13.5t13.5 -35.5zM416 317q0 -23 -6 -49l-52 -268h-56l52 264q5 28 5 41q0 35 -19.5 54t-54.5 19q-65 0 -148 -78l-59 -300h-56l82 418h53l-14 -70q87 77 166 77
q52 0 79.5 -29.5t27.5 -78.5z" />
    <glyph glyph-name="Ncaron" unicode="&#x147;" horiz-adv-x="717" 
d="M636 940l-150 -149h-30l-92 149h56l60 -97l95 97h61zM731 733l-144 -742l-11 -2l-356 626l-120 -615h-55l144 741l14 3l354 -619l118 608h56z" />
    <glyph glyph-name="ncaron" unicode="&#x148;" horiz-adv-x="457" 
d="M445 633l-150 -149h-30l-92 149h56l60 -97l95 97h61zM416 317q0 -23 -6 -49l-52 -268h-56l52 264q5 28 5 41q0 35 -19.5 54t-54.5 19q-65 0 -148 -78l-59 -300h-56l82 418h53l-14 -70q87 77 166 77q52 0 79.5 -29.5t27.5 -78.5z" />
    <glyph glyph-name="Omacron" unicode="&#x14c;" horiz-adv-x="830" 
d="M682 881l-9 -48h-279l10 48h278zM804 411q0 -105 -48 -200.5t-141 -158t-210 -62.5q-141 0 -231.5 93t-90.5 240q0 105 48 200.5t141 158t210 62.5q141 0 231.5 -93t90.5 -240zM747 412q0 123 -74 201.5t-192 78.5q-146 0 -243.5 -108.5t-97.5 -261.5q0 -124 74 -202.5
t192 -78.5q146 0 243.5 108.5t97.5 262.5z" />
    <glyph glyph-name="omacron" unicode="&#x14d;" horiz-adv-x="464" 
d="M439 561l-9 -48h-279l10 48h278zM373 245q0 60 -31.5 96.5t-85.5 36.5q-56 0 -105 -47q-62 -60 -62 -158q0 -60 31.5 -96.5t84.5 -36.5q58 0 105 47q63 61 63 158zM427 248q0 -113 -78 -193q-63 -63 -147 -63q-74 0 -120.5 49.5t-46.5 128.5q0 113 78 193q63 63 147 63
q74 0 120.5 -49.5t46.5 -128.5z" />
    <glyph glyph-name="Obreve" unicode="&#x14e;" horiz-adv-x="830" 
d="M804 411q0 -105 -48 -200.5t-141 -158t-210 -62.5q-141 0 -231.5 93t-90.5 240q0 105 48 200.5t141 158t210 62.5q141 0 231.5 -93t90.5 -240zM747 412q0 123 -74 201.5t-192 78.5q-146 0 -243.5 -108.5t-97.5 -261.5q0 -124 74 -202.5t192 -78.5q146 0 243.5 108.5
t97.5 262.5zM683 933q-11 -60 -48 -96.5t-97 -36.5q-54 0 -86 28.5t-32 75.5q0 19 2 29l48 4q-2 -8 -2 -26q0 -34 20.5 -51.5t53.5 -17.5q37 0 61 25t32 70z" />
    <glyph glyph-name="obreve" unicode="&#x14f;" horiz-adv-x="464" 
d="M373 245q0 60 -31.5 96.5t-85.5 36.5q-56 0 -105 -47q-62 -60 -62 -158q0 -60 31.5 -96.5t84.5 -36.5q58 0 105 47q63 61 63 158zM427 248q0 -113 -78 -193q-63 -63 -147 -63q-74 0 -120.5 49.5t-46.5 128.5q0 113 78 193q63 63 147 63q74 0 120.5 -49.5t46.5 -128.5z
M444 613q-11 -60 -48 -96.5t-97 -36.5q-54 0 -86 28.5t-32 75.5q0 19 2 29l48 4q-2 -8 -2 -26q0 -34 20.5 -51.5t53.5 -17.5q37 0 61 25t32 70z" />
    <glyph glyph-name="Ohungarumlaut" unicode="&#x150;" horiz-adv-x="830" 
d="M603 959l-142 -155l-25 20l122 168zM740 953l-140 -152l-25 19l120 165zM804 411q0 -105 -48 -200.5t-141 -158t-210 -62.5q-141 0 -231.5 93t-90.5 240q0 105 48 200.5t141 158t210 62.5q141 0 231.5 -93t90.5 -240zM747 412q0 123 -74 201.5t-192 78.5
q-146 0 -243.5 -108.5t-97.5 -261.5q0 -124 74 -202.5t192 -78.5q146 0 243.5 108.5t97.5 262.5z" />
    <glyph glyph-name="ohungarumlaut" unicode="&#x151;" horiz-adv-x="464" 
d="M360 639l-142 -155l-25 20l122 168zM497 633l-140 -152l-25 19l120 165zM373 245q0 60 -31.5 96.5t-85.5 36.5q-56 0 -105 -47q-62 -60 -62 -158q0 -60 31.5 -96.5t84.5 -36.5q58 0 105 47q63 61 63 158zM427 248q0 -113 -78 -193q-63 -63 -147 -63q-74 0 -120.5 49.5
t-46.5 128.5q0 113 78 193q63 63 147 63q74 0 120.5 -49.5t46.5 -128.5z" />
    <glyph glyph-name="OE" unicode="&#x152;" horiz-adv-x="1024" 
d="M1064 733l-9 -50h-349l-55 -286h313l-9 -50h-314l-58 -296h349l-10 -51h-383q-10 -1 -29 -2.5t-36.5 -3t-34.5 -1.5q-169 0 -262 95t-93 237q0 181 127 298t336 117q47 0 108 -7h409zM437 43q47 0 89 6l123 633q-54 9 -116 9q-170 0 -280.5 -102t-110.5 -259
q0 -151 98 -225q77 -62 197 -62z" />
    <glyph glyph-name="oe" unicode="&#x153;" horiz-adv-x="775" 
d="M738 202h-315q-1 -9 -1 -27q0 -65 35 -100t102 -35q49 0 104 20q1 -3 1.5 -8t2.5 -15t3 -17l2 -6q-53 -22 -119 -22q-134 0 -171 107q-31 -49 -77.5 -78t-102.5 -29q-74 0 -120 49.5t-46 128.5q0 113 78 193q63 63 147 63q55 0 95.5 -28t57.5 -78q67 105 181 105
q76 0 114.5 -47.5t37.5 -114.5q0 -32 -9 -61zM257 378q-57 0 -105 -46q-63 -61 -63 -157q0 -61 31.5 -98t85.5 -37q59 0 105 46q63 61 63 157q0 61 -31.5 98t-85.5 37zM693 246q2 7 2 23q0 45 -25.5 77t-78.5 32q-55 0 -97 -37t-60 -95h259z" />
    <glyph glyph-name="Racute" unicode="&#x154;" horiz-adv-x="581" 
d="M571 537q0 -87 -55.5 -150.5t-155.5 -84.5l153 -302h-67l-144 294q-10 -1 -32 -1q-39 0 -111 7l-58 -300h-57l142 728q77 10 136 10q118 0 183.5 -56.5t65.5 -144.5zM513 533q0 69 -48.5 111.5t-141.5 42.5q-49 0 -89 -6l-65 -331q65 -7 107 -7q112 0 174.5 52t62.5 138z
M560 901l-196 -106l-15 31l183 128z" />
    <glyph glyph-name="racute" unicode="&#x155;" horiz-adv-x="266" 
d="M374 581l-196 -106l-15 31l183 128zM283 427l-10 -55h-1q-44 -1 -75 -21t-63 -66l-56 -285h-56l82 418h53l-15 -79q25 40 62 64t79 24z" />
    <glyph glyph-name="Rcommaaccent" unicode="&#x156;" horiz-adv-x="581" 
d="M571 537q0 -87 -55.5 -150.5t-155.5 -84.5l153 -302h-67l-144 294q-10 -1 -32 -1q-39 0 -111 7l-58 -300h-57l142 728q77 10 136 10q118 0 183.5 -56.5t65.5 -144.5zM513 533q0 69 -48.5 111.5t-141.5 42.5q-49 0 -89 -6l-65 -331q65 -7 107 -7q112 0 174.5 52t62.5 138z
M260 -122q0 -41 -34 -78t-81 -62l-9 13q62 49 80 91q-18 3 -29 15t-11 29t12 29t29 12q16 0 29.5 -13.5t13.5 -35.5z" />
    <glyph glyph-name="rcommaaccent" unicode="&#x157;" horiz-adv-x="266" 
d="M73 -122q0 -41 -34 -78t-81 -62l-9 13q62 49 80 91q-18 3 -29 15t-11 29t12 29t29 12q16 0 29.5 -13.5t13.5 -35.5zM282 427l-10 -55h-1q-44 -1 -75 -21t-63 -66l-56 -285h-56l82 418h53l-15 -79q25 40 62 64t79 24z" />
    <glyph glyph-name="Rcaron" unicode="&#x158;" horiz-adv-x="581" 
d="M571 537q0 -87 -55.5 -150.5t-155.5 -84.5l153 -302h-67l-144 294q-10 -1 -32 -1q-39 0 -111 7l-58 -300h-57l142 728q77 10 136 10q118 0 183.5 -56.5t65.5 -144.5zM513 533q0 69 -48.5 111.5t-141.5 42.5q-49 0 -89 -6l-65 -331q65 -7 107 -7q112 0 174.5 52t62.5 138z
M558 953l-150 -149h-30l-92 149h56l60 -97l95 97h61z" />
    <glyph glyph-name="rcaron" unicode="&#x159;" horiz-adv-x="266" 
d="M372 633l-150 -149h-30l-92 149h56l60 -97l95 97h61zM283 427l-10 -55h-1q-44 -1 -75 -21t-63 -66l-56 -285h-56l82 418h53l-15 -79q25 40 62 64t79 24z" />
    <glyph glyph-name="Sacute" unicode="&#x15a;" horiz-adv-x="502" 
d="M526 901l-196 -106l-15 31l183 128zM520 679l-31 -44q-69 57 -149 57q-73 0 -115.5 -41.5t-42.5 -103.5q0 -47 29 -78.5t94 -73.5q36 -24 54 -38t43 -39.5t36.5 -55t11.5 -65.5q0 -88 -61.5 -147.5t-164.5 -59.5q-120 0 -221 86l32 44q93 -78 189 -78q78 0 123.5 41
t45.5 108q0 27 -9.5 50.5t-31 44.5t-39.5 34.5t-51 35.5q-32 21 -51 36t-42 38.5t-33.5 50.5t-10.5 60q0 86 62 144.5t158 58.5q98 0 175 -65z" />
    <glyph glyph-name="sacute" unicode="&#x15b;" horiz-adv-x="351" 
d="M392 581l-196 -106l-15 31l183 128zM335 379l-31 -40q-48 41 -99 41q-40 0 -63.5 -21.5t-23.5 -49.5q0 -24 19.5 -40t58.5 -36q47 -25 70 -49t23 -62q0 -55 -41.5 -93t-104.5 -38q-80 0 -146 59l33 39q58 -51 117 -51q42 0 66.5 21.5t24.5 54.5q0 26 -19.5 43t-60.5 38
q-30 15 -46 26.5t-30 32.5t-14 48q0 51 41 87.5t104 36.5q68 0 122 -47z" />
    <glyph glyph-name="Scedilla" unicode="&#x15e;" horiz-adv-x="502" 
d="M295 -142q0 -41 -32.5 -68t-82.5 -27q-52 0 -103 34l24 36q41 -29 82 -29q28 0 46 13.5t18 37.5q0 20 -21.5 35.5t-68.5 20.5l-2 6l35 75q-104 12 -187 84l32 44q93 -78 189 -78q78 0 123.5 41t45.5 108q0 27 -9.5 50.5t-31 44.5t-39.5 34.5t-51 35.5q-32 21 -51 36
t-42 38.5t-33.5 50.5t-10.5 60q0 86 62 144.5t158 58.5q98 0 175 -65l-31 -44q-69 57 -149 57q-73 0 -115.5 -41.5t-42.5 -103.5q0 -47 29 -78.5t94 -73.5q36 -24 54 -38t43 -39.5t36.5 -55t11.5 -65.5q0 -87 -59 -146t-160 -61l-22 -50q86 -23 86 -82z" />
    <glyph glyph-name="scedilla" unicode="&#x15f;" horiz-adv-x="351" 
d="M214 -142q0 -41 -32.5 -68t-82.5 -27q-52 0 -103 34l24 36q41 -29 82 -29q28 0 46 13.5t18 37.5q0 20 -21.5 35.5t-68.5 20.5l-2 6l36 77q-63 9 -114 56l33 39q58 -51 117 -51q42 0 66.5 21.5t24.5 54.5q0 26 -19.5 43t-60.5 38q-30 15 -46 26.5t-30 32.5t-14 48
q0 51 41 87.5t104 36.5q68 0 122 -47l-31 -40q-48 41 -99 41q-40 0 -63.5 -21.5t-23.5 -49.5q0 -24 19.5 -40t58.5 -36q47 -25 70 -49t23 -62q0 -53 -39 -90.5t-98 -40.5l-23 -51q86 -23 86 -82z" />
    <glyph glyph-name="Scaron" unicode="&#x160;" horiz-adv-x="502" 
d="M524 953l-150 -149h-30l-92 149h56l60 -97l95 97h61zM520 679l-31 -44q-69 57 -149 57q-73 0 -115.5 -41.5t-42.5 -103.5q0 -47 29 -78.5t94 -73.5q36 -24 54 -38t43 -39.5t36.5 -55t11.5 -65.5q0 -88 -61.5 -147.5t-164.5 -59.5q-120 0 -221 86l32 44q93 -78 189 -78
q78 0 123.5 41t45.5 108q0 27 -9.5 50.5t-31 44.5t-39.5 34.5t-51 35.5q-32 21 -51 36t-42 38.5t-33.5 50.5t-10.5 60q0 86 62 144.5t158 58.5q98 0 175 -65z" />
    <glyph glyph-name="scaron" unicode="&#x161;" horiz-adv-x="351" 
d="M390 633l-150 -149h-30l-92 149h56l60 -97l95 97h61zM335 379l-31 -40q-48 41 -99 41q-40 0 -63.5 -21.5t-23.5 -49.5q0 -24 19.5 -40t58.5 -36q47 -25 70 -49t23 -62q0 -55 -41.5 -93t-104.5 -38q-80 0 -146 59l33 39q58 -51 117 -51q42 0 66.5 21.5t24.5 54.5
q0 26 -19.5 43t-60.5 38q-30 15 -46 26.5t-30 32.5t-14 48q0 51 41 87.5t104 36.5q68 0 122 -47z" />
    <glyph glyph-name="Tcommaaccent" unicode="&#x162;" horiz-adv-x="578" 
d="M271 -122q0 -41 -34 -78t-81 -62l-9 13q62 49 80 91q-18 3 -29 15t-11 29t12 29t29 12q16 0 29.5 -13.5t13.5 -35.5zM656 733l-10 -52h-241l-132 -681h-56l132 681h-239l10 52h536z" />
    <glyph glyph-name="tcommaaccent" unicode="&#x163;" horiz-adv-x="293" 
d="M159 -122q0 -41 -34 -78t-81 -62l-9 13q62 49 80 91q-18 3 -29 15t-11 29t12 29t29 12q16 0 29.5 -13.5t13.5 -35.5zM309 418l-9 -49h-128l-49 -253q-3 -14 -3 -29q0 -46 70 -46q20 0 40 3l-8 -47q-28 -5 -48 -5q-109 0 -109 86q0 16 5 42l48 249h-75l2 11l83 42l19 96
l59 27l-25 -127h128z" />
    <glyph glyph-name="Tcaron" unicode="&#x164;" horiz-adv-x="578" 
d="M569 953l-150 -149h-30l-92 149h56l60 -97l95 97h61zM656 733l-10 -52h-241l-132 -681h-56l132 681h-239l10 52h536z" />
    <glyph glyph-name="tcaron" unicode="&#x165;" horiz-adv-x="293" 
d="M329 674l55 -9q-22 -120 -125 -184l-24 23q74 62 94 170zM309 418l-9 -49h-128l-49 -253q-3 -14 -3 -29q0 -46 70 -46q20 0 40 3l-8 -47q-28 -5 -48 -5q-109 0 -109 86q0 16 5 42l48 249h-75l2 11l83 42l19 96l59 27l-25 -127h128z" />
    <glyph glyph-name="Umacron" unicode="&#x16a;" horiz-adv-x="695" 
d="M716 733l-95 -486q-50 -257 -295 -257q-110 0 -173.5 61t-63.5 166q0 31 9 80l84 436h57l-86 -445q-8 -38 -8 -69q0 -83 50 -130.5t141 -47.5q95 0 152 52t78 164l93 476h57zM612 868l-9 -48h-279l10 48h278z" />
    <glyph glyph-name="umacron" unicode="&#x16b;" horiz-adv-x="457" 
d="M435 418l-81 -418h-54l14 70q-87 -78 -166 -78q-52 0 -79 30t-27 79q0 21 5 49l53 268h56l-52 -264q-5 -21 -5 -41q0 -73 73 -73q66 0 149 78l58 300h56zM437 561l-9 -48h-279l10 48h278z" />
    <glyph glyph-name="Ubreve" unicode="&#x16c;" horiz-adv-x="695" 
d="M716 733l-95 -486q-50 -257 -295 -257q-110 0 -173.5 61t-63.5 166q0 31 9 80l84 436h57l-86 -445q-8 -38 -8 -69q0 -83 50 -130.5t141 -47.5q95 0 152 52t78 164l93 476h57zM612 920q-11 -60 -48 -96.5t-97 -36.5q-54 0 -86 28.5t-32 75.5q0 19 2 29l48 4q-2 -8 -2 -26
q0 -34 20.5 -51.5t53.5 -17.5q37 0 61 25t32 70z" />
    <glyph glyph-name="ubreve" unicode="&#x16d;" horiz-adv-x="457" 
d="M435 418l-81 -418h-54l14 70q-87 -78 -166 -78q-52 0 -79 30t-27 79q0 21 5 49l53 268h56l-52 -264q-5 -21 -5 -41q0 -73 73 -73q66 0 149 78l58 300h56zM438 613q-11 -60 -48 -96.5t-97 -36.5q-54 0 -86 28.5t-32 75.5q0 19 2 29l48 4q-2 -8 -2 -26q0 -34 20.5 -51.5
t53.5 -17.5q37 0 61 25t32 70z" />
    <glyph glyph-name="Uring" unicode="&#x16e;" horiz-adv-x="695" 
d="M577 907q0 -46 -32.5 -82t-79.5 -36q-37 0 -61.5 24.5t-24.5 61.5q0 46 32.5 81.5t79.5 35.5q37 0 61.5 -24t24.5 -61zM536 903q0 26 -14 41t-35 15q-26 0 -46.5 -24t-20.5 -57q0 -26 13.5 -40.5t34.5 -14.5q27 0 47.5 23.5t20.5 56.5zM716 733l-95 -486
q-50 -257 -295 -257q-110 0 -173.5 61t-63.5 166q0 31 9 80l84 436h57l-86 -445q-8 -38 -8 -69q0 -83 50 -130.5t141 -47.5q95 0 152 52t78 164l93 476h57z" />
    <glyph glyph-name="uring" unicode="&#x16f;" horiz-adv-x="457" 
d="M402 600q0 -46 -32.5 -82t-79.5 -36q-37 0 -61.5 24.5t-24.5 61.5q0 46 32.5 81.5t79.5 35.5q37 0 61.5 -24t24.5 -61zM361 596q0 26 -14 41t-35 15q-26 0 -46.5 -24t-20.5 -57q0 -26 13.5 -40.5t34.5 -14.5q27 0 47.5 23.5t20.5 56.5zM435 418l-81 -418h-54l14 70
q-87 -78 -166 -78q-52 0 -79 30t-27 79q0 21 5 49l53 268h56l-52 -264q-5 -21 -5 -41q0 -73 73 -73q66 0 149 78l58 300h56z" />
    <glyph glyph-name="Uhungarumlaut" unicode="&#x170;" horiz-adv-x="695" 
d="M716 733l-95 -486q-50 -257 -295 -257q-110 0 -173.5 61t-63.5 166q0 31 9 80l84 436h57l-86 -445q-8 -38 -8 -69q0 -83 50 -130.5t141 -47.5q95 0 152 52t78 164l93 476h57zM533 946l-142 -155l-25 20l122 168zM670 940l-140 -152l-25 19l120 165z" />
    <glyph glyph-name="uhungarumlaut" unicode="&#x171;" horiz-adv-x="457" 
d="M435 418l-81 -418h-54l14 70q-87 -78 -166 -78q-52 0 -79 30t-27 79q0 21 5 49l53 268h56l-52 -264q-5 -21 -5 -41q0 -73 73 -73q66 0 149 78l58 300h56zM358 639l-142 -155l-25 20l122 168zM495 633l-140 -152l-25 19l120 165z" />
    <glyph glyph-name="Uogonek" unicode="&#x172;" horiz-adv-x="695" 
d="M716 733l-95 -486q-48 -244 -272 -256q-23 -20 -33 -29t-29 -29.5t-27.5 -38.5t-8.5 -35q0 -37 32 -37q26 0 60 34l23 -26q-47 -49 -97 -49q-31 -1 -48.5 16.5t-17.5 47.5q0 66 93 147q-97 8 -152 67.5t-55 157.5q0 31 9 80l84 436h57l-86 -445q-8 -38 -8 -69
q0 -83 50 -130.5t141 -47.5q95 0 152 52t78 164l93 476h57z" />
    <glyph glyph-name="uogonek" unicode="&#x173;" horiz-adv-x="457" 
d="M435 418l-81 -418h-6q-2 -2 -14.5 -12.5t-18 -15.5t-17.5 -16t-18.5 -18t-15.5 -18.5t-13.5 -20.5t-8 -20t-3.5 -21q0 -36 31 -36q25 0 61 34l22 -26q-46 -49 -96 -49q-31 -1 -49 16.5t-18 47.5q0 70 111 161l13 64q-87 -78 -166 -78q-52 0 -79 30t-27 79q0 21 5 49
l53 268h56l-52 -264q-5 -21 -5 -41q0 -73 73 -73q66 0 149 78l58 300h56z" />
    <glyph glyph-name="Wcircumflex" unicode="&#x174;" horiz-adv-x="944" 
d="M716 805h-55l-60 97l-96 -97h-61l150 149h31zM1010 733l-337 -743l-15 -2l-111 628l-349 -628l-16 2l-47 743h56l35 -600l337 604h12l109 -609l264 605h62z" />
    <glyph glyph-name="wcircumflex" unicode="&#x175;" horiz-adv-x="610" 
d="M496 485h-55l-60 97l-96 -97h-61l150 149h31zM630 418l-221 -430h-10l-71 323l-197 -323h-10l-58 430h55l34 -317l190 317h10l67 -317l153 317h58z" />
    <glyph glyph-name="Ycircumflex" unicode="&#x176;" horiz-adv-x="590" 
d="M676 733l-328 -406l-64 -327h-56l64 329l-175 404h57l154 -357l283 357h65zM544 792h-55l-60 97l-96 -97h-61l150 149h31z" />
    <glyph glyph-name="ycircumflex" unicode="&#x177;" horiz-adv-x="420" 
d="M452 418l-414 -634h-58l166 251l-96 383h55l78 -332l208 332h61zM394 485h-55l-60 97l-96 -97h-61l150 149h31z" />
    <glyph glyph-name="Ydieresis" unicode="&#x178;" horiz-adv-x="590" 
d="M676 733l-328 -406l-64 -327h-56l64 329l-175 404h57l154 -357l283 357h65zM376 848q0 -17 -12 -28.5t-29 -11.5t-28.5 12t-11.5 28q0 17 11.5 29t28.5 12t29 -12t12 -29zM546 848q0 -16 -12 -28t-28 -12t-28 12t-12 28q0 17 11.5 29t28.5 12t28.5 -12t11.5 -29z" />
    <glyph glyph-name="Zacute" unicode="&#x179;" horiz-adv-x="621" 
d="M592 901l-196 -106l-15 31l183 128zM671 723l-565 -672h430l-10 -51h-516l-2 10l565 673h-409l9 50h495z" />
    <glyph glyph-name="zacute" unicode="&#x17a;" horiz-adv-x="395" 
d="M415 581l-196 -106l-15 31l183 128zM412 408l-343 -361h267l-9 -47h-350l-2 9l344 362h-253l9 47h336z" />
    <glyph glyph-name="Zdotaccent" unicode="&#x17b;" horiz-adv-x="621" 
d="M671 723l-565 -672h430l-10 -51h-516l-2 10l565 673h-409l9 50h495zM476 861q0 -17 -12 -28.5t-29 -11.5t-28.5 11.5t-11.5 28.5t11.5 29t28.5 12t29 -12t12 -29z" />
    <glyph glyph-name="zdotaccent" unicode="&#x17c;" horiz-adv-x="395" 
d="M412 408l-343 -361h267l-9 -47h-350l-2 9l344 362h-253l9 47h336zM299 541q0 -17 -12 -28.5t-29 -11.5q-16 0 -28 11.5t-12 28.5t11.5 29t28.5 12t29 -12t12 -29z" />
    <glyph glyph-name="Zcaron" unicode="&#x17d;" horiz-adv-x="621" 
d="M590 953l-150 -149h-30l-92 149h56l60 -97l95 97h61zM671 723l-565 -672h430l-10 -51h-516l-2 10l565 673h-409l9 50h495z" />
    <glyph glyph-name="zcaron" unicode="&#x17e;" horiz-adv-x="395" 
d="M414 633l-150 -149h-30l-92 149h56l60 -97l95 97h61zM412 408l-343 -361h267l-9 -47h-350l-2 9l344 362h-253l9 47h336z" />
    <glyph glyph-name="florin" unicode="&#x192;" horiz-adv-x="371" 
d="M425 573l-21 -50q-26 11 -54 11q-43 0 -70 -30t-49 -101l-21 -67h91l-10 -48h-96l-89 -288h-56l89 288h-58l1 12l72 37l19 63q30 98 73 142t111 44q35 0 68 -13z" />
    <glyph glyph-name="Aringacute" unicode="&#x1fa;" horiz-adv-x="655" 
d="M652 1067l-196 -106l-15 31l183 128zM542 827q0 -43 -29 -78t-72 -39l160 -710h-59l-47 225h-332l-136 -225h-60l437 713q-27 8 -43.5 30t-16.5 52q0 46 32.5 81.5t79.5 35.5q37 0 61.5 -24t24.5 -61zM484 272l-75 358l-217 -358h292zM501 823q0 26 -13.5 41t-34.5 15
q-27 0 -47.5 -24t-20.5 -57q0 -26 13.5 -40.5t35.5 -14.5q27 0 47 23.5t20 56.5z" />
    <glyph glyph-name="aringacute" unicode="&#x1fb;" horiz-adv-x="422" 
d="M378 299q0 -19 -6 -55l-49 -244h-53l9 45q-59 -53 -131 -53q-52 0 -89 32.5t-37 87.5q0 60 47 101t124 41q66 0 118 -33l6 33q5 28 5 38q0 38 -27 61t-73 23q-50 0 -107 -20l-6 50q64 20 120 20q67 0 108 -32.5t41 -94.5zM302 176q-41 34 -111 34q-51 0 -83.5 -27
t-32.5 -67q0 -37 23 -58t63 -21q65 0 125 58zM491 840l-196 -106l-15 31l183 128zM382 600q0 -46 -32.5 -82t-79.5 -36q-37 0 -61.5 24.5t-24.5 61.5q0 46 32.5 81.5t79.5 35.5q37 0 61.5 -24t24.5 -61zM341 596q0 26 -14 41t-35 15q-26 0 -46.5 -24t-20.5 -57
q0 -26 13.5 -40.5t34.5 -14.5q27 0 47.5 23.5t20.5 56.5z" />
    <glyph glyph-name="AEacute" unicode="&#x1fc;" horiz-adv-x="990" 
d="M1031 733l-10 -50h-348l-56 -286h314l-10 -50h-313l-58 -296h349l-10 -51h-405l47 241h-282l-217 -241h-65l659 733h405zM540 289l69 353l-318 -353h249zM902 901l-196 -106l-15 31l183 128z" />
    <glyph glyph-name="aeacute" unicode="&#x1fd;" horiz-adv-x="713" 
d="M156 -8q-58 0 -96 32t-38 88q0 60 47 101t124 41q69 0 118 -33l7 36q4 17 4 35q0 40 -27 62t-73 22q-55 0 -107 -20l-7 48q61 22 121 22q52 0 88 -22.5t48 -64.5q65 86 168 86q76 0 114.5 -47.5t37.5 -114.5q0 -32 -9 -61h-315q-2 -18 -2 -27q0 -65 35.5 -100t102.5 -35
q49 0 104 20q1 -3 1.5 -8t2.5 -15t3 -17l2 -6q-53 -22 -119 -22q-136 0 -172 107q-23 -49 -67 -78t-96 -29zM163 37q49 0 87.5 37.5t52.5 101.5q-45 34 -112 34q-51 0 -83.5 -27t-32.5 -67q0 -37 23.5 -58t64.5 -21zM371 246h259q2 8 2 23q0 45 -25.5 77t-78.5 32
q-55 0 -97 -37t-60 -95zM567 581l-196 -106l-15 31l183 128z" />
    <glyph glyph-name="Oslashacute" unicode="&#x1fe;" horiz-adv-x="830" 
d="M804 411q0 -105 -48 -200.5t-141 -158t-210 -62.5q-136 0 -226 87l-87 -83l-31 36l86 84q-64 86 -64 209q0 105 48 200.5t141 158t210 62.5q135 0 226 -88l87 84l31 -36q-52 -50 -87 -84q65 -87 65 -209zM747 412q0 95 -48 169q-35 -34 -233 -225.5t-248 -240.5
q72 -74 188 -74q146 0 243.5 108.5t97.5 262.5zM140 322q0 -97 47 -169l482 465q-74 74 -188 74q-146 0 -243.5 -108.5t-97.5 -261.5zM696 901l-196 -106l-15 31l183 128z" />
    <glyph glyph-name="oslashacute" unicode="&#x1ff;" horiz-adv-x="464" 
d="M427 248q0 -113 -78 -193q-63 -63 -147 -63q-82 0 -129 58l-69 -59l-27 32l75 63q-17 37 -17 84q0 113 78 193q63 63 147 63q81 0 127 -57l70 58l27 -31l-75 -63q18 -36 18 -85zM373 245q0 27 -8 51l-251 -212q31 -44 91 -44q58 0 105 47q63 61 63 158zM89 173
q0 -29 7 -50l251 211q-33 44 -91 44q-56 0 -105 -47q-62 -60 -62 -158zM453 581l-196 -106l-15 31l183 128z" />
    <glyph glyph-name="Scommaaccent" unicode="&#x218;" horiz-adv-x="502" 
d="M226 -122q0 -41 -34 -78t-81 -62l-9 13q62 49 80 91q-18 3 -29 15t-11 29t12 29t29 12q16 0 29.5 -13.5t13.5 -35.5zM520 679l-31 -44q-69 57 -149 57q-73 0 -115.5 -41.5t-42.5 -103.5q0 -47 29 -78.5t94 -73.5q36 -24 54 -38t43 -39.5t36.5 -55t11.5 -65.5
q0 -88 -61.5 -147.5t-164.5 -59.5q-120 0 -221 86l32 44q93 -78 189 -78q78 0 123.5 41t45.5 108q0 27 -9.5 50.5t-31 44.5t-39.5 34.5t-51 35.5q-32 21 -51 36t-42 38.5t-33.5 50.5t-10.5 60q0 86 62 144.5t158 58.5q98 0 175 -65z" />
    <glyph glyph-name="scommaaccent" unicode="&#x219;" horiz-adv-x="351" 
d="M155 -122q0 -41 -34 -78t-81 -62l-9 13q62 49 80 91q-18 3 -29 15t-11 29t12 29t29 12q16 0 29.5 -13.5t13.5 -35.5zM335 379l-31 -40q-48 41 -99 41q-40 0 -63.5 -21.5t-23.5 -49.5q0 -24 19.5 -40t58.5 -36q47 -25 70 -49t23 -62q0 -55 -41.5 -93t-104.5 -38
q-80 0 -146 59l33 39q58 -51 117 -51q42 0 66.5 21.5t24.5 54.5q0 26 -19.5 43t-60.5 38q-30 15 -46 26.5t-30 32.5t-14 48q0 51 41 87.5t104 36.5q68 0 122 -47z" />
    <glyph glyph-name="schwa" unicode="&#x259;" horiz-adv-x="438" 
d="M217 425q87 0 136 -46.5t49 -129.5q0 -98 -66 -178t-161 -80q-70 0 -108.5 45.5t-38.5 113.5q0 32 9 65h310q2 18 2 29q0 63 -36 98t-102 35q-49 0 -104 -20q-1 3 -1.5 8t-2.5 15t-3 16l-2 7q53 22 119 22zM336 171h-253q-2 -8 -2 -27q0 -46 25 -75.5t73 -29.5
q51 0 94.5 37.5t62.5 94.5z" />
    <glyph glyph-name="circumflex" unicode="&#x2c6;" 
d="M410 485h-55l-60 97l-96 -97h-61l150 149h31z" />
    <glyph glyph-name="caron" unicode="&#x2c7;" 
d="M434 633l-150 -149h-30l-92 149h56l60 -97l95 97h61z" />
    <glyph glyph-name="breve" unicode="&#x2d8;" 
d="M424 613q-11 -60 -48 -96.5t-97 -36.5q-54 0 -86 28.5t-32 75.5q0 19 2 29l48 4q-2 -8 -2 -26q0 -34 20.5 -51.5t53.5 -17.5q37 0 61 25t32 70z" />
    <glyph glyph-name="dotaccent" unicode="&#x2d9;" 
d="M326 541q0 -17 -12 -28.5t-29 -11.5t-28.5 11.5t-11.5 28.5t11.5 29t28.5 12t29 -12t12 -29z" />
    <glyph glyph-name="ring" unicode="&#x2da;" 
d="M387 600q0 -46 -32.5 -82t-79.5 -36q-37 0 -61.5 24.5t-24.5 61.5q0 46 32.5 81.5t79.5 35.5q37 0 61.5 -24t24.5 -61zM346 596q0 26 -14 41t-35 15q-26 0 -46.5 -24t-20.5 -57q0 -26 13.5 -40.5t34.5 -14.5q27 0 47.5 23.5t20.5 56.5z" />
    <glyph glyph-name="ogonek" unicode="&#x2db;" 
d="M269 -170q-46 -49 -96 -49q-31 -1 -49 16.5t-18 47.5q0 47 37 89.5t107 97.5l17 -29q-3 -3 -24 -21t-31.5 -28.5t-26 -28.5t-23 -34.5t-7.5 -32.5q0 -36 31 -36q25 0 61 34z" />
    <glyph glyph-name="tilde" unicode="&#x2dc;" 
d="M439 559q-54 -61 -104 -61q-26 0 -59 25q-32 24 -52 24q-28 0 -67 -42l-26 30q51 57 100 57q26 0 60 -26q33 -23 52 -23q17 0 31 9.5t39 35.5z" />
    <glyph glyph-name="hungarumlaut" unicode="&#x2dd;" 
d="M312 639l-142 -155l-25 20l122 168zM449 633l-140 -152l-25 19l120 165z" />
    <glyph glyph-name="commaaccent" unicode="&#x326;" horiz-adv-x="217" 
d="M166 -122q0 -41 -34 -78t-81 -62l-9 13q62 49 80 91q-18 3 -29 15t-11 29t12 29t29 12q16 0 29.5 -13.5t13.5 -35.5z" />
    <glyph glyph-name="Wgrave" unicode="&#x1e80;" horiz-adv-x="944" 
d="M1010 733l-337 -743l-15 -2l-111 628l-349 -628l-16 2l-47 743h56l35 -600l337 604h12l109 -609l264 605h62zM622 825l-22 -30l-182 111l35 48z" />
    <glyph glyph-name="wgrave" unicode="&#x1e81;" horiz-adv-x="610" 
d="M630 418l-221 -430h-10l-71 323l-197 -323h-10l-58 430h55l34 -317l190 317h10l67 -317l153 317h58zM402 505l-22 -30l-182 111l35 48z" />
    <glyph glyph-name="Wacute" unicode="&#x1e82;" horiz-adv-x="944" 
d="M750 901l-196 -106l-15 31l183 128zM1010 733l-337 -743l-15 -2l-111 628l-349 -628l-16 2l-47 743h56l35 -600l337 604h12l109 -609l264 605h62z" />
    <glyph glyph-name="wacute" unicode="&#x1e83;" horiz-adv-x="610" 
d="M531 581l-196 -106l-15 31l183 128zM630 418l-221 -430h-10l-71 323l-197 -323h-10l-58 430h55l34 -317l190 317h10l67 -317l153 317h58z" />
    <glyph glyph-name="Wdieresis" unicode="&#x1e84;" horiz-adv-x="944" 
d="M549 861q0 -17 -12 -28.5t-29 -11.5q-16 0 -28 11.5t-12 28.5t11.5 29t28.5 12t29 -12t12 -29zM719 861q0 -17 -11.5 -28.5t-28.5 -11.5t-28.5 11.5t-11.5 28.5t11.5 29t28.5 12t28.5 -12t11.5 -29zM1010 733l-337 -743l-15 -2l-111 628l-349 -628l-16 2l-47 743h56
l35 -600l337 604h12l109 -609l264 605h62z" />
    <glyph glyph-name="wdieresis" unicode="&#x1e85;" horiz-adv-x="610" 
d="M329 541q0 -17 -12 -28.5t-29 -11.5q-16 0 -28 11.5t-12 28.5t11.5 29t28.5 12t29 -12t12 -29zM499 541q0 -17 -11.5 -28.5t-28.5 -11.5t-28.5 11.5t-11.5 28.5t11.5 29t28.5 12t28.5 -12t11.5 -29zM630 418l-221 -430h-10l-71 323l-197 -323h-10l-58 430h55l34 -317
l190 317h10l67 -317l153 317h58z" />
    <glyph glyph-name="Ygrave" unicode="&#x1ef2;" horiz-adv-x="590" 
d="M676 733l-328 -406l-64 -327h-56l64 329l-175 404h57l154 -357l283 357h65zM450 812l-22 -30l-182 111l35 48z" />
    <glyph glyph-name="ygrave" unicode="&#x1ef3;" horiz-adv-x="420" 
d="M452 418l-414 -634h-58l166 251l-96 383h55l78 -332l208 332h61zM301 505l-22 -30l-182 111l35 48z" />
    <glyph glyph-name="enspace" unicode="&#x2002;" horiz-adv-x="500" 
 />
    <glyph glyph-name="emspace" unicode="&#x2003;" horiz-adv-x="1000" 
 />
    <glyph glyph-name="threeperemspace" unicode="&#x2004;" horiz-adv-x="333" 
 />
    <glyph glyph-name="fourperemspace" unicode="&#x2005;" horiz-adv-x="250" 
 />
    <glyph glyph-name="figurespace" unicode="&#x2007;" horiz-adv-x="520" 
 />
    <glyph glyph-name="thinspace" unicode="&#x2009;" horiz-adv-x="133" 
 />
    <glyph glyph-name="hairspace" unicode="&#x200a;" horiz-adv-x="75" 
 />
    <glyph glyph-name="endash" unicode="&#x2013;" horiz-adv-x="486" 
d="M447 267l-9 -49h-386l10 49h385z" />
    <glyph glyph-name="emdash" unicode="&#x2014;" horiz-adv-x="736" 
d="M697 267l-9 -49h-636l10 49h635z" />
    <glyph glyph-name="quoteleft" unicode="&#x2018;" horiz-adv-x="158" 
d="M194 604q0 -17 -12 -29t-29 -12t-30 13.5t-13 35.5q0 40 33.5 77t81.5 63l9 -13q-62 -49 -80 -92q17 -2 28.5 -14t11.5 -29z" />
    <glyph glyph-name="quoteright" unicode="&#x2019;" horiz-adv-x="158" 
d="M218 695q0 -41 -34 -77.5t-82 -62.5l-9 13q61 46 81 91q-41 7 -41 44q0 17 12 29t29 12q16 0 30 -13.5t14 -35.5z" />
    <glyph glyph-name="quotesinglbase" unicode="&#x201a;" horiz-adv-x="158" 
d="M88 28q0 -41 -34 -77.5t-82 -63.5l-9 13q61 47 81 92q-18 2 -29.5 14.5t-11.5 29.5t12 29t29 12q16 0 30 -13.5t14 -35.5z" />
    <glyph glyph-name="quotedblleft" unicode="&#x201c;" horiz-adv-x="286" 
d="M327 604q0 -17 -12 -29t-29 -12q-16 0 -29.5 13.5t-13.5 35.5q0 40 33.5 77t81.5 63l9 -13q-62 -49 -80 -92q17 -2 28.5 -14t11.5 -29zM194 604q0 -17 -12 -29t-29 -12t-30 13.5t-13 35.5q0 40 33.5 77t81.5 63l9 -13q-62 -49 -80 -92q17 -2 28.5 -14t11.5 -29z" />
    <glyph glyph-name="quotedblright" unicode="&#x201d;" horiz-adv-x="291" 
d="M351 695q0 -41 -34 -77.5t-82 -62.5l-9 13q61 46 81 91q-41 7 -41 44q0 17 12 29t29 12q16 0 30 -13.5t14 -35.5zM218 695q0 -41 -34 -77.5t-82 -62.5l-9 13q61 46 81 91q-41 7 -41 44q0 17 12 29t29 12q16 0 30 -13.5t14 -35.5z" />
    <glyph glyph-name="quotedblbase" unicode="&#x201e;" horiz-adv-x="291" 
d="M221 28q0 -41 -34 -77.5t-82 -63.5l-9 13q61 47 81 92q-18 2 -29.5 14t-11.5 30q0 17 12 29t29 12q16 0 30 -13.5t14 -35.5zM88 28q0 -41 -34 -77.5t-82 -63.5l-9 13q61 47 81 92q-18 2 -29.5 14t-11.5 30q0 17 12 29t29 12q16 0 30 -13.5t14 -35.5z" />
    <glyph glyph-name="dagger" unicode="&#x2020;" horiz-adv-x="437" 
d="M463 551l-9 -49h-149l-67 -346h-54l67 346h-150l9 49h150l36 182h54l-36 -182h149z" />
    <glyph glyph-name="daggerdbl" unicode="&#x2021;" horiz-adv-x="437" 
d="M468 578l-9 -49h-149l-33 -169h152l-10 -48h-151l-30 -156h-54l30 156h-148l9 48h148l34 169h-151l9 49h151l30 155h54l-30 -155h148z" />
    <glyph glyph-name="bullet" unicode="&#x2022;" horiz-adv-x="351" 
d="M324 366q0 -49 -34 -84t-82 -35t-82 35t-34 84t34 84t82 35q49 0 82.5 -34.5t33.5 -84.5z" />
    <glyph glyph-name="ellipsis" unicode="&#x2026;" horiz-adv-x="603" 
d="M112 34q0 -17 -12.5 -29.5t-30.5 -12.5q-17 0 -29.5 12.5t-12.5 29.5q0 18 12.5 30.5t29.5 12.5q18 0 30.5 -12.5t12.5 -30.5zM312 34q0 -17 -12.5 -29.5t-30.5 -12.5q-17 0 -29.5 12.5t-12.5 29.5q0 18 12.5 30.5t29.5 12.5q18 0 30.5 -12.5t12.5 -30.5zM512 34
q0 -17 -12.5 -29.5t-30.5 -12.5q-17 0 -29.5 12.5t-12.5 29.5q0 18 12.5 30.5t29.5 12.5q18 0 30.5 -12.5t12.5 -30.5z" />
    <glyph glyph-name="perthousand" unicode="&#x2030;" horiz-adv-x="926" 
d="M340 468q0 -80 -51 -131q-38 -38 -90 -38q-50 0 -79.5 33.5t-29.5 84.5q0 81 51 132q37 37 90 37q50 0 79.5 -33.5t29.5 -84.5zM641 565l-579 -582l-29 30l579 581zM295 465q0 35 -17.5 58t-50.5 23q-31 0 -54 -24q-39 -37 -39 -102q0 -35 18 -57.5t50 -22.5q30 0 55 23
q38 40 38 102zM584 160q0 -80 -51 -131q-36 -38 -90 -38q-50 0 -79.5 33.5t-29.5 84.5q0 81 51 132q39 37 90 37q50 0 79.5 -33.5t29.5 -84.5zM540 157q0 35 -18 58t-50 23q-31 0 -55 -24q-38 -38 -38 -102q0 -35 17.5 -57.5t50.5 -22.5q31 0 54 23q39 39 39 102zM869 160
q0 -80 -51 -131q-38 -38 -90 -38q-50 0 -79.5 33.5t-29.5 84.5q0 81 51 132q37 37 90 37q50 0 79.5 -33.5t29.5 -84.5zM824 157q0 35 -18 58t-50 23t-54 -24q-39 -38 -39 -102q0 -35 18 -57.5t50 -22.5q30 0 55 23q38 40 38 102z" />
    <glyph glyph-name="guilsinglleft" unicode="&#x2039;" horiz-adv-x="257" 
d="M237 336l-140 -166l76 -161h-58l-73 165l137 162h58z" />
    <glyph glyph-name="guilsinglright" unicode="&#x203a;" horiz-adv-x="257" 
d="M201 171l-137 -162h-58l140 167l-76 160h58z" />
    <glyph glyph-name="fraction" unicode="&#x2044;" horiz-adv-x="550" 
d="M607 563l-595 -580l-29 29l594 580z" />
    <glyph glyph-name="Euro" unicode="&#x20ac;" horiz-adv-x="631" 
d="M39 243h71v4q0 45 10 84h-64l9 49h71q39 93 121.5 149.5t183.5 56.5q105 0 184 -64l-29 -42q-69 57 -164 57q-79 0 -142 -43t-96 -114h312l-9 -49h-321q-11 -42 -11 -82v-6h315l-10 -47h-300q16 -72 71 -114t132 -42q80 0 162 50l19 -44q-95 -55 -189 -55t-164 56
t-87 149h-84z" />
    <glyph glyph-name="published" unicode="&#x2117;" horiz-adv-x="842" 
d="M612 452q0 -65 -49 -106.5t-122 -41.5q-18 0 -44 2l-24 -123h-48l72 367q48 5 84 5q63 0 97 -29t34 -74zM563 445q0 30 -22 48.5t-63 18.5q-20 0 -42 -3l-31 -161q18 -3 37 -3q53 0 87 27.5t34 72.5zM786 415q0 130 -81 211.5t-208 81.5q-158 0 -263.5 -114t-105.5 -275
q0 -130 81.5 -212t207.5 -82q157 0 263 115t106 275zM829 414q0 -111 -51.5 -208.5t-148 -158t-214.5 -60.5q-146 0 -238 93.5t-92 238.5q0 173 118 300t296 127q146 0 238 -93t92 -239z" />
    <glyph glyph-name="servicemark" unicode="&#x2120;" horiz-adv-x="486" 
d="M169 512q-40 0 -72 25l19 29q29 -22 54 -22q17 0 26.5 8.5t9.5 20.5q0 4 -1 7.5t-3 7t-3.5 6t-6 5.5t-6.5 5t-8 5.5t-8 5.5q-39 26 -39 57q0 28 19.5 46.5t51.5 18.5q38 0 61 -21l-18 -29q-20 18 -45 18q-15 0 -24 -7.5t-9 -19.5q0 -5 1.5 -9t3 -6.5t6 -6.5t6.5 -5.5
t8.5 -6t9.5 -6.5q42 -26 42 -59q0 -28 -19.5 -47.5t-55.5 -19.5zM494 515h-35l24 135l-91 -107h-4l-50 107l-28 -135h-36l53 221h5l67 -143l123 143h6z" />
    <glyph glyph-name="trademark" unicode="&#x2122;" horiz-adv-x="486" 
d="M494 515h-35l24 135l-91 -107h-4l-50 107l-28 -135h-36l53 221h5l67 -143l123 143h6zM262 700h-69l-36 -185h-36l36 185h-69l7 33h174z" />
    <glyph glyph-name="arrowleft" unicode="&#x2190;" horiz-adv-x="711" 
d="M665 218l-539 1l189 -185l-35 -35l-241 239l2 9l334 239l25 -40l-255 -180l529 1z" />
    <glyph glyph-name="arrowright" unicode="&#x2192;" horiz-adv-x="711" 
d="M59 267l539 -1l-188 185l35 35l241 -239l-2 -9l-334 -239l-26 40l256 180l-530 -1z" />
    <glyph glyph-name="minus" unicode="&#x2212;" 
d="M60 257l9 49h340l-10 -49h-339z" />
    <glyph glyph-name="G.alt" horiz-adv-x="796" 
d="M789 345q-25 -163 -124.5 -259t-249.5 -96q-141 0 -236.5 92t-95.5 234q0 117 58 216t154 155.5t205 56.5q70 0 133.5 -22t105.5 -54l-29 -46q-92 70 -217 70q-147 0 -250 -110.5t-103 -264.5q0 -121 78.5 -198.5t205.5 -77.5q108 0 191 69t108 185h-305l10 50h361z" />
    <glyph glyph-name="M.alt" horiz-adv-x="837" 
d="M841 742l-120 -742h-57l104 597l-347 -417h-10l-189 428l-130 -608h-57l169 742l13 2l211 -487l398 487z" />
    <glyph glyph-name="Gbreve.alt" horiz-adv-x="796" 
d="M789 345q-25 -163 -124.5 -259t-249.5 -96q-141 0 -236.5 92t-95.5 234q0 117 58 216t154 155.5t205 56.5q70 0 133.5 -22t105.5 -54l-29 -46q-92 70 -217 70q-147 0 -250 -110.5t-103 -264.5q0 -121 78.5 -198.5t205.5 -77.5q108 0 191 69t108 185h-305l10 50h361z
M669 933q-11 -60 -48 -96.5t-97 -36.5q-54 0 -86 28.5t-32 75.5q0 19 2 29l48 4q-2 -8 -2 -26q0 -34 20.5 -51.5t53.5 -17.5q37 0 61 25t32 70z" />
    <glyph glyph-name="Gcommaaccent.alt" horiz-adv-x="796" 
d="M789 345q-25 -163 -124.5 -259t-249.5 -96q-141 0 -236.5 92t-95.5 234q0 117 58 216t154 155.5t205 56.5q70 0 133.5 -22t105.5 -54l-29 -46q-92 70 -217 70q-147 0 -250 -110.5t-103 -264.5q0 -121 78.5 -198.5t205.5 -77.5q108 0 191 69t108 185h-305l10 50h361z
M426 -122q0 -41 -34 -78t-81 -62l-9 13q62 49 80 91q-18 3 -29 15t-11 29t12 29t29 12q16 0 29.5 -13.5t13.5 -35.5z" />
    <glyph glyph-name="Gdotaccent.alt" horiz-adv-x="781" 
d="M789 345q-25 -163 -124.5 -259t-249.5 -96q-141 0 -236.5 92t-95.5 234q0 117 58 216t154 155.5t205 56.5q70 0 133.5 -22t105.5 -54l-29 -46q-92 70 -217 70q-147 0 -250 -110.5t-103 -264.5q0 -121 78.5 -198.5t205.5 -77.5q108 0 191 69t108 185h-305l10 50h361z
M566 861q0 -17 -12 -28.5t-29 -11.5t-28.5 11.5t-11.5 28.5t11.5 29t28.5 12t29 -12t12 -29z" />
    <glyph glyph-name="zero.lin" horiz-adv-x="646" 
d="M571 453q0 115 -46 178t-130 63q-71 0 -131 -60q-58 -58 -92 -156t-34 -197q0 -115 46 -178t130 -63q71 0 131 60q58 58 92 156t34 197zM627 456q0 -113 -37 -217t-104 -171q-79 -79 -177 -79q-109 0 -168 80.5t-59 208.5q0 113 37.5 217t103.5 170q77 79 177 79
q109 0 168 -80t59 -208z" />
    <glyph glyph-name="one.lin" horiz-adv-x="385" 
d="M352 743l-144 -743h-55l131 670l-138 -48l-10 49l204 72h12z" />
    <glyph glyph-name="two.lin" horiz-adv-x="552" 
d="M531 560q0 -59 -29.5 -111.5t-96.5 -123.5q-76 -77 -292 -273h351l-9 -52h-449l-3 12q312 290 354 333q67 70 92 114.5t25 94.5q0 60 -42 98.5t-110 38.5q-82 0 -173 -59l-16 48q96 64 192 64q94 0 150 -53.5t56 -130.5z" />
    <glyph glyph-name="three.lin" horiz-adv-x="528" 
d="M572 733l4 -11l-339 -309q107 -7 172 -61t65 -139q0 -94 -74.5 -158.5t-185.5 -64.5q-104 0 -209 58l23 46q101 -55 187 -55q83 0 142.5 47.5t59.5 122.5t-60.5 119.5t-163.5 44.5q-19 0 -45 -2l-6 13l325 298h-337l9 51h433z" />
    <glyph glyph-name="four.lin" horiz-adv-x="591" 
d="M577 271l-9 -48h-126l-42 -223h-56l43 223h-364l3 15l494 504h24l-92 -471h125zM397 271l70 352l-344 -352h274z" />
    <glyph glyph-name="five.lin" horiz-adv-x="551" 
d="M551 733l-10 -51h-303l-53 -250q19 1 44 1q124 0 193 -56.5t69 -148.5q0 -102 -75 -170t-192 -68q-94 0 -193 51l22 46q96 -48 174 -48q87 0 147 51t60 131q0 81 -60.5 123.5t-161.5 42.5q-33 0 -85 -4l-3 7l72 343h355z" />
    <glyph glyph-name="six.lin" horiz-adv-x="592" 
d="M544 242q0 -107 -72.5 -179.5t-178.5 -72.5q-100 0 -160.5 67t-60.5 164q0 70 27.5 140t85 141t157 136.5t231.5 115.5l16 -49q-143 -50 -253.5 -132t-168.5 -182q62 65 164 65q92 0 152.5 -61.5t60.5 -152.5zM486 236q0 76 -49 124.5t-121 48.5q-87 0 -138 -56t-51 -138
q0 -75 48.5 -125.5t121.5 -50.5q81 0 135 56.5t54 140.5z" />
    <glyph glyph-name="seven.lin" horiz-adv-x="515" 
d="M587 733l-457 -733h-60l430 683h-387l10 50h464z" />
    <glyph glyph-name="eight.lin" horiz-adv-x="568" 
d="M276 -11q-93 0 -155.5 54.5t-62.5 136.5q0 74 46.5 130t119.5 74q-83 53 -83 147q0 89 66 151t157 62q86 0 143.5 -51.5t57.5 -131.5q0 -69 -42.5 -125t-111.5 -76q98 -53 98 -155q0 -91 -67.5 -153.5t-165.5 -62.5zM452 208q0 63 -47.5 103.5t-113.5 40.5
q-75 0 -124.5 -50t-49.5 -119q0 -64 46 -104.5t115 -40.5q74 0 124 49.5t50 120.5zM508 559q0 63 -42 99.5t-106 36.5q-71 0 -117 -48.5t-46 -116.5q0 -61 42 -99t106 -38q71 0 117 49t46 117z" />
    <glyph glyph-name="nine.lin" horiz-adv-x="584" 
d="M570 514q0 -68 -27 -138t-83 -142t-155.5 -138.5t-231.5 -115.5l-15 50q147 52 255.5 132.5t166.5 183.5q-30 -31 -74 -48t-88 -17q-90 0 -153 60t-63 155q0 107 70 177.5t175 70.5q101 0 162 -66.5t61 -163.5zM516 521q0 74 -48 123.5t-121 49.5q-81 0 -134.5 -55
t-53.5 -142q0 -74 47.5 -120.5t118.5 -46.5q86 0 138.5 55.5t52.5 135.5z" />
    <glyph glyph-name="fraction.lin" horiz-adv-x="684" 
d="M757 714l-741 -732l-36 35l742 731z" />
    <glyph glyph-name="ampersand.cap" horiz-adv-x="725" 
d="M709 294q-95 -105 -179 -174q52 -60 90 -97l-38 -37q-52 52 -94 103q-132 -96 -244 -96q-92 0 -146.5 50t-54.5 130q0 83 59 142.5t171 89.5q-34 76 -34 132q0 86 56.5 144.5t144.5 58.5q72 0 114.5 -42.5t42.5 -101.5q0 -155 -250 -221q51 -92 152 -219q81 66 174 173z
M458 124q-109 134 -165 239q-93 -25 -142 -72.5t-49 -113.5q0 -59 38 -96t111 -37q93 0 207 80zM328 417q213 55 213 177q0 43 -28.5 71.5t-73.5 28.5q-64 0 -104 -45t-40 -109q0 -57 33 -123z" />
    <glyph glyph-name="guillemotleft.cap" horiz-adv-x="402" 
d="M421 534l-140 -166l76 -161h-58l-73 165l137 162h58zM276 534l-140 -166l76 -161h-58l-73 165l137 162h58z" />
    <glyph glyph-name="guillemotright.cap" horiz-adv-x="402" 
d="M384 369l-137 -162h-58l140 167l-76 160h58zM239 369l-137 -162h-58l140 167l-76 160h58z" />
    <glyph glyph-name="guilsinglleft.cap" horiz-adv-x="257" 
d="M277 534l-140 -166l76 -161h-58l-73 165l137 162h58z" />
    <glyph glyph-name="guilsinglright.cap" horiz-adv-x="257" 
d="M240 369l-137 -162h-58l140 167l-76 160h58z" />
    <glyph glyph-name="hyphen.cap" horiz-adv-x="333" 
d="M320 395l-10 -49h-232l10 49h232z" />
    <glyph glyph-name="endash.cap" horiz-adv-x="486" 
d="M473 395l-9 -49h-386l10 49h385z" />
    <glyph glyph-name="emdash.cap" horiz-adv-x="736" 
d="M723 395l-9 -49h-636l10 49h635z" />
    <glyph glyph-name="slash.cap" horiz-adv-x="327" 
d="M429 839l-424 -949h-54l424 949h54z" />
    <glyph glyph-name="backslash.cap" horiz-adv-x="319" 
d="M262 -110h-50l-95 949h49z" />
    <glyph glyph-name="bar.cap" horiz-adv-x="233" 
d="M77 -110h-49l185 949h49z" />
    <glyph glyph-name="parenleft.cap" horiz-adv-x="348" 
d="M472 803q-155 -71 -249.5 -215t-94.5 -304q0 -108 43.5 -202.5t126.5 -162.5l-32 -36q-190 157 -190 399q0 174 101 327.5t276 236.5z" />
    <glyph glyph-name="parenright.cap" horiz-adv-x="348" 
d="M332 447q0 -174 -101 -327.5t-276 -237.5l-19 43q155 71 249.5 215t94.5 305q0 108 -43 202t-127 162l32 37q190 -159 190 -399z" />
    <glyph glyph-name="bracketleft.cap" horiz-adv-x="293" 
d="M393 839l-9 -46h-138l-167 -857h139l-9 -46h-191l185 949h190z" />
    <glyph glyph-name="bracketright.cap" horiz-adv-x="293" 
d="M337 839l-184 -949h-191l9 46h140l166 857h-139l9 46h190z" />
    <glyph glyph-name="braceleft.cap" horiz-adv-x="295" 
d="M401 846l-9 -49h-10q-107 0 -128 -117l-40 -208q-9 -46 -27 -70t-59 -37q49 -18 49 -67q0 -14 -5 -42l-39 -197q-5 -27 -5 -45q0 -83 97 -83l-9 -48q-140 0 -140 125q0 23 7 58l40 207q3 17 3 28q0 43 -56 43h-24l10 47h21q39 0 58 18.5t26 55.5l42 218q31 163 184 163
h14z" />
    <glyph glyph-name="braceright.cap" horiz-adv-x="294" 
d="M-45 -117l10 49h9q108 0 129 117l40 208q9 46 27 70t59 37q-49 18 -49 67q0 14 5 42l39 197q5 25 5 45q0 82 -97 82l9 49q140 0 140 -126q0 -24 -7 -57l-40 -207q-3 -17 -3 -28q0 -43 56 -43h24l-10 -47h-21q-39 0 -58 -18.5t-26 -55.5l-42 -219q-31 -162 -185 -162h-14z
" />
    <glyph glyph-name="at.cap" horiz-adv-x="873" 
d="M610 2q-64 -12 -122 -12q-168 0 -281 91.5t-113 247.5q0 170 117.5 292.5t290.5 122.5q146 0 246 -87.5t100 -232.5q0 -98 -50.5 -170t-136.5 -72q-37 0 -64 17t-36 45q-51 -56 -126 -56q-52 0 -85.5 25.5t-33.5 71.5q0 48 35 77t86 29q65 0 119 -41q9 41 9 56
q0 36 -29.5 54t-77.5 18q-30 0 -64 -8l2 46q38 9 75 9q68 0 108 -28t40 -83q0 -16 -5 -39l-14 -72q-7 -35 11.5 -55.5t53.5 -20.5q64 0 98.5 62t34.5 135q0 127 -86 200.5t-215 73.5q-146 0 -248.5 -109.5t-102.5 -259.5q0 -137 99 -215t243 -78q49 0 118 12zM548 307
q-45 42 -103 42q-32 0 -53.5 -16.5t-21.5 -45.5q0 -28 21.5 -43.5t53.5 -15.5q58 0 98 55z" />
    <glyph glyph-name="registered.alt" horiz-adv-x="842" 
d="M829 414q0 -111 -51.5 -208.5t-148 -158t-214.5 -60.5q-146 0 -238 93.5t-92 238.5q0 173 118 300t296 127q146 0 238 -93t92 -239zM786 415q0 130 -81 211.5t-208 81.5q-158 0 -263.5 -114t-105.5 -275q0 -130 81.5 -212t207.5 -82q157 0 263 115t106 275zM603 458
q0 -45 -27 -77.5t-73 -46.5l69 -151h-54l-59 140q-16 -2 -31 -2q-23 0 -38 1l-28 -139h-47l72 366q45 6 87 6q63 0 96 -26.5t33 -70.5zM554 452q0 28 -21.5 45t-60.5 17q-19 0 -46 -5l-28 -147q13 -2 36 -2q52 0 86 25t34 67z" />
    <glyph glyph-name="dollar.lin" horiz-adv-x="502" 
d="M418 812l-20 -75q66 -16 117 -57l-30 -43q-44 38 -100 51l-77 -299q33 -21 52.5 -36.5t43 -40t34.5 -54t11 -64.5q0 -86 -64 -145t-164 -59q-11 0 -16 1l-20 -80l-46 7l20 79q-80 16 -154 78l30 43q65 -57 137 -73l82 313q-43 29 -67.5 49t-46.5 57t-22 80q0 85 63 142.5
t160 57.5h12l19 74zM394 188q0 44 -26 77t-75 67l-75 -292h3q77 0 125 42.5t48 105.5zM173 550q0 -41 23 -71t72 -64l72 279h-4q-75 0 -119 -41t-44 -103z" />
    <glyph glyph-name="sterling.lin" horiz-adv-x="559" 
d="M610 673l-38 -42q-70 61 -150 61q-139 0 -175 -171l-26 -130h199l-10 -50h-199l-56 -290h337l-10 -51h-478l10 51h84l57 290h-79l3 13l86 41l25 128q21 102 80.5 161.5t161.5 59.5q99 0 178 -71z" />
    <glyph glyph-name="Euro.lin" horiz-adv-x="776" 
d="M82 473h88q47 122 154.5 196.5t235.5 74.5q67 0 129 -23.5t106 -59.5l-31 -44q-87 73 -212 73q-106 0 -192.5 -60t-127.5 -157h409l-10 -49h-416q-14 -53 -14 -105v-12h408l-9 -49h-394q19 -97 91 -156t175 -59q107 0 215 68l24 -46q-117 -75 -245 -75q-124 0 -212.5 75
t-108.5 193h-105l10 49h91v8q0 52 13 109h-82z" />
    <glyph glyph-name="yen.lin" horiz-adv-x="626" 
d="M691 733l-292 -358h183l-9 -49h-212l-21 -108h213l-10 -49h-212l-33 -169h-54l32 169h-214l10 49h214l21 108h-216l10 49h188l-157 358h58l152 -356l281 356h68z" />
    <glyph glyph-name="cent.lin" horiz-adv-x="438" 
d="M372 655l-18 -69q57 -10 100 -46l-29 -41q-38 30 -84 38l-87 -332q6 -1 20 -1q51 0 101 24l12 -44q-63 -28 -124 -28q-15 0 -22 1l-19 -75l-48 5l21 80q-54 19 -87 64.5t-33 112.5q0 95 65 168.5t165 77.5l19 70zM129 346q0 -96 79 -130l84 324q-72 -6 -117.5 -63
t-45.5 -131z" />
    <glyph glyph-name="numbersign.lin" horiz-adv-x="711" 
d="M708 526l-11 -48h-142l-50 -224h143l-11 -48h-143l-45 -206h-52l46 206h-193l-46 -206h-52l46 206h-143l10 48h143l50 224h-143l10 48h143l46 207h53l-46 -207h192l47 207h52l-46 -207h142zM505 478h-196l-51 -224h197z" />
    <glyph glyph-name="paragraph.lin" horiz-adv-x="692" 
d="M703 708l-140 -708h-57l133 671q-52 14 -128 21l-136 -692h-58l45 225q-116 4 -195.5 66t-79.5 162q0 125 102 208t263 83q115 0 251 -36zM454 695q-140 2 -223 -66.5t-83 -171.5q0 -83 63.5 -131.5t159.5 -51.5z" />
    <glyph glyph-name="section.lin" horiz-adv-x="507" 
d="M532 670l-36 -42q-67 64 -158 64q-48 0 -81.5 -23.5t-33.5 -64.5q0 -15 7.5 -28.5t17 -23t29.5 -21t32.5 -17.5t38.5 -18q33 -15 52 -25t42.5 -27t34.5 -38t11 -46q0 -49 -36.5 -84t-89.5 -48q51 -36 51 -87q0 -68 -51.5 -110t-130.5 -42q-56 0 -111 22.5t-92 61.5l38 40
q32 -33 78.5 -53t90.5 -20q49 0 83 23t34 67q0 20 -9.5 36.5t-31 31t-38 22.5t-48.5 22q-34 15 -52 24.5t-41.5 26t-34.5 37t-11 46.5q0 50 34 84t91 49q-49 37 -49 84q0 69 51.5 110t129.5 41q50 0 102 -20.5t87 -53.5zM431 351q0 25 -24 47t-50 35t-83 37l-24 10
q-44 -5 -75.5 -31.5t-31.5 -62.5q0 -15 9 -29.5t19 -24t34 -22.5t37 -18.5t45 -19.5q5 -2 19.5 -8t18.5 -8q45 6 75.5 32t30.5 63z" />
    <glyph glyph-name="degree.lin" horiz-adv-x="368" 
d="M384 633q0 -60 -40 -106t-100 -46q-47 0 -76.5 31t-29.5 79q0 61 40 107t100 46q47 0 76.5 -31.5t29.5 -79.5zM337 631q0 33 -17.5 53.5t-47.5 20.5q-36 0 -62 -33.5t-26 -78.5q0 -34 17.5 -53.5t47.5 -19.5q37 0 62.5 32.5t25.5 78.5z" />
    <glyph glyph-name="percent.lin" horiz-adv-x="814" 
d="M385 591q0 48 -24.5 78t-68.5 30q-42 0 -75 -33q-51 -51 -51 -134q0 -48 24.5 -78t68.5 -30q42 0 75 33q51 51 51 134zM434 593q0 -103 -65 -166q-46 -48 -114 -48q-64 0 -101 42.5t-37 108.5q0 103 65 166q46 48 114 48q64 0 101 -42.5t37 -108.5zM701 202q0 48 -24 78
t-68 30q-43 0 -76 -33q-50 -50 -50 -134q0 -48 24 -78t68 -30q43 0 76 33q50 50 50 134zM751 204q0 -101 -65 -166q-48 -48 -114 -48q-65 0 -102 42.5t-37 108.5q0 101 65 166q48 48 114 48q65 0 102 -42.5t37 -108.5zM831 716l-763 -732l-32 33l763 731z" />
    <glyph glyph-name="perthousand.lin" horiz-adv-x="1148" 
d="M385 591q0 48 -24.5 78t-68.5 30q-42 0 -75 -33q-51 -51 -51 -134q0 -48 24.5 -78t68.5 -30q42 0 75 33q51 51 51 134zM434 593q0 -103 -65 -166q-46 -48 -114 -48q-64 0 -101 42.5t-37 108.5q0 103 65 166q46 48 114 48q64 0 101 -42.5t37 -108.5zM701 202q0 48 -24 78
t-68 30q-43 0 -76 -33q-50 -50 -50 -134q0 -48 24 -78t68 -30q43 0 76 33q50 50 50 134zM751 204q0 -101 -65 -166q-48 -48 -114 -48q-65 0 -102 42.5t-37 108.5q0 101 65 166q48 48 114 48q65 0 102 -42.5t37 -108.5zM1069 202q0 48 -24 78t-68 30q-43 0 -76 -33
q-50 -50 -50 -134q0 -48 24 -78t68 -30q43 0 76 33q50 50 50 134zM1119 204q0 -101 -65 -166q-48 -48 -114 -48q-65 0 -102 42.5t-37 108.5q0 101 65 166q48 48 114 48q65 0 102 -42.5t37 -108.5zM831 716l-763 -732l-32 33l763 731z" />
    <glyph glyph-name="quotedbl.cap" horiz-adv-x="348" 
d="M285 719l-149 -167l-27 21l126 182zM418 709l-150 -168l-26 21l127 183z" />
    <glyph glyph-name="quotesingle.cap" horiz-adv-x="215" 
d="M285 719l-149 -167l-27 21l126 182z" />
    <glyph glyph-name="plus.lin" horiz-adv-x="459" 
d="M437 396l-9 -49h-144l-30 -152h-52l30 152h-144l10 49h144l28 150h52l-28 -150h143z" />
    <glyph glyph-name="minus.lin" horiz-adv-x="459" 
d="M88 347l9 49h340l-10 -49h-339z" />
    <glyph glyph-name="divide.lin" horiz-adv-x="459" 
d="M274 226q0 -16 -11.5 -27.5t-27.5 -11.5q-17 0 -28.5 11.5t-11.5 27.5q0 17 11.5 29t28.5 12q16 0 27.5 -12t11.5 -29zM88 347l9 49h340l-10 -49h-339zM330 515q0 -16 -12 -27.5t-28 -11.5t-28 11.5t-12 27.5q0 17 12 29t28 12t28 -12t12 -29z" />
    <glyph glyph-name="equal.lin" horiz-adv-x="399" 
d="M361 325l-9 -49h-283l9 49h283zM389 467l-10 -50h-283l10 50h283z" />
    <glyph glyph-name="multiply.lin" horiz-adv-x="446" 
d="M396 525l30 -38l-141 -118l99 -122l-39 -34l-100 123l-142 -119l-29 38l141 118l-99 123l39 33l99 -123z" />
    <glyph glyph-name="less.lin" horiz-adv-x="381" 
d="M412 573l-274 -184l193 -228l-40 -31l-228 268l322 215z" />
    <glyph glyph-name="greater.lin" horiz-adv-x="381" 
d="M380 346l-322 -216l-27 40l274 185l-193 228l40 30z" />
    <glyph glyph-name="florin.lin" horiz-adv-x="468" 
d="M516 724l-23 -47q-43 16 -79 16q-65 0 -104.5 -42t-61.5 -134l-26 -99h136l-10 -50h-140l-95 -368h-57l95 367h-72l2 13l84 37l26 105q28 109 86.5 165.5t142.5 56.5q52 0 96 -20z" />
    <glyph glyph-name="arrowleft.cap" horiz-adv-x="711" 
d="M689 346l-539 1l189 -185l-35 -35l-241 239l2 9l334 239l25 -40l-255 -180l529 1z" />
    <glyph glyph-name="arrowright.cap" horiz-adv-x="711" 
d="M84 395l539 -1l-188 185l35 35l241 -239l-2 -9l-334 -239l-26 40l256 180l-530 -1z" />
    <glyph glyph-name="hfjslug" horiz-adv-x="694" 
d="M644 -200h-208l-8 14h-163l-8 -14h-207v303q14 0 23 9.5t9 22.5t-9.5 22.5t-22.5 9.5v554h100l30 79h334l29 -79h101v-921zM400 563v-172h15v78h38v14h-38v66h43v14h-58zM184 563v-172h15v79h47v-79h15v172h-15v-79h-47v79h-15zM460 394q8 -4 21 -4q31 0 31 36v137h-16
v-137q0 -22 -16 -22q-10 0 -20 6v-16zM349 438l-16 31q23 21 23 42q0 12 -7 21.5t-20 9.5q-12 0 -20 -9.5t-8 -21.5q0 -13 14 -39q-23 -18 -23 -45q0 -17 9 -28t22 -11q17 0 27 24h1l12 -24l11 8l-16 30q10 23 13 39l-13 3q-2 -9 -9 -30zM523 323v-46h8v13l7 7l16 -20h9
l-19 26l18 20h-10l-21 -24v24h-8zM488 292l10 -15h9l-12 17q10 3 10 15q0 5 -4.5 9.5t-11.5 4.5h-21v-46h8v15h12zM426 276q11 0 17.5 7t6.5 17q0 9 -7 16.5t-17 7.5t-16.5 -7.5t-6.5 -16.5q0 -10 6.5 -17t16.5 -7zM370 301l-13 22h-9l18 -29v-17h8v17l18 29h-9zM193 323
v-46h33v7h-25v13h22v7h-22v12h25v7h-33zM132 323v-46h8v32l25 -32h7v46h-8v-32l-25 32h-7zM241 323l15 -47h8l10 34h1l11 -34h8l14 47h-8l-10 -35h-1l-10 35h-8l-11 -35h-1l-10 35h-8zM327 479q-12 22 -12 32q0 19 14 19q13 0 13 -19q0 -15 -15 -32zM342 423q-6 -21 -18 -21
q-17 0 -17 27q0 18 15 33zM488 299h-12v17h11q10 0 10 -8q0 -9 -9 -9zM426 283q-15 0 -15 17q0 6 4.5 11.5t10.5 5.5q7 0 11.5 -5.5t4.5 -11.5q0 -7 -4.5 -12t-11.5 -5z" />
    <glyph glyph-name="caron.alt" horiz-adv-x="215" 
d="M131 738l55 -9q-22 -120 -125 -184l-24 23q74 62 94 170z" />
    <glyph glyph-name="NUL" horiz-adv-x="0" 
 />
    </font>
</defs>
</svg>
