<?xml version="1.0" encoding="utf-8"?>
<!-- Generator: Adobe Illustrator 15.0.2, SVG Export Plug-In . SVG Version: 6.00 Build 0)  -->
<!DOCTYPE svg PUBLIC "-//W3C//DTD SVG 1.1//EN" "http://www.w3.org/Graphics/SVG/1.1/DTD/svg11.dtd">
<svg version="1.1" id="Layer_1" xmlns="http://www.w3.org/2000/svg" xmlns:xlink="http://www.w3.org/1999/xlink" x="0px" y="0px"
	 width="500px" height="500px" viewBox="0 0 500 500" enable-background="new 0 0 500 500" xml:space="preserve">
<path fill="#231F20" d="M258.606,239.839c-11.781-11.496-24.901-24.66-36.005-36.113l-2.906-2.992l3.369-2.479
	c15.621-11.468,21.732-25.243,24.104-34.788c2.429-9.729,4.331-29.232-10.186-50.53c-1.446-2.108-4.338-6.439-8.099-12.052
	l-2.528-3.775c-27.445-40.957-43.429-64.605-49.326-72.184c-16.583-21.34-35.786-25.828-48.984-25.828
	c-10.855,0-19.724,3.006-26.191,5.214l-2.201,0.741C83.74,10.353,67.443,17.134,42.84,41.75
	C-4.577,89.189-12.163,145.133,18.978,217.786c30.294,70.702,102.442,143.826,110.569,151.932
	c8.155,8.149,81.707,80.475,151.946,110.591c29.545,12.636,55.602,18.79,79.648,18.79c36.141,0,67.652-13.961,96.373-42.666
	c24.617-24.603,31.398-40.914,36.697-56.812l0.74-2.194c3.947-11.596,15.898-46.84-20.627-75.203
	c-7.65-5.955-32.225-22.565-72.084-49.248l-3.676-2.465c-5.699-3.817-10.086-6.767-12.223-8.234
	c-11.59-7.892-23.877-11.895-36.52-11.895c-8.975,0-31.689,2.521-48.807,25.842l-2.479,3.362l-3.006-2.906
	c-11.361-11.026-24.518-24.161-36.105-36.014 M452.983,383.166l-0.826,2.436c-3.305,9.944-6.723,20.215-25.984,39.476
	c-13.818,13.818-33.705,29.688-65.031,29.688c-17.936,0-38.279-4.972-62.184-15.215c-63.806-27.352-137.329-100.447-138.063-101.188
	c-2.999-3.006-73.822-74.235-101.167-138.042C30.004,130.943,49.115,98.178,74.195,73.091
	c19.253-19.246,29.539-22.679,39.476-25.984l2.493-0.84c11.532-3.903,17.8-4.544,25.877,5.869
	c6.076,7.821,32.175,46.769,47.767,70.047c4.936,7.379,8.79,13.12,10.542,15.699c3.696,5.442,4.943,10.286,3.811,14.844
	c-1.239,4.958-5.278,9.174-12.344,12.878c-14.26,7.465-31.833,19.246-34.454,27.865c-0.577,1.895-0.164,3.006,0.2,3.661
	c5.727,10.527,52.532,57.297,70.089,74.435c17.195,17.607,63.958,64.434,74.485,70.146c0.619,0.342,1.225,0.498,1.916,0.498
	c6.717,0,18.889-14.288,29.602-34.745c7.061-13.405,16.156-16.368,27.723-8.548c2.637,1.795,8.533,5.741,16.092,10.812
	c23.148,15.5,61.898,41.455,69.676,47.51C458.739,366.242,456.575,372.609,452.983,383.166z"/>
</svg>
