<?xml version="1.0" encoding="utf-8"?>
<!-- Generator: Adobe Illustrator 15.0.2, SVG Export Plug-In . SVG Version: 6.00 Build 0)  -->
<!DOCTYPE svg PUBLIC "-//W3C//DTD SVG 1.1//EN" "http://www.w3.org/Graphics/SVG/1.1/DTD/svg11.dtd">
<svg version="1.1" id="Layer_1" xmlns="http://www.w3.org/2000/svg" xmlns:xlink="http://www.w3.org/1999/xlink" x="0px" y="0px"
	 width="500px" height="500px" viewBox="0 0 500 500" enable-background="new 0 0 500 500" xml:space="preserve">
<g>
	<path fill="#231F20" d="M249.972,499L249.972,499c-7.206,0-13.898-3.624-17.842-9.65L103.693,293.044
		c-6.775-9.525-24.909-43.558-28.881-56.513c-5.332-17.439-8.025-35.532-8.025-53.791C66.787,81.422,148.959-1,249.972-1
		c101.042,0,183.241,82.422,183.241,183.741c0,18.245-2.708,36.323-8.04,53.777c-3.901,12.844-22.062,46.973-28.866,56.526
		L267.814,489.35C263.871,495.376,257.165,499,249.972,499z M249.972,41.655c-77.492,0-140.529,63.288-140.529,141.086
		c0,14.038,2.055,27.923,6.15,41.294c2.264,7.359,18.397,38.211,22.66,44.001c0.236,0.319,0.639,0.875,0.848,1.208l110.885,169.481
		l110.914-169.481c0.277-0.416,0.556-0.819,0.861-1.222c4.276-5.804,20.383-36.629,22.604-43.946
		c4.11-13.44,6.192-27.325,6.192-41.335C390.558,104.943,327.492,41.655,249.972,41.655z M251.485,270.327
		c-51.485,0-93.362-42.002-93.362-93.626c0-51.611,41.877-93.585,93.362-93.585c51.458,0,93.336,41.975,93.336,93.585
		C344.821,228.325,302.943,270.327,251.485,270.327z M251.485,125.771c-27.965,0-50.708,22.841-50.708,50.93
		c0,28.103,22.743,50.972,50.708,50.972c27.938,0,50.681-22.869,50.681-50.972C302.166,148.611,279.423,125.771,251.485,125.771z"/>
</g>
</svg>
