<?xml version="1.0" encoding="utf-8"?>
<!-- Generator: Adobe Illustrator 15.0.2, SVG Export Plug-In . SVG Version: 6.00 Build 0)  -->
<!DOCTYPE svg PUBLIC "-//W3C//DTD SVG 1.1//EN" "http://www.w3.org/Graphics/SVG/1.1/DTD/svg11.dtd">
<svg version="1.1" id="Layer_1" xmlns="http://www.w3.org/2000/svg" xmlns:xlink="http://www.w3.org/1999/xlink" x="0px" y="0px"
	 width="500px" height="500px" viewBox="0 0 500 500" enable-background="new 0 0 500 500" xml:space="preserve">
<path fill="#231F20" d="M494.737,35.608L462.379,3.251c-4.334-4.334-11.366-4.334-15.716,0l-24.108,24.107l-2.32-2.335
	c-4.35-4.349-11.383-4.349-15.732,0L49.663,379.855c-0.902,0.922-1.644,1.957-2.203,3.145L1.056,481.822
	c-1.991,4.225-1.111,9.244,2.182,12.586c2.133,2.111,4.993,3.258,7.88,3.258c1.587,0,3.182-0.32,4.678-1.047l99.15-46.078
	c1.174-0.529,2.251-1.301,3.167-2.221l304.442-304.423l14.629,14.626L270.051,325.67l15.717,15.703l174.989-175.005
	c2.099-2.055,3.272-4.894,3.272-7.844c0-2.936-1.174-5.761-3.272-7.844l-22.485-22.486l34.681-34.707
	c2.099-2.084,3.271-4.895,3.271-7.845c0-2.964-1.173-5.775-3.271-7.859l-2.321-2.321l24.106-24.107
	C499.087,46.991,499.087,39.944,494.737,35.608z M66.598,394.537l36.825,36.848l-69.24,32.162L66.598,394.537z M119.245,415.766
	l-37.021-37.014L412.361,48.613L436.764,73l10.304,10.278c0.016,0.028,0.016,0.028,0.029,0.042l2.308,2.293L119.245,415.766z
	 M454.927,59.716l-16.655-16.654l16.251-16.235l16.64,16.64L454.927,59.716z"/>
</svg>
