<?xml version="1.0" encoding="utf-8"?>
<!-- Generator: Adobe Illustrator 15.0.2, SVG Export Plug-In . SVG Version: 6.00 Build 0)  -->
<!DOCTYPE svg PUBLIC "-//W3C//DTD SVG 1.1//EN" "http://www.w3.org/Graphics/SVG/1.1/DTD/svg11.dtd">
<svg version="1.1" id="Layer_1" xmlns="http://www.w3.org/2000/svg" xmlns:xlink="http://www.w3.org/1999/xlink" x="0px" y="0px"
	 width="500px" height="500px" viewBox="0 0 500 500" enable-background="new 0 0 500 500" xml:space="preserve">
<g>
	<path fill="#231F20" d="M250-0.258C112.153-0.258,0,111.88,0,249.728c0,137.848,112.153,250,250,250c137.848,0,250-112.152,250-250
		C500,111.88,387.848-0.258,250-0.258z M250,455.283c-113.354,0-205.556-92.217-205.556-205.556S136.646,44.187,250,44.187
		c113.339,0,205.556,92.202,205.556,205.541S363.339,455.283,250,455.283z"/>
	<path fill="#231F20" d="M249.971,96.776c-12.268,0-22.222,9.954-22.222,22.222v150.984l-56.829,99.465
		c-6.076,10.662-2.373,24.232,8.275,30.324c3.473,1.981,7.263,2.922,10.996,2.922c7.725,0,15.219-4.021,19.328-11.197
		l58.189-101.838c0.447-0.796,0.737-1.635,1.084-2.459c2.127-3.4,3.4-7.394,3.4-11.705V118.999
		C272.193,106.73,262.254,96.776,249.971,96.776z"/>
</g>
</svg>
