<?xml version="1.0" encoding="utf-8"?>
<!-- Generator: Adobe Illustrator 15.0.2, SVG Export Plug-In . SVG Version: 6.00 Build 0)  -->
<!DOCTYPE svg PUBLIC "-//W3C//DTD SVG 1.1//EN" "http://www.w3.org/Graphics/SVG/1.1/DTD/svg11.dtd">
<svg version="1.1" id="Layer_1" xmlns="http://www.w3.org/2000/svg" xmlns:xlink="http://www.w3.org/1999/xlink" x="0px" y="0px"
	 width="500px" height="500px" viewBox="0 0 500 500" enable-background="new 0 0 500 500" xml:space="preserve">
<g>
	<g>
		<path fill="#231F20" d="M427.111,111.718H72.896c-15.708,0-28.449,12.733-28.449,28.44v203.536
			c0,15.434,12.294,33.263,27.621,16.727V140.25h355.872v220.171c15.328,16.544,27.621-1.293,27.621-16.727V140.158
			C455.561,124.451,442.82,111.718,427.111,111.718z"/>
		<path fill="#231F20" d="M427.939,377.429v-0.024c-0.271,0.008-0.545,0.024-0.828,0.024H427.939z"/>
		<path fill="#231F20" d="M72.896,377.429c-0.281,0-0.547-0.017-0.828-0.024v0.024H72.896z"/>
	</g>
	<path fill="#231F20" d="M0,343.702c0,15.235,12.352,44.58,27.596,44.58h444.808c15.252,0,27.596-29.345,27.596-44.58H0z
		 M270.244,371.92h-40.479c-2.37,0-4.3-1.914-4.3-4.292c0-2.377,1.93-4.291,4.3-4.291h40.479c2.369,0,4.299,1.914,4.299,4.291
		C274.543,370.006,272.613,371.92,270.244,371.92z"/>
</g>
</svg>
