<?xml version="1.0" encoding="utf-8"?>
<!-- Generator: Adobe Illustrator 15.0.2, SVG Export Plug-In . SVG Version: 6.00 Build 0)  -->
<!DOCTYPE svg PUBLIC "-//W3C//DTD SVG 1.1//EN" "http://www.w3.org/Graphics/SVG/1.1/DTD/svg11.dtd">
<svg version="1.1" id="Layer_1" xmlns="http://www.w3.org/2000/svg" xmlns:xlink="http://www.w3.org/1999/xlink" x="0px" y="0px"
	 width="560px" height="500px" viewBox="0 0 560 500" enable-background="new 0 0 560 500" xml:space="preserve">
<path fill="#231F20" d="M20.424,150.177v41.797v4.295h4.27h345.139h4.22v-4.295v-41.797v-4.295h-4.22H24.694h-4.27V150.177z
	 M20.424,213.364v41.797v4.27h4.27h345.139h4.22v-4.27v-41.797v-4.295h-4.22H24.694h-4.27V213.364z M20.424,322.526
	c0,0,0.479-0.922,1.154-2.192c4.946-12.877,16.758-22.016,30.542-22.016c12.891,0,23.974,8.048,29.399,19.626
	c5.426-11.578,16.512-19.626,29.388-19.626c14.576,0,26.829,10.242,31.176,24.299h0.792h116.756h1.027
	c4.361-14.057,16.627-24.299,31.191-24.299c12.902,0,23.96,8.048,29.386,19.626c5.438-11.578,16.511-19.626,29.414-19.626
	c9.149,0,17.406,4.037,23.403,10.501v-36.526H20.424V322.526z M52.12,356.625c6.633,0,12.331-3.375,16.265-8.424
	c2.881-3.985,4.866-8.825,4.866-14.331c0-7.645-3.569-14.134-8.734-18.392c-3.543-2.752-7.686-4.711-12.397-4.711
	c-8.487,0-15.68,5.399-19.146,13.018c-1.363,3.076-2.27,6.426-2.284,10.073C30.768,346.462,40.308,356.625,52.12,356.625
	 M110.908,356.625c6.192,0,11.669-2.869,15.588-7.359c3.336-4.104,5.543-9.437,5.543-15.396c0-7.917-3.856-14.627-9.373-18.833
	c-3.426-2.479-7.294-4.244-11.758-4.244c-8.71,0-16.109,5.556-19.483,13.537c-1.22,2.921-1.92,6.113-1.948,9.528
	C89.556,346.462,99.108,356.625,110.908,356.625 M272.081,342.632c3.271,8.243,10.916,13.993,19.781,13.993
	c7.944,0,14.563-4.803,18.289-11.669c1.688-3.336,2.896-6.997,2.896-11.086c0-6.748-2.7-12.745-6.867-17.028
	c-3.803-3.699-8.787-6.074-14.317-6.074c-7.191,0-13.265,4.036-17.172,9.89c-2.453,3.776-4.192,8.191-4.192,13.213
	C270.497,336.985,271.068,339.933,272.081,342.632 M330.438,340.348c2.686,9.359,10.565,16.277,20.211,16.277
	c7.786,0,14.316-4.647,18.066-11.293c1.793-3.426,3.115-7.204,3.115-11.462c0-6.814-2.777-12.849-7.034-17.106
	c-3.791-3.635-8.657-5.971-14.147-5.971c-7.543,0-13.876,4.398-17.692,10.694c-2.154,3.661-3.7,7.749-3.7,12.383
	C329.257,336.168,329.88,338.231,330.438,340.348 M417.158,171.595v25.779v11.707v35.086v4.296h4.258h8.722h4.244v-4.296v-72.571
	v-4.283h-4.244h-8.722h-4.258V171.595z M417.158,265.57v52.764v4.283h4.258h45.234h1.636c4.387-13.591,16.331-23.48,30.504-23.48
	c14.162,0,26.142,9.89,30.49,23.48h1.595h3.507h4.218v-4.283v-46.016v-3.438l-3.322-0.766l-30.232-6.776l-0.439-0.092h-0.467h-0.585
	l-0.155,0.026l-70.119-0.026l-11.863,0.026h-4.258V265.57z M498.79,310.768c-5.881,0-11.215,2.556-15.123,6.671
	c-3.802,4.206-6.191,10.021-6.191,16.432c0,6.387,2.375,12.162,6.154,16.395c3.905,4.114,9.254,6.685,15.16,6.685
	c5.867,0,11.176-2.545,15.068-6.594c3.83-4.257,6.166-10.085,6.166-16.485c0-6.45-2.35-12.292-6.191-16.535
	C509.926,313.298,504.644,310.768,498.79,310.768 M495.104,243.05l-9.139-35.061l-0.829-3.205h-3.26h-31.697h-4.27v4.295v35.046
	v4.298h4.27l40.837,0.012h5.528L495.104,243.05z M4.977,322.657l3.945-0.312V143.116c0-5.543,3.752-10.059,8.398-10.059h359.652
	c4.763,0,8.645,4.516,8.645,10.059V314.75h19.989V168.712c0-7.865,5.879-14.251,13.096-14.251h14.149
	c7.217,0,13.069,6.386,13.069,14.251V192h37.812c5.271,0,9.529,3.36,12.578,9.968c0.13,0.364,12.409,47.105,12.409,47.105
	l33.359,7.477c4.608,0.829,8.072,4.995,8.072,9.577v56.31l4.01,0.221c3.039,0.181,5.454,2.984,5.454,6.398
	c0,3.543-2.596,6.412-5.764,6.412h-22.806c-0.818,18.365-14.914,33.086-32.244,33.086c-17.341,0-31.423-14.721-32.229-33.086
	h-83.085c-0.895,18.679-15.214,33.618-32.839,33.618c-12.903,0-23.976-8.034-29.414-19.626
	c-5.426,11.592-16.483,19.626-29.386,19.626c-17.654,0-31.957-14.939-32.852-33.618h-115.25c-0.872,18.679-15.2,33.618-32.84,33.618
	c-12.89,0-23.988-8.034-29.4-19.626c-5.439,11.592-16.497,19.626-29.399,19.626c-17.654,0-31.971-14.939-32.866-33.618H5.393
	c-3.167,0-5.777-2.869-5.777-6.412C-0.357,325.681,1.991,322.878,4.977,322.657"/>
</svg>
