<?xml version="1.0" encoding="utf-8"?>
<!-- Generator: Adobe Illustrator 16.0.4, SVG Export Plug-In . SVG Version: 6.00 Build 0)  -->
<!DOCTYPE svg PUBLIC "-//W3C//DTD SVG 1.1//EN" "http://www.w3.org/Graphics/SVG/1.1/DTD/svg11.dtd">
<svg version="1.1" id="Layer_1" xmlns="http://www.w3.org/2000/svg" xmlns:xlink="http://www.w3.org/1999/xlink" x="0px" y="0px"
	 width="500px" height="500px" viewBox="0 0 500 500" enable-background="new 0 0 500 500" xml:space="preserve">
<path d="M413.968,280.561c0,90.68-73.794,164.454-164.493,164.454c-90.689,0-164.484-73.774-164.484-164.454
	c0-89.896,72.472-163.129,162.031-164.452v48.122c0,9.16,3.205,14.077,8.142,14.077c3.126,0,6.943-1.988,11.078-6.123l64.091-64.081
	c10.623-10.634,10.644-27.846,0-38.45l-64.091-64.13c-4.135-4.115-7.952-6.113-11.078-6.113c-4.917,0-8.142,4.926-8.142,14.086
	v48.216c-119.562,1.326-216.427,98.95-216.427,218.849c0,120.662,98.188,218.85,218.88,218.85
	c120.702,0,218.89-98.188,218.89-218.85H413.968z"/>
</svg>
