<?xml version="1.0" encoding="utf-8"?>
<!-- Generator: Adobe Illustrator 15.0.2, SVG Export Plug-In . SVG Version: 6.00 Build 0)  -->
<!DOCTYPE svg PUBLIC "-//W3C//DTD SVG 1.1//EN" "http://www.w3.org/Graphics/SVG/1.1/DTD/svg11.dtd">
<svg version="1.1" id="Layer_1" xmlns="http://www.w3.org/2000/svg" xmlns:xlink="http://www.w3.org/1999/xlink" x="0px" y="0px"
	 width="500px" height="500px" viewBox="0 0 500 500" enable-background="new 0 0 500 500" xml:space="preserve">
<g>
	<path fill="#231F20" d="M448.002,125.003c0,5.859-4.649,10.488-10.509,10.488h-62.491c-5.858,0-10.498-4.629-10.498-10.488V62.491
		c0-5.849,4.64-10.499,10.498-10.499h62.491c5.859,0,10.509,4.65,10.509,10.499V125.003z M448.002,437.488
		c0,5.859-4.649,10.51-10.509,10.51H62.496c-5.859,0-10.499-4.65-10.499-10.51V218.739h55.423
		c-2.2,10.019-3.169,20.507-3.169,31.256c0,80.569,65.181,145.749,145.749,145.749s145.75-65.18,145.75-145.749
		c0-10.749-0.98-21.237-3.17-31.256h55.422V437.488z M250,156.248c51.752,0,93.746,41.984,93.746,93.747
		S301.752,343.742,250,343.742c-51.753,0-93.747-41.984-93.747-93.747S198.247,156.248,250,156.248 M427.006,0H73.005
		C32.71,0-0.005,32.705-0.005,73v354c0,40.274,32.715,73,73.01,73h354.001c40.273,0,72.999-32.726,72.999-73V73
		C500.005,32.705,467.279,0,427.006,0"/>
</g>
</svg>
