<?xml version="1.0" encoding="utf-8"?>
<!-- Generator: Adobe Illustrator 15.0.2, SVG Export Plug-In . SVG Version: 6.00 Build 0)  -->
<!DOCTYPE svg PUBLIC "-//W3C//DTD SVG 1.1//EN" "http://www.w3.org/Graphics/SVG/1.1/DTD/svg11.dtd">
<svg version="1.1" id="Layer_1" xmlns="http://www.w3.org/2000/svg" xmlns:xlink="http://www.w3.org/1999/xlink" x="0px" y="0px"
	 width="500px" height="500px" viewBox="0 0 500 500" enable-background="new 0 0 500 500" xml:space="preserve">
<g>
	<path fill="#231F20" d="M261.477,0C124.993,0,56.625,97.903,56.625,179.466c0,49.061,18.554,93.022,58.605,109.854
		c6.827,2.449,12.69,0,14.403-7.561c1.223-4.641,4.632-17.33,5.863-22.948c1.696-7.094,0.978-9.281-4.167-15.626
		c-11.459-13.922-19.027-31.266-19.027-56.888c0-72.282,54.438-137.219,141.852-137.219c76.909,0,119.16,46.87,119.16,110.111
		c0,82.772-36.388,152.854-90.835,152.854c-30.284,0-52.742-24.916-45.911-55.674c8.786-36.38,25.645-75.695,25.645-101.812
		c0-23.698-12.69-42.983-38.821-42.983c-30.766,0-54.938,31.262-54.938,74.228c0,27.107,8.545,45.661,8.545,45.661
		s-31.252,133.06-36.379,156.263c-10.986,46.393-1.714,103.525-1.219,109.375c0.724,2.928,4.641,4.146,7.082,1.223
		c2.923-3.412,39.311-48.574,51.511-93.762c3.904-12.689,20.267-78.613,20.267-78.613c10.258,19.053,39.312,35.174,70.556,35.174
		c92.053,0,154.559-84.004,154.559-196.81C443.375,79.354,371.597,0,261.477,0"/>
</g>
</svg>
