<?xml version="1.0" encoding="utf-8"?>
<!-- Generator: Adobe Illustrator 15.0.2, SVG Export Plug-In . SVG Version: 6.00 Build 0)  -->
<!DOCTYPE svg PUBLIC "-//W3C//DTD SVG 1.1//EN" "http://www.w3.org/Graphics/SVG/1.1/DTD/svg11.dtd">
<svg version="1.1" id="Layer_1" xmlns="http://www.w3.org/2000/svg" xmlns:xlink="http://www.w3.org/1999/xlink" x="0px" y="0px"
	 width="500px" height="500px" viewBox="0 0 500 500" enable-background="new 0 0 500 500" xml:space="preserve">
<path fill="#231F20" d="M499.52,94.995c-18.547,8.301-38.076,13.915-59.07,16.361c21.477-12.701,37.596-32.962,45.164-56.883
	c-19.547,11.71-41.754,20.27-64.711,24.894c-19.279-19.521-45.878-32.23-75.422-32.23c-56.643,0-102.307,45.664-102.307,102.297
	c0,8.06,0.482,16.361,2.214,23.688c-84.973-4.641-160.181-43.209-211.2-105.216c-8.533,15.138-13.906,30.749-13.906,49.796
	c0,35.149,18.066,66.407,45.896,84.964c-16.852-0.491-32.472-5.141-46.378-12.701v1.223c0,49.814,35.399,91.301,82.259,100.584
	c-8.783,2.428-18.048,3.659-27.331,3.659c-6.355,0-12.692-0.731-19.047-1.946c12.692,40.523,51.037,70.799,95.452,71.281
	c-34.667,27.83-79.332,48.592-127.191,48.592c-8.301,0-16.37-0.482-24.421-1.714c45.164,29.044,99.629,41.755,157.485,41.755
	c188.475,0,291.496-156.271,291.496-291.755V148.21C468.262,133.822,485.613,115.998,499.52,94.995"/>
</svg>
