<?xml version="1.0" encoding="utf-8"?>
<!-- Generator: Adobe Illustrator 15.0.2, SVG Export Plug-In . SVG Version: 6.00 Build 0)  -->
<!DOCTYPE svg PUBLIC "-//W3C//DTD SVG 1.1//EN" "http://www.w3.org/Graphics/SVG/1.1/DTD/svg11.dtd">
<svg version="1.1" id="Layer_1" xmlns="http://www.w3.org/2000/svg" xmlns:xlink="http://www.w3.org/1999/xlink" x="0px" y="0px"
	 width="622px" height="500px" viewBox="0 0 622 500" enable-background="new 0 0 622 500" xml:space="preserve">
<g>
	<path fill="#231F20" d="M535.333,296.871L621.716,71.98H119L96.711,0H0.284l12.814,36.264h58.685l114.871,357.67
		c-24.775,4.622-43.569,26.33-43.569,52.551c0,29.584,23.909,53.516,53.416,53.516c29.518,0,53.481-23.943,53.481-53.516
		c0-6.319-1.314-12.311-3.286-17.918h149.242c-1.994,5.607-3.286,11.565-3.286,17.886c0,29.571,23.932,53.548,53.471,53.548
		c29.572,0,53.536-23.977,53.536-53.548c0-28.631-22.397-51.763-50.579-53.329c-0.208,0-3.614-0.175-3.965-0.175l-222.481-0.099
		l-23.077-71.434L535.333,296.871z"/>
</g>
</svg>
