<?xml version="1.0" encoding="utf-8"?>
<!-- Generator: Adobe Illustrator 16.0.4, SVG Export Plug-In . SVG Version: 6.00 Build 0)  -->
<!DOCTYPE svg PUBLIC "-//W3C//DTD SVG 1.1//EN" "http://www.w3.org/Graphics/SVG/1.1/DTD/svg11.dtd">
<svg version="1.1" id="Layer_1" xmlns="http://www.w3.org/2000/svg" xmlns:xlink="http://www.w3.org/1999/xlink" x="0px" y="0px"
	 width="500px" height="500px" viewBox="0 0 500 500" enable-background="new 0 0 500 500" xml:space="preserve">
<g>
	<path d="M249.997,0.547C112.147,0.547,0,112.694,0,250.55c0,137.843,112.147,250.003,249.997,250.003
		C387.841,500.553,500,388.393,500,250.55C500,112.694,387.841,0.547,249.997,0.547z M249.997,490.543
		c-132.338,0-239.999-107.655-239.999-239.993S117.659,10.544,249.997,10.544S489.99,118.212,489.99,250.55
		S382.335,490.543,249.997,490.543z"/>
	<polygon points="308.787,149.328 249.997,208.117 191.201,149.328 148.781,191.76 207.565,250.544 148.781,309.327 191.201,351.76 
		249.997,292.97 308.787,351.76 351.219,309.327 292.43,250.544 351.219,191.76 	"/>
</g>
</svg>
