<?xml version="1.0" encoding="utf-8"?>
<!-- Generator: Adobe Illustrator 15.0.2, SVG Export Plug-In . SVG Version: 6.00 Build 0)  -->
<!DOCTYPE svg PUBLIC "-//W3C//DTD SVG 1.1//EN" "http://www.w3.org/Graphics/SVG/1.1/DTD/svg11.dtd">
<svg version="1.1" id="Layer_1" xmlns="http://www.w3.org/2000/svg" xmlns:xlink="http://www.w3.org/1999/xlink" x="0px" y="0px"
	 width="560px" height="500px" viewBox="0 0 560 500" enable-background="new 0 0 560 500" xml:space="preserve">
<path fill="#231F20" d="M559.02,448.85L410.17,317.635c15.826-30.11,24.896-64.294,24.896-100.604
	C435.065,97.36,337.705,0,218.022,0C98.352,0,0.98,97.36,0.98,217.031c0,119.683,97.371,217.043,217.042,217.043
	c58.773,0,112.093-23.57,151.205-61.643L513.938,500L559.02,448.85z M218.022,365.903c-82.081,0-148.85-66.79-148.85-148.872
	c0-82.081,66.769-148.86,148.85-148.86s148.872,66.78,148.872,148.86C366.895,299.113,300.104,365.903,218.022,365.903z"/>
</svg>
